<?xml version="1.0" encoding="utf-8"?>
<svg width="280px" height="239.42139px" viewBox="0 0 280 239.42139" version="1.1" xmlns:xlink="http://www.w3.org/1999/xlink" xmlns="http://www.w3.org/2000/svg">
  <g id="CIIS2" fill-opacity="1">
    <path d="M0 0L280 0L280 239.421L0 239.421L0 0Z" id="CIIS2" fill="none" fill-rule="evenodd" stroke="none" />
    <g id="CIIS-2">
      <path d="M146.116 59.8436C143.063 57.6808 140.662 55.4814 138.826 51.1007C140.291 53.0425 142.782 54.1658 145.5 53.6342C148.101 53.1254 150.198 51.0292 150.704 48.4264C151.534 44.1507 148.282 40.4088 144.155 40.4088C140.943 40.4088 138.267 42.6788 137.628 45.7013C137.392 45.6814 137.704 45.7077 137.468 45.6877C136.782 39.5359 138.979 36.2078 140.377 33.8703C144.095 27.6538 149.981 21.2928 151.808 15.9758C153.785 10.2233 152.921 5.88559 152.921 5.88559C152.921 5.88559 150.448 14.1427 145.844 18.9824C139.453 25.702 129.837 36.3088 130.414 45.1313C130.805 51.1057 132.485 55.4977 136.415 58.9802C141.197 63.2156 150.555 65.9886 157.335 63.2273C157.998 62.9566 151.134 63.3989 146.116 59.8436" id="Shape" fill="#C9E3BC" stroke="none" />
      <path d="M181.504 39.5341C178.562 27.848 167.363 16.8383 164.64 13.5546C157.538 4.99146 156.005 0 156.005 0C156.005 0 154.279 2.46245 155.447 7.18317C156.615 11.9003 162.341 19.2949 166.446 25.9918C170.736 32.9925 175.199 42.3072 173.774 50.4796C173.619 51.3674 173.128 52.913 172.14 54.7109C172.027 50.3415 168.457 46.8318 164.061 46.8318C159.593 46.8318 155.971 50.4538 155.971 54.9218C155.971 59.3732 159.566 62.9824 164.011 63.0096C162.407 63.9622 160.562 64.8052 158.443 65.4639C143.168 70.2168 132.653 58.2567 132.653 58.2567C132.653 58.2567 133.559 65.2973 146.083 71.8797C146.556 72.1282 158.925 76.3966 168.944 70.5803C181.593 63.2373 184.6 51.8283 181.504 39.5341" id="Shape-2" fill="#C9E3BC" stroke="none" />
      <path d="M169.865 145.002L159.364 150.313L159.364 81.0404L169.865 85.082L169.865 145.002Z" id="Polygon" fill="#C9E3BC" fill-rule="evenodd" stroke="none" />
      <path d="M141.255 145.002L151.755 150.312L151.755 81.0404L141.255 85.0811L141.255 145.002Z" id="Polygon-2" fill="#C9E3BC" fill-rule="evenodd" stroke="none" />
      <path d="M179.435 142.735C180.38 129.597 189.962 125.774 189.672 126.099C184.279 132.142 183.031 140.3 183.512 144.764C184.035 149.631 185.109 157.1 193.992 163.325C200.101 167.606 212.114 170.921 218.421 171.318C225.036 171.735 231.198 171.591 237.671 170C243.435 168.582 248.591 166.032 252.673 161.606C256.512 157.443 258.042 152.441 257.869 146.863C257.716 141.97 256.32 137.512 253.09 133.732C250.599 130.816 247.424 128.825 244.053 127.123C237.379 123.75 230.277 121.542 223.117 119.495C215.282 117.256 207.559 114.712 200.334 110.871C194.886 107.975 190.106 104.283 186.718 99.0174C182.974 93.1992 181.869 86.7812 182.618 80.0087C183.732 69.9407 189.412 62.9323 197.794 57.8253C203.747 54.1984 210.286 52.3246 217.176 51.587C224.002 50.8568 230.798 50.9772 237.494 52.6152C247.883 55.1578 256.555 60.3 262.427 69.5146C266.039 75.1816 267.74 81.4258 267.861 88.1218C267.861 89.959 266.984 96.1267 263.376 97.0942C259.866 98.0363 254.353 94.8545 250.82 87.9941C246.93 80.264 251.373 71.2586 251.373 71.2586C248.054 67.0907 243.434 64.1302 237.736 62.2106C231.377 60.0682 224.797 59.9835 218.199 60.6812C213.329 61.196 208.663 62.47 204.406 64.9705C198.933 68.1858 194.883 72.5729 193.64 78.9914C192.071 87.0909 194.284 93.9354 200.894 99.1084C205.641 102.826 211.117 105.181 216.781 107.045C222.738 109.007 228.806 110.633 234.783 112.537C241.345 114.628 247.778 117.06 253.594 120.85C259.407 124.637 264.334 129.329 266.592 136.028C270.456 147.488 269.417 158.304 260.988 167.602C256.032 173.07 249.691 176.456 242.592 178.238C227.787 181.954 213.244 181.265 199.24 174.825C190.145 170.643 183.535 164.024 180.255 154.381C179.024 150.765 179.242 145.422 179.435 142.735" id="Shape-3" fill="#C9E3BC" stroke="none" />
      <path d="M46.7468 112.976L58.3754 116.816L58.3754 120.005L66.9453 125.183L61.588 134.668L51.5531 143.011L49.0548 150.335L51.3045 158.22L41.9332 148.507L42.4598 133.396L37.0088 126.611L41.0282 117.546L37.7327 114.238L35.2445 105.53L27.6172 105.53L42.6739 87.3787L77.002 87.3787L64.0025 100.466L60.2728 110.588L59.8762 101.051C59.8762 101.051 51.525 99.5583 49.2314 99.5583C46.9383 99.5583 42.2108 103.042 42.2108 103.042L44.2015 109.51L38.4789 109.013L38.2923 113.74L46.7468 112.976L46.7468 112.976Z" id="Shape-4" fill="#C9E3BC" stroke="none" />
      <path d="M228.551 235.101L217.315 239.421L217.315 81.0404L228.551 85.3605L228.551 235.101Z" id="Polygon-3" fill="#C9E3BC" fill-rule="evenodd" stroke="none" />
      <path d="M76.267 170.233C46.3754 170.233 22.1429 146.001 22.1429 116.109C22.1429 86.217 46.3754 61.9841 76.267 61.9841C95.4917 61.9841 112.363 72.0163 121.965 87.122L132.239 83.171C120.944 64.0182 100.112 51.1595 76.267 51.1595C40.3969 51.1595 11.3184 80.2386 11.3184 116.109C11.3184 151.979 40.3969 181.057 76.267 181.057C100.109 181.057 120.938 168.203 132.235 149.054L122.562 144.162C113.071 159.792 95.8879 170.233 76.267 170.233" id="Shape-5" fill="#C9E3BC" stroke="none" />
      <path d="M75.9634 111.694L70.6274 122.318L75.9634 128.278L81.6204 128.129L84.4532 130.028L83.215 137.738L87.9402 150.399L95.6404 144.845L98.5226 133.804L106.086 126.363L98.6353 124.745L92.9964 116.598L100.303 122.318L105.452 118.229L101.941 116.877L100.303 114.009L107.856 116.061L115.636 122.19L119.293 117.417L122.858 120.212L126.988 113.328L130.05 114.832L126.492 103.521L132.267 91.4534L115.514 98.2187L109.42 91.4534L100.802 94.9653L94.4271 92.4603L88.383 94.9223L79.9181 99.083L81.2293 104.253L78.5961 105.92L75.9634 105.92L75.2372 110.148L78.4648 110.148L84.0322 107.552L86.065 109.387L86.065 106.809L94.6593 110.616L89.2595 114.34L82.8433 112.543L75.9634 111.694Z" id="Polygon-4" fill="#C9E3BC" fill-rule="evenodd" stroke="none" />
      <path d="M228.59 120.741L228.636 110.282C224.882 109.169 221.037 108.059 217.315 106.846L217.315 117.384C219.251 117.997 221.24 118.58 223.196 119.138C225 119.654 226.8 120.189 228.59 120.741" id="Shape-6" fill="#C9E3BC" stroke="none" />
      <path d="M273.33 206.92L5.05574 206.92L0 193.773L280 193.773L273.33 206.92Z" id="Polygon-5" fill="#C9E3BC" fill-rule="evenodd" stroke="none" />
    </g>
  </g>
</svg>