<?xml version="1.0" encoding="utf-8"?>
<svg width="33px" height="33px" viewBox="0 0 33 33" version="1.1" xmlns:xlink="http://www.w3.org/1999/xlink" xmlns="http://www.w3.org/2000/svg">
  <defs>
    <path d="M3.999 0L29.001 0Q29.1975 0 29.393 0.0192563Q29.5885 0.0385126 29.7812 0.0768396Q29.9738 0.115167 30.1618 0.172196Q30.3498 0.229224 30.5313 0.304406Q30.7129 0.379587 30.8861 0.472197Q31.0594 0.564807 31.2227 0.673953Q31.3861 0.783099 31.5379 0.907731Q31.6898 1.03236 31.8287 1.17128Q31.9676 1.3102 32.0923 1.46206Q32.2169 1.61393 32.326 1.77727Q32.4352 1.94062 32.5278 2.11388Q32.6204 2.28715 32.6956 2.46865Q32.7708 2.65015 32.8278 2.83815Q32.8848 3.02615 32.9232 3.21883Q32.9615 3.41152 32.9807 3.60703Q33 3.80254 33 3.999L33 29.001Q33 29.1975 32.9807 29.393Q32.9615 29.5885 32.9232 29.7812Q32.8848 29.9738 32.8278 30.1618Q32.7708 30.3498 32.6956 30.5313Q32.6204 30.7129 32.5278 30.8861Q32.4352 31.0594 32.326 31.2227Q32.2169 31.3861 32.0923 31.5379Q31.9676 31.6898 31.8287 31.8287Q31.6898 31.9676 31.5379 32.0923Q31.3861 32.2169 31.2227 32.326Q31.0594 32.4352 30.8861 32.5278Q30.7129 32.6204 30.5313 32.6956Q30.3498 32.7708 30.1618 32.8278Q29.9738 32.8848 29.7812 32.9232Q29.5885 32.9615 29.393 32.9807Q29.1975 33 29.001 33L3.999 33Q3.80254 33 3.60703 32.9807Q3.41152 32.9615 3.21883 32.9232Q3.02615 32.8848 2.83815 32.8278Q2.65015 32.7708 2.46865 32.6956Q2.28715 32.6204 2.11388 32.5278Q1.94062 32.4352 1.77727 32.326Q1.61393 32.2169 1.46206 32.0923Q1.3102 31.9676 1.17128 31.8287Q1.03236 31.6898 0.907731 31.5379Q0.783099 31.3861 0.673953 31.2227Q0.564807 31.0594 0.472197 30.8861Q0.379587 30.7129 0.304406 30.5313Q0.229224 30.3498 0.172196 30.1618Q0.115167 29.9738 0.0768396 29.7812Q0.0385126 29.5885 0.0192563 29.393Q0 29.1975 0 29.001L0 3.999Q0 3.80254 0.0192563 3.60703Q0.0385126 3.41152 0.0768396 3.21883Q0.115167 3.02615 0.172196 2.83815Q0.229224 2.65015 0.304406 2.46865Q0.379587 2.28715 0.472197 2.11388Q0.564807 1.94062 0.673953 1.77727Q0.783099 1.61393 0.907731 1.46206Q1.03236 1.3102 1.17128 1.17128Q1.3102 1.03236 1.46206 0.907731Q1.61393 0.783099 1.77727 0.673953Q1.94062 0.564807 2.11388 0.472197Q2.28715 0.379587 2.46865 0.304406Q2.65015 0.229224 2.83815 0.172196Q3.02615 0.115167 3.21883 0.0768396Q3.41152 0.0385126 3.60703 0.0192563Q3.80254 0 3.999 0L3.999 0Z" id="path_1" />
    <clipPath id="clip_1">
      <use xlink:href="#path_1" />
    </clipPath>
  </defs>
  <g id="mh" fill-opacity="1">
    <path d="M0 0L33 0L33 33L0 33L0 0Z" id="mh" fill="none" fill-rule="evenodd" stroke="none" />
    <g id="Rect치ngulo-4-Copy-2">
      <g clip-path="url(#clip_1)">
        <use xlink:href="#path_1" fill="none" stroke="#C9E3BC" stroke-width="6" />
      </g>
    </g>
    <path d="M7.499 7L24.501 7Q24.5746 7 24.6479 7.00722Q24.7212 7.01444 24.7934 7.0288Q24.8657 7.04317 24.9361 7.06455Q25.0066 7.08592 25.0746 7.1141Q25.1427 7.14229 25.2076 7.177Q25.2726 7.21171 25.3338 7.25263Q25.395 7.29354 25.452 7.34026Q25.5089 7.38697 25.561 7.43905Q25.613 7.49112 25.6597 7.54804Q25.7065 7.60497 25.7474 7.6662Q25.7883 7.72743 25.823 7.79238Q25.8577 7.85732 25.8859 7.92536Q25.9141 7.99339 25.9354 8.06386Q25.9568 8.13433 25.9712 8.20656Q25.9856 8.27878 25.9928 8.35207Q26 8.42536 26 8.499L26 8.501Q26 8.57464 25.9928 8.64793Q25.9856 8.72121 25.9712 8.79344Q25.9568 8.86567 25.9355 8.93614Q25.9141 9.00661 25.8859 9.07464Q25.8577 9.14268 25.823 9.20762Q25.7883 9.27257 25.7474 9.3338Q25.7065 9.39503 25.6597 9.45195Q25.613 9.50888 25.561 9.56095Q25.5089 9.61303 25.452 9.65974Q25.395 9.70646 25.3338 9.74737Q25.2726 9.78829 25.2076 9.823Q25.1427 9.85771 25.0746 9.88589Q25.0066 9.91408 24.9361 9.93545Q24.8657 9.95683 24.7934 9.9712Q24.7212 9.98556 24.6479 9.99278Q24.5746 10 24.501 10L7.499 10Q7.42536 10 7.35207 9.99278Q7.27879 9.98556 7.20656 9.9712Q7.13433 9.95683 7.06386 9.93545Q6.99339 9.91408 6.92536 9.88589Q6.85732 9.85771 6.79238 9.823Q6.72743 9.78828 6.6662 9.74737Q6.60497 9.70646 6.54804 9.65974Q6.49112 9.61303 6.43905 9.56095Q6.38697 9.50888 6.34026 9.45195Q6.29354 9.39503 6.25263 9.3338Q6.21171 9.27257 6.177 9.20762Q6.14229 9.14268 6.1141 9.07464Q6.08592 9.00661 6.06455 8.93614Q6.04317 8.86567 6.0288 8.79344Q6.01444 8.72121 6.00722 8.64793Q6 8.57464 6 8.501L6 8.499Q6 8.42536 6.00722 8.35207Q6.01444 8.27878 6.0288 8.20656Q6.04317 8.13433 6.06455 8.06386Q6.08592 7.99339 6.1141 7.92536Q6.14229 7.85732 6.177 7.79238Q6.21171 7.72743 6.25263 7.6662Q6.29354 7.60497 6.34026 7.54804Q6.38697 7.49112 6.43905 7.43905Q6.49112 7.38697 6.54804 7.34026Q6.60497 7.29354 6.6662 7.25263Q6.72743 7.21171 6.79238 7.177Q6.85732 7.14229 6.92536 7.1141Q6.99339 7.08592 7.06386 7.06455Q7.13433 7.04317 7.20656 7.0288Q7.27879 7.01444 7.35207 7.00722Q7.42536 7 7.499 7Z" id="Rect치ngulo" fill="#C9E3BC" fill-rule="evenodd" stroke="none" />
    <path d="M7.499 22L24.501 22Q24.5746 22 24.6479 22.0072Q24.7212 22.0144 24.7934 22.0288Q24.8657 22.0432 24.9361 22.0645Q25.0066 22.0859 25.0746 22.1141Q25.1427 22.1423 25.2076 22.177Q25.2726 22.2117 25.3338 22.2526Q25.395 22.2935 25.452 22.3403Q25.5089 22.387 25.561 22.439Q25.613 22.4911 25.6597 22.548Q25.7065 22.605 25.7474 22.6662Q25.7883 22.7274 25.823 22.7924Q25.8577 22.8573 25.8859 22.9254Q25.9141 22.9934 25.9354 23.0639Q25.9568 23.1343 25.9712 23.2066Q25.9856 23.2788 25.9928 23.3521Q26 23.4254 26 23.499L26 23.501Q26 23.5746 25.9928 23.6479Q25.9856 23.7212 25.9712 23.7934Q25.9568 23.8657 25.9355 23.9361Q25.9141 24.0066 25.8859 24.0746Q25.8577 24.1427 25.823 24.2076Q25.7883 24.2726 25.7474 24.3338Q25.7065 24.395 25.6597 24.452Q25.613 24.5089 25.561 24.561Q25.5089 24.613 25.452 24.6597Q25.395 24.7065 25.3338 24.7474Q25.2726 24.7883 25.2076 24.823Q25.1427 24.8577 25.0746 24.8859Q25.0066 24.9141 24.9361 24.9355Q24.8657 24.9568 24.7934 24.9712Q24.7212 24.9856 24.6479 24.9928Q24.5746 25 24.501 25L7.499 25Q7.42536 25 7.35207 24.9928Q7.27879 24.9856 7.20656 24.9712Q7.13433 24.9568 7.06386 24.9355Q6.99339 24.9141 6.92536 24.8859Q6.85732 24.8577 6.79238 24.823Q6.72743 24.7883 6.6662 24.7474Q6.60497 24.7065 6.54804 24.6597Q6.49112 24.613 6.43905 24.561Q6.38697 24.5089 6.34026 24.452Q6.29354 24.395 6.25263 24.3338Q6.21171 24.2726 6.177 24.2076Q6.14229 24.1427 6.1141 24.0746Q6.08592 24.0066 6.06455 23.9361Q6.04317 23.8657 6.0288 23.7934Q6.01444 23.7212 6.00722 23.6479Q6 23.5746 6 23.501L6 23.499Q6 23.4254 6.00722 23.3521Q6.01444 23.2788 6.0288 23.2066Q6.04317 23.1343 6.06455 23.0639Q6.08592 22.9934 6.1141 22.9254Q6.14229 22.8573 6.177 22.7924Q6.21171 22.7274 6.25263 22.6662Q6.29354 22.605 6.34026 22.548Q6.38697 22.4911 6.43905 22.439Q6.49112 22.387 6.54804 22.3403Q6.60497 22.2935 6.6662 22.2526Q6.72743 22.2117 6.79238 22.177Q6.85732 22.1423 6.92536 22.1141Q6.99339 22.0859 7.06386 22.0645Q7.13433 22.0432 7.20656 22.0288Q7.27879 22.0144 7.35207 22.0072Q7.42536 22 7.499 22Z" id="Rect치ngulo-Copy" fill="#C9E3BC" fill-rule="evenodd" stroke="none" />
    <path d="M7.499 15L24.501 15Q24.5746 15 24.6479 15.0072Q24.7212 15.0144 24.7934 15.0288Q24.8657 15.0432 24.9361 15.0645Q25.0066 15.0859 25.0746 15.1141Q25.1427 15.1423 25.2076 15.177Q25.2726 15.2117 25.3338 15.2526Q25.395 15.2935 25.452 15.3403Q25.5089 15.387 25.561 15.439Q25.613 15.4911 25.6597 15.548Q25.7065 15.605 25.7474 15.6662Q25.7883 15.7274 25.823 15.7924Q25.8577 15.8573 25.8859 15.9254Q25.9141 15.9934 25.9354 16.0639Q25.9568 16.1343 25.9712 16.2066Q25.9856 16.2788 25.9928 16.3521Q26 16.4254 26 16.499L26 16.501Q26 16.5746 25.9928 16.6479Q25.9856 16.7212 25.9712 16.7934Q25.9568 16.8657 25.9355 16.9361Q25.9141 17.0066 25.8859 17.0746Q25.8577 17.1427 25.823 17.2076Q25.7883 17.2726 25.7474 17.3338Q25.7065 17.395 25.6597 17.452Q25.613 17.5089 25.561 17.561Q25.5089 17.613 25.452 17.6597Q25.395 17.7065 25.3338 17.7474Q25.2726 17.7883 25.2076 17.823Q25.1427 17.8577 25.0746 17.8859Q25.0066 17.9141 24.9361 17.9355Q24.8657 17.9568 24.7934 17.9712Q24.7212 17.9856 24.6479 17.9928Q24.5746 18 24.501 18L7.499 18Q7.42536 18 7.35207 17.9928Q7.27879 17.9856 7.20656 17.9712Q7.13433 17.9568 7.06386 17.9355Q6.99339 17.9141 6.92536 17.8859Q6.85732 17.8577 6.79238 17.823Q6.72743 17.7883 6.6662 17.7474Q6.60497 17.7065 6.54804 17.6597Q6.49112 17.613 6.43905 17.561Q6.38697 17.5089 6.34026 17.452Q6.29354 17.395 6.25263 17.3338Q6.21171 17.2726 6.177 17.2076Q6.14229 17.1427 6.1141 17.0746Q6.08592 17.0066 6.06455 16.9361Q6.04317 16.8657 6.0288 16.7934Q6.01444 16.7212 6.00722 16.6479Q6 16.5746 6 16.501L6 16.499Q6 16.4254 6.00722 16.3521Q6.01444 16.2788 6.0288 16.2066Q6.04317 16.1343 6.06455 16.0639Q6.08592 15.9934 6.1141 15.9254Q6.14229 15.8573 6.177 15.7924Q6.21171 15.7274 6.25263 15.6662Q6.29354 15.605 6.34026 15.548Q6.38697 15.4911 6.43905 15.439Q6.49112 15.387 6.54804 15.3403Q6.60497 15.2935 6.6662 15.2526Q6.72743 15.2117 6.79238 15.177Q6.85732 15.1423 6.92536 15.1141Q6.99339 15.0859 7.06386 15.0645Q7.13433 15.0432 7.20656 15.0288Q7.27879 15.0144 7.35207 15.0072Q7.42536 15 7.499 15Z" id="Rect치ngulo-Copy-5" fill="#C9E3BC" fill-rule="evenodd" stroke="none" />
  </g>
</svg>