<?xml version="1.0" encoding="utf-8"?>
<svg width="144.93408px" height="45.141235px" viewBox="0 0 144.93408 45.141235" version="1.1" xmlns:xlink="http://www.w3.org/1999/xlink" xmlns="http://www.w3.org/2000/svg">
  <g id="programa-enfermeria" transform="translate(1614 637)">
    <path d="M107.226 11.5083L113.542 11.5083L113.542 9.74309L109.303 9.74309L109.303 6.61076L112.954 6.61076L112.954 4.84559L109.303 4.84559L109.303 1.86901L112.954 1.86901L113.525 0.103835L107.226 0.103835L107.226 11.5083ZM95.1811 11.5083L98.5384 11.5083C102.501 11.5083 104.959 9.18931 104.959 5.72817C104.959 2.35357 102.761 0.103835 98.7288 0.103835L95.1811 0.103835L95.1811 11.5083ZM97.2578 9.74309L97.2578 1.86901L98.5384 1.86901C101.325 1.86901 102.726 3.3746 102.726 5.76278C102.726 7.90869 101.584 9.74309 98.573 9.74309L97.2578 9.74309ZM79.2599 11.5083L81.4231 11.5083L82.4961 8.65283L86.5629 8.65283L87.6705 11.5083L89.9202 11.5083L85.3342 0.0519173L83.6729 0.0519173L79.2599 11.5083ZM83.1018 6.95688L83.9324 4.70714C84.2439 3.82455 84.417 3.32269 84.5208 2.92466L84.5555 2.92466C84.6593 3.30538 84.815 3.82455 85.1265 4.68983L85.9226 6.95688L83.1018 6.95688ZM66.298 11.5083L68.3747 11.5083L68.3747 5.01864C68.3747 4.62061 68.3747 4.03222 68.3573 3.58227L68.392 3.58227C68.6169 4.01491 68.9284 4.41294 69.1707 4.75906L71.6627 8.34133L72.6145 8.34133L74.8643 4.84559C75.0719 4.53408 75.4873 3.89377 75.643 3.56497L75.6776 3.56497C75.643 4.01491 75.643 4.60331 75.643 5.07056L75.643 11.5083L77.737 11.5083L77.737 0.103835L75.8334 0.103835L73.0991 4.34372C72.7011 4.94942 72.4069 5.45128 72.1646 5.88392L72.13 5.88392C71.8704 5.43398 71.5762 5.00134 71.1782 4.41294L68.1843 0.103835L66.298 0.103835L66.298 11.5083ZM54.1148 11.5083L56.278 11.5083L57.351 8.65283L61.4178 8.65283L62.5253 11.5083L64.7751 11.5083L60.1891 0.0519173L58.5277 0.0519173L54.1148 11.5083ZM57.9566 6.95688L58.7873 4.70714C59.0988 3.82455 59.2719 3.32269 59.3757 2.92466L59.4103 2.92466C59.5142 3.30538 59.6699 3.82455 59.9814 4.68983L60.7775 6.95688L57.9566 6.95688ZM45.1678 11.5083L47.2444 11.5083L47.2444 7.06071L48.2309 7.06071C48.5078 7.12993 48.9231 7.59719 49.4769 8.61822L51.1209 11.5083L53.5091 11.5083L51.6055 8.18558C50.9998 7.14724 50.5325 6.52423 50.1864 6.33387L50.1864 6.29926C51.5016 5.88392 52.4188 4.8802 52.4188 3.3573C52.4188 2.19782 51.9343 1.14217 50.7229 0.571087C50.1172 0.276891 49.3557 0.103835 48.2828 0.103835L45.1678 0.103835L45.1678 11.5083ZM47.2444 5.36476L47.2444 1.79979L48.1963 1.79979C48.8193 1.79979 49.2 1.93823 49.4769 2.1286C49.9787 2.42279 50.2383 2.95927 50.2383 3.56497C50.2383 4.2745 49.9268 4.79367 49.4423 5.07056C49.0962 5.26092 48.7154 5.36476 48.179 5.36476L47.2444 5.36476ZM42.5373 5.97045L40.4433 5.97045L40.4433 9.58734C39.9934 9.795 39.3012 9.93345 38.5397 9.93345C36.0823 9.93345 34.6459 8.32402 34.6459 5.86662C34.6459 3.44383 36.0996 1.74787 38.8512 1.74787C40.0799 1.74787 41.1009 2.05937 42.0008 2.50932L42.0008 0.571087C41.1355 0.259586 40.028 0 38.6955 0C34.9055 0 32.4308 2.54393 32.4308 6.00506C32.4308 9.27583 34.6459 11.6813 38.3839 11.6813C39.9761 11.6813 41.499 11.2833 42.5373 10.7641L42.5373 5.97045ZM24.8855 11.6813C28.2082 11.6813 30.631 9.34506 30.631 5.84931C30.631 2.40549 28.2601 0 24.8855 0C21.5109 0 19.1401 2.38818 19.1401 5.84931C19.1401 9.34506 21.5282 11.6813 24.8855 11.6813L24.8855 11.6813ZM24.8855 9.93345C22.7742 9.93345 21.3552 8.42786 21.3552 5.84931C21.3552 3.25346 22.7742 1.74787 24.8855 1.74787C27.0487 1.74787 28.4159 3.32269 28.4159 5.84931C28.4159 8.42786 26.9795 9.93345 24.8855 9.93345L24.8855 9.93345ZM9.43158 11.5083L11.5083 11.5083L11.5083 7.06071L12.4947 7.06071C12.7716 7.12993 13.1869 7.59719 13.7407 8.61822L15.3847 11.5083L17.7729 11.5083L15.8693 8.18558C15.2636 7.14724 14.7963 6.52423 14.4502 6.33387L14.4502 6.29926C15.7655 5.88392 16.6827 4.8802 16.6827 3.3573C16.6827 2.19782 16.1981 1.14217 14.9867 0.571087C14.381 0.276891 13.6196 0.103835 12.5466 0.103835L9.43158 0.103835L9.43158 11.5083ZM11.5083 5.36476L11.5083 1.79979L12.4601 1.79979C13.0831 1.79979 13.4638 1.93823 13.7407 2.1286C14.2426 2.42279 14.5021 2.95927 14.5021 3.56497C14.5021 4.2745 14.1906 4.79367 13.7061 5.07056C13.36 5.26092 12.9792 5.36476 12.4428 5.36476L11.5083 5.36476ZM0 11.5083L2.07668 11.5083L2.07668 7.57988L2.56124 7.57988C3.58227 7.57988 4.36103 7.42413 4.98403 7.18185C6.59346 6.52423 7.16454 5.15709 7.16454 3.84186C7.16454 2.28435 6.48962 1.17679 5.31284 0.588394C4.63792 0.259586 3.80725 0.103835 2.7516 0.103835L0 0.103835L0 11.5083ZM2.07668 5.88393L2.07668 1.79979L2.66507 1.79979C3.28808 1.79979 3.75533 1.90362 4.08414 2.09398C4.68983 2.4574 4.98403 3.09771 4.98403 3.84186C4.98403 4.68983 4.67253 5.31284 4.03222 5.62434C3.70341 5.7974 3.25346 5.88393 2.69968 5.88393L2.07668 5.88393Z" id="PROGRAMA-DE" fill="#FFFFFF" stroke="none" />
    <path d="M139.043 45.0536L140.744 45.0536C142.753 45.0536 143.998 43.8783 143.998 42.1243C143.998 40.4141 142.884 39.274 140.841 39.274L139.043 39.274L139.043 45.0536ZM140.095 44.159L140.095 40.1686L140.744 40.1686C142.156 40.1686 142.867 40.9316 142.867 42.1418C142.867 43.2294 142.288 44.159 140.762 44.159L140.095 44.159ZM135.289 45.1413C136.35 45.1413 137.105 44.7729 137.464 44.0274C137.613 43.7293 137.683 43.3434 137.683 42.8961L137.683 39.274L136.631 39.274L136.631 42.8172C136.631 43.1329 136.578 43.396 136.473 43.6065C136.271 44.0187 135.868 44.2555 135.289 44.2555C134.71 44.2555 134.307 44.0187 134.105 43.6065C134 43.396 133.947 43.1329 133.947 42.8259L133.947 39.274L132.895 39.274L132.895 42.8961C132.895 43.3346 132.965 43.7205 133.114 44.0187C133.465 44.7729 134.219 45.1413 135.289 45.1413L135.289 45.1413ZM128.975 45.0536L132.079 45.0536L132.079 44.159L130.027 44.159L130.027 39.274L128.975 39.274L128.975 45.0536ZM122.8 45.0536L123.897 45.0536L124.44 43.6065L126.501 43.6065L127.063 45.0536L128.203 45.0536L125.879 39.2477L125.037 39.2477L122.8 45.0536ZM124.747 42.747L125.168 41.6069C125.326 41.1596 125.414 40.9053 125.467 40.7035L125.484 40.7035C125.537 40.8965 125.616 41.1596 125.773 41.5981L126.177 42.747L124.747 42.747ZM118.477 44.6414C118.915 44.9483 119.547 45.1413 120.222 45.1413C121.406 45.1413 122.283 44.5098 122.283 43.4837C122.283 41.6507 119.783 41.791 119.783 40.7298C119.783 40.265 120.169 40.1072 120.573 40.1072C121.029 40.1072 121.494 40.2387 121.95 40.4755L121.95 39.5108C121.634 39.3529 121.134 39.2214 120.538 39.2214C119.336 39.2214 118.661 39.9668 118.661 40.8175C118.661 42.5804 121.16 42.44 121.16 43.5714C121.16 44.0713 120.678 44.2555 120.196 44.2555C119.669 44.2555 119.231 44.0713 118.889 43.8345L118.477 44.6414ZM110.689 45.0536L111.785 45.0536L112.329 43.6065L114.39 43.6065L114.951 45.0536L116.091 45.0536L113.767 39.2477L112.925 39.2477L110.689 45.0536ZM112.636 42.747L113.057 41.6069C113.215 41.1596 113.302 40.9053 113.355 40.7035L113.372 40.7035C113.425 40.8965 113.504 41.1596 113.662 41.5981L114.065 42.747L112.636 42.747ZM107.356 45.0536L110.461 45.0536L110.461 44.159L108.408 44.159L108.408 39.274L107.356 39.274L107.356 45.0536ZM101.059 45.0536L104.26 45.0536L104.26 44.159L102.111 44.159L102.111 42.5716L103.962 42.5716L103.962 41.677L102.111 41.677L102.111 40.1686L103.962 40.1686L104.251 39.274L101.059 39.274L101.059 45.0536ZM94.955 45.0536L96.6564 45.0536C98.6648 45.0536 99.9102 43.8783 99.9102 42.1243C99.9102 40.4141 98.7963 39.274 96.7529 39.274L94.955 39.274L94.955 45.0536ZM96.0074 44.159L96.0074 40.1686L96.6564 40.1686C98.0684 40.1686 98.7788 40.9316 98.7788 42.1418C98.7788 43.2294 98.2 44.159 96.6739 44.159L96.0074 44.159ZM88.1055 44.6414C88.544 44.9483 89.1754 45.1413 89.8507 45.1413C91.0347 45.1413 91.9117 44.5098 91.9117 43.4837C91.9117 41.6507 89.4122 41.791 89.4122 40.7298C89.4122 40.265 89.7981 40.1072 90.2015 40.1072C90.6576 40.1072 91.1224 40.2387 91.5785 40.4755L91.5785 39.5108C91.2627 39.3529 90.7628 39.2214 90.1665 39.2214C88.9649 39.2214 88.2896 39.9668 88.2896 40.8175C88.2896 42.5804 90.7891 42.44 90.7891 43.5714C90.7891 44.0713 90.3068 44.2555 89.8244 44.2555C89.2982 44.2555 88.8597 44.0713 88.5177 43.8345L88.1055 44.6414ZM82.2119 45.0536L83.3082 45.0536L83.8519 43.6065L85.9129 43.6065L86.4742 45.0536L87.6143 45.0536L85.2902 39.2477L84.4483 39.2477L82.2119 45.0536ZM84.1589 42.747L84.5798 41.6069C84.7377 41.1596 84.8254 40.9053 84.878 40.7035L84.8956 40.7035C84.9482 40.8965 85.0271 41.1596 85.185 41.5981L85.5884 42.747L84.1589 42.747ZM80.3877 45.0536L81.4401 45.0536L81.4401 39.274L80.3877 39.274L80.3877 45.0536ZM79.1072 43.852C78.695 44.0888 78.2565 44.2555 77.6865 44.2555C76.5025 44.2555 75.7658 43.4135 75.7658 42.2032C75.7658 41.0719 76.4411 40.1072 77.7215 40.1072C78.2828 40.1072 78.7652 40.2475 79.2125 40.4843L79.2125 39.502C78.8529 39.3442 78.3267 39.2214 77.6952 39.2214C75.836 39.2214 74.6432 40.5544 74.6432 42.2295C74.6432 43.9222 75.6693 45.1413 77.5637 45.1413C78.1425 45.1413 78.7564 45.036 79.3967 44.6852L79.1072 43.852ZM73.4855 45.0536L73.4855 39.274L72.4244 39.274L72.4244 42.3611C72.4244 42.6768 72.4331 43.0276 72.4419 43.3346L72.4244 43.3346C72.2489 43.0627 72.0385 42.7821 71.7841 42.44L69.3635 39.274L68.3199 39.274L68.3199 45.0536L69.3723 45.0536L69.3723 41.7735C69.3723 41.4402 69.3723 41.107 69.3548 40.8789L69.3723 40.8789C69.5653 41.142 69.767 41.4315 70.0213 41.756L72.5296 45.0536L73.4855 45.0536ZM63.9172 45.0536L67.1184 45.0536L67.1184 44.159L64.9697 44.159L64.9697 42.5716L66.8202 42.5716L66.8202 41.677L64.9697 41.677L64.9697 40.1686L66.8202 40.1686L67.1096 39.274L63.9172 39.274L63.9172 45.0536ZM61.4616 45.0536L62.514 45.0536L62.514 39.274L61.4616 39.274L61.4616 45.0536ZM60.1811 43.852C59.7689 44.0888 59.3304 44.2555 58.7604 44.2555C57.5764 44.2555 56.8397 43.4135 56.8397 42.2032C56.8397 41.0719 57.515 40.1072 58.7955 40.1072C59.3568 40.1072 59.8391 40.2475 60.2864 40.4843L60.2864 39.502C59.9268 39.3442 59.4006 39.2214 58.7691 39.2214C56.9099 39.2214 55.7171 40.5544 55.7171 42.2295C55.7171 43.9222 56.7432 45.1413 58.6376 45.1413C59.2164 45.1413 59.8303 45.036 60.4706 44.6852L60.1811 43.852ZM49.6657 45.0536L52.8668 45.0536L52.8668 44.159L50.7181 44.159L50.7181 42.5716L52.5686 42.5716L52.5686 41.677L50.7181 41.677L50.7181 40.1686L52.5686 40.1686L52.858 39.274L49.6657 39.274L49.6657 45.0536ZM43.5616 45.0536L45.263 45.0536C47.2714 45.0536 48.5168 43.8783 48.5168 42.1243C48.5168 40.4141 47.4029 39.274 45.3595 39.274L43.5616 39.274L43.5616 45.0536ZM44.614 44.159L44.614 40.1686L45.263 40.1686C46.675 40.1686 47.3854 40.9316 47.3854 42.1418C47.3854 43.2294 46.8066 44.159 45.2806 44.159L44.614 44.159ZM35.5632 45.0536L37.2646 45.0536C39.273 45.0536 40.5183 43.8783 40.5183 42.1243C40.5183 40.4141 39.4045 39.274 37.3611 39.274L35.5632 39.274L35.5632 45.0536ZM36.6156 44.159L36.6156 40.1686L37.2646 40.1686C38.6766 40.1686 39.387 40.9316 39.387 42.1418C39.387 43.2294 38.8081 44.159 37.2821 44.159L36.6156 44.159ZM29.389 45.0536L30.4852 45.0536L31.029 43.6065L33.09 43.6065L33.6513 45.0536L34.7914 45.0536L32.4673 39.2477L31.6254 39.2477L29.389 45.0536ZM31.3359 42.747L31.7569 41.6069C31.9148 41.1596 32.0025 40.9053 32.0551 40.7035L32.0726 40.7035C32.1253 40.8965 32.2042 41.1596 32.362 41.5981L32.7655 42.747L31.3359 42.747ZM26.4246 45.0536L27.477 45.0536L27.477 40.1686L29.0206 40.1686L29.31 39.274L24.7407 39.274L24.7407 40.1686L26.4246 40.1686L26.4246 45.0536ZM21.3554 45.0536L24.4601 45.0536L24.4601 44.159L22.4079 44.159L22.4079 39.274L21.3554 39.274L21.3554 45.0536ZM17.6018 45.1413C18.663 45.1413 19.4172 44.7729 19.7768 44.0274C19.9259 43.7293 19.9961 43.3434 19.9961 42.8961L19.9961 39.274L18.9436 39.274L18.9436 42.8172C18.9436 43.1329 18.891 43.396 18.7858 43.6065C18.5841 44.0187 18.1806 44.2555 17.6018 44.2555C17.023 44.2555 16.6195 44.0187 16.4178 43.6065C16.3126 43.396 16.26 43.1329 16.26 42.8259L16.26 39.274L15.2075 39.274L15.2075 42.8961C15.2075 43.3346 15.2777 43.7205 15.4268 44.0187C15.7776 44.7729 16.5318 45.1413 17.6018 45.1413L17.6018 45.1413ZM13.9709 43.852C13.5587 44.0888 13.1202 44.2555 12.5502 44.2555C11.3662 44.2555 10.6295 43.4135 10.6295 42.2032C10.6295 41.0719 11.3048 40.1072 12.5852 40.1072C13.1465 40.1072 13.6289 40.2475 14.0762 40.4843L14.0762 39.502C13.7166 39.3442 13.1904 39.2214 12.5589 39.2214C10.6996 39.2214 9.5069 40.5544 9.5069 42.2295C9.5069 43.9222 10.533 45.1413 12.4274 45.1413C13.0062 45.1413 13.6201 45.036 14.2603 44.6852L13.9709 43.852ZM3.57824 45.0536L4.67452 45.0536L5.21827 43.6065L7.27927 43.6065L7.84056 45.0536L8.98069 45.0536L6.65658 39.2477L5.81464 39.2477L3.57824 45.0536ZM5.52523 42.747L5.9462 41.6069C6.10406 41.1596 6.19176 40.9053 6.24438 40.7035L6.26192 40.7035C6.31455 40.8965 6.39348 41.1596 6.55134 41.5981L6.95477 42.747L5.52523 42.747ZM0 45.0536L1.05242 45.0536L1.05242 42.5716L2.89417 42.5716L2.89417 41.677L1.05242 41.677L1.05242 40.1686L2.92925 40.1686L3.21866 39.274L0 39.274L0 45.0536Z" id="FACULTAD-DE-CIENCIAS-DE-LA-SALUD" fill="#FFFFFF" stroke="none" />
    <path d="M128.871 33.6293L132.13 33.6293L133.747 29.3266L139.875 29.3266L141.544 33.6293L144.934 33.6293L138.024 16.3665L135.52 16.3665L128.871 33.6293ZM134.66 26.7711L135.912 23.3812C136.381 22.0513 136.642 21.295 136.798 20.6953L136.85 20.6953C137.007 21.269 137.241 22.0513 137.711 23.3551L138.91 26.7711L134.66 26.7711ZM123.447 33.6293L126.576 33.6293L126.576 16.4448L123.447 16.4448L123.447 33.6293ZM123.343 15.4799L125.716 15.4799L128.219 11.6467L124.855 11.6467L123.343 15.4799ZM108.088 33.6293L111.217 33.6293L111.217 26.9276L112.703 26.9276C113.121 27.0319 113.746 27.736 114.581 29.2745L117.058 33.6293L120.657 33.6293L117.788 28.6226C116.876 27.058 116.172 26.1192 115.65 25.8324L115.65 25.7802C117.632 25.1544 119.014 23.6419 119.014 21.3472C119.014 19.6001 118.284 18.0094 116.458 17.1488C115.546 16.7055 114.398 16.4448 112.782 16.4448L108.088 16.4448L108.088 33.6293ZM111.217 24.3721L111.217 19.0003L112.651 19.0003C113.59 19.0003 114.164 19.2089 114.581 19.4957C115.337 19.9391 115.728 20.7474 115.728 21.6601C115.728 22.7293 115.259 23.5116 114.529 23.9288C114.007 24.2156 113.433 24.3721 112.625 24.3721L111.217 24.3721ZM94.9973 33.6293L104.515 33.6293L104.515 30.9695L98.1265 30.9695L98.1265 26.2496L103.629 26.2496L103.629 23.5898L98.1265 23.5898L98.1265 19.1046L103.629 19.1046L104.489 16.4448L94.9973 16.4448L94.9973 33.6293ZM73.5883 33.6293L76.7175 33.6293L76.7175 23.8505C76.7175 23.2508 76.7175 22.3642 76.6914 21.6862L76.7436 21.6862C77.0826 22.3381 77.552 22.9379 77.917 23.4594L81.6721 28.8573L83.1063 28.8573L86.4963 23.5898C86.8092 23.1204 87.435 22.1556 87.6697 21.6601L87.7219 21.6601C87.6697 22.3381 87.6697 23.2247 87.6697 23.9288L87.6697 33.6293L90.825 33.6293L90.825 16.4448L87.9566 16.4448L83.8364 22.8336C83.2367 23.7462 82.7934 24.5025 82.4283 25.1544L82.3761 25.1544C81.985 24.4764 81.5417 23.8245 80.9419 22.9379L76.4307 16.4448L73.5883 16.4448L73.5883 33.6293ZM58.2292 33.6293L61.3584 33.6293L61.3584 26.9276L62.8447 26.9276C63.262 27.0319 63.8878 27.736 64.7223 29.2745L67.1995 33.6293L70.7981 33.6293L67.9297 28.6226C67.017 27.058 66.3129 26.1192 65.7914 25.8324L65.7914 25.7802C67.7732 25.1544 69.1553 23.6419 69.1553 21.3472C69.1553 19.6001 68.4251 18.0094 66.5998 17.1488C65.6871 16.7055 64.5397 16.4448 62.923 16.4448L58.2292 16.4448L58.2292 33.6293ZM61.3584 24.3721L61.3584 19.0003L62.7926 19.0003C63.7313 19.0003 64.305 19.2089 64.7223 19.4957C65.4785 19.9391 65.8696 20.7474 65.8696 21.6601C65.8696 22.7293 65.4003 23.5116 64.6701 23.9288C64.1486 24.2156 63.5749 24.3721 62.7665 24.3721L61.3584 24.3721ZM45.1387 33.6293L54.6567 33.6293L54.6567 30.9695L48.2679 30.9695L48.2679 26.2496L53.7701 26.2496L53.7701 23.5898L48.2679 23.5898L48.2679 19.1046L53.7701 19.1046L54.6306 16.4448L45.1387 16.4448L45.1387 33.6293ZM32.6219 33.6293L35.7511 33.6293L35.7511 26.2496L41.2272 26.2496L41.2272 23.5898L35.7511 23.5898L35.7511 19.1046L41.3315 19.1046L42.192 16.4448L32.6219 16.4448L32.6219 33.6293ZM28.4496 33.6293L28.4496 16.4448L25.2944 16.4448L25.2944 25.6238C25.2944 26.5625 25.3204 27.6056 25.3465 28.5183L25.2944 28.5183C24.7728 27.7099 24.147 26.8754 23.3908 25.8585L16.1936 16.4448L13.0905 16.4448L13.0905 33.6293L16.2197 33.6293L16.2197 23.8766C16.2197 22.8857 16.2197 21.8948 16.1675 21.2168L16.2197 21.2168C16.7934 21.9991 17.3931 22.8596 18.1494 23.8245L25.6073 33.6293L28.4496 33.6293ZM0 33.6293L9.51798 33.6293L9.51798 30.9695L3.1292 30.9695L3.1292 26.2496L8.63137 26.2496L8.63137 23.5898L3.1292 23.5898L3.1292 19.1046L8.63137 19.1046L9.4919 16.4448L0 16.4448L0 33.6293Z" id="ENFERMERÃA" fill="#FFFFFF" stroke="none" />
  </g>
</svg>