<?xml version="1.0" encoding="utf-8"?>
<svg width="229.86926px" height="58.151306px" viewBox="0 0 229.86926 58.151306" version="1.1" xmlns:xlink="http://www.w3.org/1999/xlink" xmlns="http://www.w3.org/2000/svg">
  <g id="usco" fill-opacity="1">
    <path d="M0 0L229.869 0L229.869 58.1513L0 58.1513L0 0Z" id="usco" fill="none" fill-rule="evenodd" stroke="none" />
    <g id="usco">
      <g id="Group-100">
        <g id="Group-99">
          <path d="M27.6314 58.1392C27.8179 58.1446 28.1121 58.1513 28.5189 58.1513C30.5416 58.1513 33.7123 57.9992 37.3335 57.2855C42.4743 56.2721 46.4422 54.7134 49.4641 52.5204C49.5004 52.4934 49.5666 52.4483 49.6547 52.389L49.7032 52.3554C49.8924 52.2274 50.1475 52.0537 50.4405 51.814C50.7279 51.5769 50.9805 51.3339 51.2067 51.07C51.6437 50.5677 51.9972 49.9732 52.2288 49.349C52.4915 48.6514 52.6234 47.8844 52.6206 47.0663L52.6206 13.472L53.4555 13.008C53.7592 12.839 54.034 12.6317 54.2697 12.3953C54.6232 12.0459 54.9079 11.5981 55.0715 11.1375C55.2069 10.7652 55.2749 10.3713 55.2749 9.97067L55.2749 6.23033C55.2749 5.61827 55.0959 3.62319 52.7628 3.62319L40.6442 3.62319C40.055 3.25689 34.6146 0 27.7755 0L27.4988 0C20.6592 0 15.2192 3.25757 14.6307 3.62319L2.51154 3.62319C0.181082 3.62319 0 5.61827 0 6.23033L0 9.97067C0 10.3713 0.0665887 10.7652 0.202681 11.1375C0.366275 11.5981 0.652509 12.0459 1.00526 12.394C1.24239 12.6317 1.51637 12.839 1.81942 13.008L2.65293 13.472L2.65293 47.0663C2.65293 47.8844 2.7835 48.652 3.04813 49.349C3.27846 49.9732 3.63189 50.5677 4.06826 51.07C4.29448 51.3333 4.54701 51.5763 4.83661 51.814C5.1274 52.0545 5.38531 52.2282 5.5711 52.3554L5.62028 52.389C5.70719 52.4483 5.77378 52.4934 5.81078 52.5204C8.83335 54.7134 12.8006 56.2721 17.9415 57.2855C21.5648 57.9986 24.7353 58.1507 26.7582 58.1513C27.1648 58.1513 27.4598 58.1446 27.6314 58.1392L27.6314 58.1392ZM37.2446 56.835C34.3454 57.4065 31.4368 57.6922 28.5188 57.6922C28.2124 57.6922 27.9209 57.6882 27.6444 57.6803L27.6307 57.6799L27.6169 57.6803C27.3635 57.6882 27.0772 57.6922 26.7581 57.6922C23.8387 57.6913 20.9294 57.4055 18.03 56.835C13.0044 55.8442 9.02106 54.2822 6.08032 52.1487C6.05447 52.1299 5.99625 52.0896 5.90574 52.028L5.87876 52.0096L5.83041 51.9765L5.79641 51.9532C5.5231 51.7663 5.30062 51.602 5.1291 51.4602C4.85699 51.2368 4.61941 51.007 4.41643 50.7707C4.00576 50.298 3.69322 49.7711 3.47881 49.1901C3.23435 48.546 3.11208 47.8381 3.11201 47.0663L3.11201 13.202L2.04263 12.6068C1.77725 12.4588 1.53981 12.2798 1.33018 12.0697C1.01278 11.7564 0.781181 11.3945 0.635299 10.9839C0.517816 10.6624 0.459074 10.3246 0.459074 9.97068L0.459074 6.23034C0.459074 5.72627 0.565422 5.29253 0.778042 4.92912C1.10844 4.36462 1.68622 4.08237 2.51144 4.08237L14.7616 4.08237L14.8729 4.01323C15.9653 3.33459 17.3017 2.69828 18.882 2.10431C21.8001 1.00756 24.6723 0.459178 27.4987 0.459178L27.7755 0.459178C30.6018 0.459178 33.4741 1.00747 36.392 2.10407C37.9745 2.69871 39.3111 3.33508 40.4017 4.01315L40.513 4.08237L52.7627 4.08237C53.5891 4.08237 54.1672 4.36459 54.4973 4.92903C54.7096 5.29205 54.8158 5.72581 54.8157 6.23034L54.8157 9.97068C54.8157 10.3218 54.7571 10.6584 54.6399 10.9806C54.4928 11.3947 54.2618 11.7574 53.9468 12.0688C53.7372 12.279 53.4989 12.4583 53.2321 12.6068L52.1613 13.2018L52.1613 47.0663C52.1639 47.8317 52.0432 48.5387 51.7989 49.1872C51.5825 49.7708 51.2696 50.2979 50.8601 50.7686C50.6574 51.0052 50.42 51.2356 50.1482 51.4598C49.959 51.6146 49.7249 51.7863 49.4458 51.975L49.3927 52.0119C49.2944 52.0779 49.2269 52.1245 49.1905 52.1515C46.2528 54.2829 42.2709 55.8441 37.2446 56.835L37.2446 56.835Z" id="Vector" fill="#FFFFFF" fill-rule="evenodd" stroke="none" />
          <path d="M39.105 7.25847L39.105 9.78952C39.105 10.0205 39.3419 10.2117 39.451 10.273C41.2617 11.2931 41.6353 11.5132 41.6353 11.9906L41.6353 42.9988C41.6353 44.0412 41.2415 44.3252 40.4745 44.703C38.5003 45.676 34.1291 47.4185 27.6718 47.4185C21.2126 47.4185 16.8427 45.676 14.8684 44.703C14.1028 44.3246 13.7057 44.0412 13.7057 42.9988L13.7057 11.9913C13.7057 11.518 14.0739 11.2735 15.8515 10.2736C15.9734 10.2043 16.2374 10.0656 16.2374 9.73297L16.2374 7.31571C16.2374 6.9878 16.0496 6.40066 15.4981 6.40066L3.75789 6.40066C3.20781 6.40066 3.01725 6.80331 3.01725 7.31571L3.01725 9.79019C3.01725 10.0925 3.35382 10.1881 3.50535 10.2736C5.19004 11.2237 5.52401 11.5267 5.52401 11.9913L5.52401 46.704C5.52401 48.7033 6.15629 49.2736 6.86938 49.7906C14.8981 55.6217 27.6712 55.0271 27.6712 55.0271C27.6712 55.0271 39.8383 55.6217 47.867 49.7906C48.5794 49.2736 49.8176 48.7033 49.8176 46.704L49.8176 11.9913C49.8176 11.5112 50.3058 11.3052 52.1494 10.2736C52.2518 10.215 52.4727 10.0797 52.4727 9.79019L52.4727 7.25914C52.4727 6.93123 52.235 6.37035 51.6847 6.37035L39.8914 6.37035C39.3419 6.36968 39.105 6.93056 39.105 7.25847L39.105 7.25847Z" id="Shape" fill="#FFFFFF" stroke="none" />
          <path d="M28.8268 42.7456C27.1764 42.7456 26.2446 42.1026 25.7442 41.7565L25.6115 41.6628C25.3039 41.4455 25.1517 41.3404 24.842 41.3754C24.4111 41.4225 24.3208 41.6912 24.3208 41.9087L24.3208 42.3389C24.3208 42.4144 24.2596 42.4756 24.1835 42.4756L20.9104 42.4756C20.8337 42.4756 20.7723 42.4144 20.7723 42.3389L20.7723 35.7086C20.7723 35.6333 20.8337 35.5719 20.9104 35.5719L25.7133 35.5719C25.7428 35.5719 25.7745 35.5834 25.7987 35.603C25.8096 35.6131 26.9724 36.5564 27.3386 36.8278L27.4147 36.8864C27.5965 37.0271 27.874 37.2384 28.1763 37.2384C28.4033 37.2384 28.6153 37.1261 28.8274 36.891C29.0079 36.6951 29.092 36.4837 29.0772 36.2628C29.0631 36.0245 28.927 35.7841 28.6981 35.5862L23.1472 31.2983C22.2605 30.6014 20.7723 29.1263 20.7723 27.0779C20.7723 22.1936 24.5309 20.9014 26.5193 20.9014C28.1696 20.9014 29.0994 21.5458 29.6017 21.8913L29.7344 21.9842C30.0414 22.2003 30.1902 22.3041 30.504 22.271C30.9342 22.2239 31.0245 21.9546 31.0245 21.7371L31.0245 21.3075C31.0245 21.2314 31.0864 21.1695 31.1612 21.1695L34.4362 21.1695C34.5116 21.1695 34.5736 21.2314 34.5736 21.3075L34.5736 27.9364C34.5736 28.0138 34.5116 28.0738 34.4362 28.0738L29.6334 28.0738C29.6025 28.0738 29.5722 28.063 29.5465 28.0435C29.5351 28.0354 28.373 27.0894 28.0059 26.8194L27.9285 26.7602C27.7474 26.6207 27.4719 26.4094 27.1696 26.4094C26.942 26.4094 26.7307 26.5217 26.5172 26.7548C26.3381 26.9513 26.2539 27.1627 26.2681 27.3836C26.2822 27.6234 26.4183 27.8617 26.6471 28.0596L32.1988 32.3481C33.7757 33.6214 34.5736 35.0395 34.5736 36.5679C34.5736 38.849 33.8141 40.5512 32.3153 41.6313C30.8823 42.6649 29.2832 42.7456 28.8268 42.7456L28.8268 42.7456Z" id="Shape" fill="#FFFFFF" stroke="none" />
          <g id="Group-92" transform="translate(15.368725 2.4428341)">
            <path d="M13.4579 41.844C12.3833 41.844 11.3867 41.6219 10.4938 41.1816L10.4938 41.3485C10.4938 41.4751 10.3915 41.5754 10.2662 41.5754L4.08712 41.5754C3.96315 41.5754 3.85953 41.4751 3.85953 41.3485L3.85953 31.8148C3.85953 31.6902 3.96315 31.5886 4.08712 31.5886L8.78627 31.5886C8.20252 31.1415 7.27866 30.4318 6.75949 30.019C5.88753 29.3255 3.85892 27.4139 3.85892 24.6372C3.85892 21.2066 5.43112 19.3373 6.74817 18.3712C8.58838 17.0238 10.5807 16.9194 11.149 16.9194C12.225 16.9194 13.2188 17.1417 14.113 17.584L14.113 17.415C14.113 17.2897 14.214 17.1888 14.3392 17.1888L20.519 17.1888C20.6442 17.1888 20.7466 17.2897 20.7466 17.415L20.7466 26.948C20.7466 27.0746 20.6442 27.1756 20.519 27.1756L15.8151 27.1756C16.3337 27.5756 17.1464 28.2031 17.8452 28.7431C19.2465 29.8286 20.7474 31.8134 20.7474 34.1264C20.7474 37.6189 19.1704 39.4881 17.8472 40.4401C16.0421 41.7424 14.0308 41.844 13.4579 41.844L13.4579 41.844ZM10.2661 40.5768C10.3059 40.5768 10.3435 40.5869 10.3786 40.6065C11.301 41.1344 12.3083 41.3902 13.4578 41.3902C13.997 41.3902 15.8865 41.2947 17.5819 40.0711C18.8195 39.1803 20.292 37.4257 20.292 34.1256C20.292 31.9778 18.8835 30.1221 17.567 29.1026C16.4385 28.2273 15.0117 27.1265 15.0117 27.1265C14.9351 27.0679 14.904 26.9669 14.9351 26.874C14.9674 26.7824 15.0522 26.7204 15.1512 26.7204L20.292 26.7204L20.292 17.6413L14.5686 17.6413L14.5686 17.9584C14.5686 18.0412 14.5256 18.1145 14.4543 18.1557C14.3842 18.1953 14.2994 18.1967 14.2279 18.1557C13.3068 17.6298 12.2996 17.3726 11.1495 17.3726C10.6176 17.3726 8.74713 17.4723 7.01728 18.7375C5.78379 19.639 4.31322 21.3957 4.31322 24.6358C4.31322 27.2153 6.22139 29.0097 7.04223 29.6622C7.83338 30.2925 9.57669 31.6209 9.59476 31.6351C9.6722 31.6929 9.7019 31.794 9.6722 31.8869C9.63991 31.9792 9.55312 32.041 9.45685 32.041L4.31322 32.041L4.31322 41.1202L10.0386 41.1202L10.0386 40.8024C10.0386 40.721 10.0816 40.6475 10.151 40.6058C10.1866 40.5869 10.2264 40.5768 10.2661 40.5768L10.2661 40.5768Z" id="Shape" fill="#FFFFFF" fill-rule="evenodd" stroke="none" />
            <path d="M5.96746 19.2323C4.17516 18.1785 3.45732 16.7457 3.17049 15.7298C2.85948 14.6268 2.97259 13.781 2.97718 13.746L3.27488 13.7878C3.27074 13.8201 2.86744 17.0589 6.12097 18.9718L5.96746 19.2323L5.96746 19.2323Z" id="Shape" fill="#FFFFFF" stroke="none" />
            <path d="M20.5926 17.4224L20.3468 17.2467C21.5569 15.5491 21.2868 13.7204 21.2842 13.7022L21.5837 13.6612C21.5959 13.738 21.8733 15.628 20.5926 17.4224L20.5926 17.4224Z" id="Shape" fill="#FFFFFF" stroke="none" />
            <path d="M12.2302 17.1255C8.84791 17.1255 6.53843 16.1963 5.19521 15.4166C3.73535 14.5674 3.08563 13.7245 3.05808 13.6895L3.29838 13.5063C3.3247 13.5393 5.90417 16.8232 12.2302 16.8232C15.5368 16.8232 17.7898 15.9209 19.0954 15.1648C20.5121 14.3446 21.1551 13.5144 21.1612 13.5063L21.4022 13.6895C21.3739 13.7252 20.7242 14.5682 19.2637 15.4166C17.9231 16.1963 15.6136 17.1255 12.2302 17.1255L12.2302 17.1255Z" id="Shape" fill="#FFFFFF" stroke="none" />
            <path d="M23.2004 37.9932C23.2004 37.7549 23.1977 37.293 23.1949 36.6621C23.1909 35.1458 23.1834 32.7056 23.1808 30.0237L23.1808 29.8419C23.1795 28.8273 23.1775 27.1769 23.1775 26.1339C24.0433 25.6336 25.9596 23.483 23.0792 15.8326C22.6967 14.7164 22.2556 14.0982 21.9244 13.7737C22.3439 13.573 22.6846 13.1885 22.8887 12.8357C23.3862 11.9785 23.5499 10.8547 23.6366 10.2508C23.6562 10.1228 23.6689 10.0218 23.6838 9.95921C23.8151 9.33099 23.6495 9.00846 23.0657 8.76876L22.3162 8.45702L22.3162 4.81295C22.3162 4.09519 22.3829 4.03592 22.6024 3.83528C22.6482 3.79083 22.7041 3.74303 22.7633 3.68177C22.9984 3.44812 23.098 3.16869 23.0448 2.89464C22.9984 2.66166 22.8199 2.33173 22.2334 2.08192C17.8029 0.148802 13.6875 0 12.5308 0C12.4055 0 12.3348 0.00202047 12.3335 0.00202047C12.3227 0.00202047 12.2507 0 12.1248 0C10.9694 0 6.85534 0.149475 2.42541 2.08192C1.83492 2.33173 1.6586 2.66166 1.61406 2.89464C1.5588 3.16935 1.6586 3.44812 1.89277 3.68177C1.94742 3.73832 2.00053 3.78546 2.04706 3.82789C2.26792 4.03257 2.32654 4.08643 2.32654 4.81295L2.32776 8.45432C2.15068 8.52436 1.84303 8.65027 1.57105 8.7708C0.988517 9.02666 0.827655 9.33772 0.960356 9.95921C0.973056 10.0218 0.988517 10.1228 1.00673 10.2508C1.09367 10.8547 1.2579 11.9785 1.75487 12.8357C2.02548 13.3003 2.31766 13.6073 2.63954 13.7723C2.25644 14.1621 1.87395 14.8247 1.51917 15.7323C-0.855666 22.0368 -0.100943 25.2869 1.43559 26.1575C1.43774 30.0291 1.44646 34.5808 1.45381 36.6668C1.45457 37.2964 1.4558 37.7555 1.45718 37.994C1.21473 38.2107 0.940149 38.701 0.85995 39.1924C0.771786 39.7365 0.915814 40.2145 1.27611 40.5762C2.23149 41.531 8.53192 42.7968 12.3274 42.7968C16.1243 42.7968 22.422 41.531 23.3795 40.5762C23.739 40.2145 23.8844 39.7365 23.7977 39.1924C23.7181 38.7016 23.4413 38.2115 23.2004 37.9932L23.2004 37.9932ZM22.8941 9.18893C23.2758 9.34649 23.3271 9.44882 23.2407 9.86697C23.2253 9.93632 23.2078 10.0468 23.1882 10.1868C23.1062 10.7611 22.9493 11.8297 22.4967 12.6088C22.3878 12.798 22.2241 13.0067 22.0275 13.1717C21.8989 13.2801 21.5271 13.4645 21.4855 12.7919C21.4572 12.3515 21.513 11.9139 21.676 11.4843C22.0934 10.3861 22.2705 9.69527 22.3082 8.94788L22.8941 9.18893L22.8941 9.18893ZM17.8244 6.88951C16.2893 6.81341 15.3137 7.59717 14.7373 8.34591C14.2922 8.65834 13.3893 9.17007 12.2749 9.1364C11.1262 9.1364 10.2172 8.58226 9.79965 8.27387C9.21589 7.546 8.25377 6.81678 6.76637 6.88951C4.35986 7.00195 3.36667 8.86033 3.0226 10.1181C2.8974 9.61648 2.81521 9.13235 2.78429 8.66978L3.45835 8.44152C3.51223 8.42402 3.55049 8.37149 3.55126 8.31291L3.5661 7.24839C4.02665 7.07803 6.33 6.26532 9.79903 5.83977C9.86914 5.83035 9.91826 5.77244 9.91826 5.70377L9.91826 5.33143L14.4437 5.33143L14.4437 5.70377C14.4437 5.77379 14.4968 5.83304 14.5661 5.83977C14.6046 5.84449 18.3038 6.24109 21.111 7.30226L21.111 8.29877C21.111 8.35534 21.1447 8.40516 21.1958 8.42671C21.2065 8.4294 21.4167 8.51559 21.8624 8.66575C21.8584 9.17816 21.7964 9.6286 21.6375 10.1908C21.2941 8.95393 20.2941 7.0033 17.8244 6.88951L17.8244 6.88951ZM20.1025 8.32705C19.9698 8.55058 19.1994 9.69123 17.5741 9.4495C16.886 9.34648 16.4145 8.96603 16.1352 8.59436C15.8302 8.19304 15.9245 7.8335 16.0154 7.77895C16.4793 7.49616 17.0676 7.3083 17.8023 7.3413C18.8312 7.39112 19.5732 7.79579 20.1025 8.32705L20.1025 8.32705ZM14.1542 9.67036C14.1657 9.6744 15.2308 10.0366 16.0867 11.0884C16.1546 11.1867 15.9379 11.3786 15.7836 11.3382C15.4342 11.2466 14.666 11.0803 14.1771 11.7193C14.173 11.7254 14.167 11.7294 14.1637 11.7348C14.1158 11.7846 13.5233 12.3825 12.3376 12.3825C11.1322 12.3825 10.4758 11.757 10.4421 11.7233C9.75396 11.1025 9.09612 11.2843 8.70429 11.3396C8.51573 11.3671 8.31308 11.2298 8.42083 11.0736C9.28193 10.0353 10.4179 9.67642 10.43 9.67238C10.5384 9.62726 10.5956 9.50742 10.5613 9.39498C10.556 9.38555 10.4502 9.29127 10.1971 8.85562C10.7101 9.13504 11.4252 9.40911 12.2696 9.40911C12.3092 9.40978 12.3443 9.40977 12.3841 9.40977C13.1893 9.40977 13.8755 9.15661 14.3723 8.89132C14.134 9.30878 14.0316 9.38555 14.0282 9.39498C13.9953 9.5054 14.0498 9.62323 14.1542 9.67036L14.1542 9.67036ZM8.55739 8.51224C8.27868 8.90209 7.79914 9.33975 7.05927 9.45018C5.39677 9.69595 4.62918 8.49808 4.51944 8.31291C5.03984 7.78771 5.77175 7.38979 6.78514 7.34265C7.51645 7.30967 8.09271 7.50358 8.56137 7.77089C8.72499 7.86246 8.78697 8.19105 8.55739 8.51224L8.55739 8.51224ZM2.77911 4.73147C3.39042 4.51063 5.80106 3.66223 7.71121 3.34241C7.72529 3.35116 7.74351 3.36192 7.76233 3.37404C9.13862 4.2157 10.6684 4.64059 12.3093 4.64059C13.9483 4.64059 15.4775 4.2157 16.853 3.37404C16.874 3.36192 16.8914 3.35049 16.9055 3.34241C18.8164 3.66223 21.2479 4.51063 21.8625 4.73147C21.8625 4.75909 21.8619 4.7867 21.8619 4.81498L21.8619 8.37622C21.6316 8.29811 21.4721 8.23952 21.3845 8.20654L21.3845 7.20798C21.3845 7.15143 21.3501 7.10024 21.2964 7.07938C18.737 6.09295 15.3953 5.66203 14.7178 5.58123L14.7178 5.19542C14.7178 5.11866 14.6572 5.05738 14.5812 5.05738L9.78099 5.05738C9.70631 5.05738 9.6457 5.11866 9.6457 5.19542L9.6457 5.58325C5.80642 6.06804 3.40266 7.01675 3.37772 7.02685C3.32644 7.04773 3.29277 7.09689 3.29078 7.15277L3.27731 8.21393L2.77911 8.38294L2.77911 4.81431C2.78049 4.78602 2.77911 4.75909 2.77911 4.73147L2.77911 4.73147ZM2.2141 3.36329C2.14202 3.29057 2.02615 3.14579 2.05783 2.98218C2.0935 2.80442 2.28543 2.63541 2.60669 2.49939C7.06876 0.552123 11.3194 0.453815 12.1254 0.453815C12.252 0.453815 12.318 0.455177 12.3362 0.455177C12.3382 0.455177 12.4063 0.453815 12.5309 0.453815C13.3381 0.453815 17.5896 0.552139 22.0538 2.50075C22.3709 2.63541 22.5661 2.80509 22.5997 2.98218C22.6314 3.14579 22.5169 3.29057 22.4442 3.36329C22.3911 3.41715 22.3412 3.46158 22.2961 3.50199C22.0578 3.72014 21.9385 3.86759 21.8894 4.25881C21.0923 3.97735 18.749 3.17879 16.9054 2.88186C16.8919 2.88052 16.8805 2.8805 16.8684 2.8805C16.7943 2.8805 16.7485 2.90608 16.618 2.98687C15.3138 3.78478 13.8634 4.18811 12.3106 4.18811C10.7545 4.18811 9.30492 3.78478 7.99996 2.98687C7.84843 2.89328 7.79869 2.86974 7.71313 2.88186C5.87155 3.17879 3.54799 3.97466 2.75746 4.25881C2.7097 3.86221 2.58986 3.71273 2.35415 3.49593C2.31237 3.45687 2.26523 3.41445 2.2141 3.36329L2.2141 3.36329ZM2.39121 12.973C2.3084 12.8687 2.22759 12.7475 2.14677 12.6081C1.69434 11.829 1.53807 10.7605 1.45527 10.1861C1.43644 10.0461 1.41761 9.93566 1.40414 9.86496C1.31721 9.45356 1.36634 9.35928 1.75495 9.1869C1.95683 9.09668 2.18106 9.0051 2.35356 8.93441C2.43223 9.74443 2.64436 10.6002 2.9817 11.4836C3.12573 11.862 3.14256 12.3138 3.09144 12.8027C3.03221 13.3502 2.57227 13.2006 2.39121 12.973L2.39121 12.973ZM23.0582 40.2557C22.3351 40.9815 16.3936 42.3424 12.328 42.3424C9.9559 42.3424 6.94404 41.879 4.70329 41.3478L4.0205 41.3478L4.0205 41.1774C2.7688 40.8502 1.85567 40.5115 1.59792 40.2557C1.34936 40.0065 1.2511 39.6874 1.30298 39.3055C1.37094 38.7925 1.68869 38.365 1.78511 38.3104C1.78771 38.3084 1.7897 38.3056 1.79307 38.3056C2.11158 38.4411 2.88329 38.7501 4.02112 39.0861L4.02112 38.7986C2.95186 38.4801 2.21872 38.1879 1.91169 38.0566C1.91169 37.8458 1.91031 37.3617 1.90756 36.6641C1.90358 35.4455 1.89822 33.5877 1.89409 31.4814C2.28867 31.565 3.12696 31.7461 4.0205 31.9138L4.0205 31.8142L5.03588 31.755C3.79964 31.5442 2.37897 31.3065 1.89409 31.2007C1.89409 30.8325 1.89271 30.4587 1.89271 30.0776C2.23954 30.1705 4.66487 30.8022 8.14324 31.1409C8.45104 31.3784 8.75945 31.6155 9.02133 31.8142L9.39035 31.8142C9.39035 31.8142 7.93723 30.7065 7.07062 30.0271C7.00067 30.1255 7.01812 30.26 7.11179 30.3355C7.28413 30.4722 7.50101 30.6419 7.73397 30.8244C4.26555 30.452 1.95408 29.8096 1.92301 29.8009C1.91291 29.7995 1.90419 29.8003 1.89347 29.7995C1.89347 28.859 1.89072 27.8866 1.89072 26.9217C2.1803 26.682 3.37277 26.5582 4.47569 26.5582C4.54641 26.5582 4.60625 26.6086 4.64743 26.5582C4.58682 26.437 4.53018 26.352 4.47707 26.2255L4.47569 26.1042C3.13369 26.1042 2.61927 26.1757 1.75144 25.8095C0.991205 25.489 0.414178 24.4675 0.473415 22.0421C0.502342 20.8948 0.840293 19.4754 0.840293 19.4754C1.08074 18.4277 1.4369 17.24 1.94261 15.8973C2.36474 14.8214 2.7411 14.3095 2.98829 14.0651L3.35792 13.6471C3.57067 12.6822 3.65347 11.9758 3.40445 11.322C3.37614 11.2439 3.34858 11.1651 3.32088 11.0877C3.32088 10.6554 3.54847 9.42191 4.36121 8.48531C4.55039 8.77685 5.27358 9.71143 6.6289 9.71143C6.77844 9.71143 6.93333 9.70067 7.09358 9.67575C8.31237 9.4953 8.86781 8.53646 9.05026 8.12977C9.62468 8.64554 9.93507 9.03541 10.0603 9.34448C9.64947 9.54781 8.68736 9.9727 7.94672 10.9389L7.94672 10.9403C7.94534 10.9409 7.94534 10.9409 7.94534 10.9409C7.9386 10.9483 7.77973 11.1968 7.92911 11.3705L7.92911 11.3719L7.92911 11.3732C7.9784 11.4628 8.42808 11.9745 10.1956 12.1011C10.4878 12.367 11.2318 12.8357 12.3388 12.8357C13.4586 12.8357 14.1628 12.3664 14.4316 12.1011C16.2213 11.9684 16.5289 11.4143 16.58 11.3423C16.6852 11.1968 16.5969 11.0042 16.5505 10.9409C15.8132 9.97942 14.9149 9.55455 14.5291 9.34985C14.6544 9.03743 14.9729 8.62672 15.5714 8.10354C15.7439 8.49272 16.2932 9.49059 17.5389 9.67508C17.7026 9.69998 17.8575 9.71077 18.0042 9.71077C19.3407 9.71077 20.0612 8.80243 20.2652 8.49876C21.1076 9.46095 21.3364 10.7262 21.3364 11.0871L21.3392 11.0898C21.3116 11.1652 21.2839 11.2419 21.2524 11.3214C20.9614 12.0829 20.9856 12.9279 21.1985 13.6463L21.9176 14.4692C22.1432 14.7891 22.4057 15.2704 22.6515 15.9869C23.2265 17.5187 23.6049 18.8464 23.8507 19.9858C24.0359 20.8376 24.1417 22.1917 24.1417 22.1917C24.2203 24.1975 23.6298 25.4545 22.871 25.7818C22.0638 26.1306 21.3823 26.1157 20.4767 26.1157C20.4666 26.1157 20.4599 26.1191 20.451 26.1199L20.451 26.2221L20.4276 26.2221C20.4276 26.3475 20.2693 26.4477 20.3945 26.4477C21.1661 26.4477 21.954 26.4315 22.7222 26.9211C22.7222 27.9331 22.7236 28.9081 22.725 29.8898C21.622 30.1867 20.4026 30.4102 19.2242 30.5786C19.2815 30.6588 19.3374 30.7436 19.394 30.8303C20.3959 30.679 21.4004 30.483 22.3027 30.279C22.6515 30.1994 22.7256 30.3557 22.7256 30.7564C22.7256 31.155 22.6616 31.2041 22.3498 31.2681C21.7837 31.3865 20.8255 31.5838 19.905 31.7461C19.9435 31.8316 19.9845 31.9178 20.0195 32.0054C21.1371 31.8055 22.2892 31.563 22.727 31.4701C22.7317 33.5694 22.739 35.4253 22.7418 36.6635C22.7418 37.357 22.7438 37.8445 22.7438 38.0552C22.2751 38.2505 20.8355 38.808 18.7207 39.274C18.6142 39.3978 18.5044 39.5171 18.3935 39.6248C20.7541 39.1366 22.3633 38.5124 22.8609 38.303C22.8642 38.3058 22.8662 38.3078 22.8704 38.3104C22.968 38.3643 23.2844 38.7925 23.3545 39.3055C23.4064 39.688 23.3067 40.0065 23.0582 40.2557L23.0582 40.2557ZM15.964 13.2969C15.9244 13.2969 15.8879 13.3009 15.8576 13.307C14.6449 13.5534 12.4741 13.5602 12.2345 13.5602C11.994 13.5602 9.82457 13.5534 8.61129 13.307C8.57823 13.3017 8.54257 13.2969 8.50415 13.2969C8.15335 13.2969 7.68545 13.5811 7.51036 14.1103C7.40536 14.42 7.47469 14.7883 7.69555 15.0947C7.89483 15.3708 8.16881 15.5337 8.42946 15.5337L12.2338 15.5337L16.0367 15.5337C16.2993 15.5337 16.5707 15.3701 16.7706 15.0947C16.9915 14.7877 17.0608 14.42 16.9585 14.1103C16.7821 13.5817 16.3142 13.2969 15.964 13.2969L15.964 13.2969ZM15.6423 13.7636C15.7446 13.7474 15.8437 13.7238 15.938 13.7109C16.0982 13.6887 16.3393 13.7737 16.4247 13.971C16.4415 14.012 16.4288 14.109 16.1931 14.1601C16.0261 14.1958 15.8005 14.2267 15.5157 14.2612L15.6423 13.7636L15.6423 13.7636ZM10.1303 13.9009C11.1128 13.9676 12.2346 13.971 12.2346 13.971C12.2346 13.971 13.3549 13.9676 14.3366 13.9009L14.5387 14.3473C13.8511 14.3984 13.0318 14.4248 12.2346 14.4248C11.4367 14.4248 10.6178 14.3984 9.92906 14.3473L10.1303 13.9009L10.1303 13.9009ZM8.04442 13.971C8.13059 13.7737 8.36951 13.6887 8.53052 13.7109C8.62543 13.7238 8.72368 13.7474 8.82608 13.7636L8.95266 14.2612C8.6672 14.2267 8.44298 14.1958 8.274 14.1601C8.04105 14.1083 8.0262 14.012 8.04442 13.971L8.04442 13.971ZM8.43008 15.1236C8.30763 15.1236 8.14601 15.0153 8.03152 14.8537C7.96157 14.7588 7.91703 14.6558 7.89346 14.5561C7.85841 14.4052 7.9729 14.3594 8.15672 14.3904C8.36075 14.4248 8.64084 14.4759 9.01935 14.5183L9.1721 15.1236L8.43008 15.1236L8.43008 15.1236ZM9.32313 14.7183C9.27859 14.548 9.09278 13.8018 9.09278 13.8018C9.34058 13.8329 9.60322 13.8598 9.86709 13.8814C9.86709 13.8814 9.54735 14.5951 9.49011 14.7183C9.42613 14.8576 9.3695 14.8974 9.32313 14.7183L9.32313 14.7183ZM12.2346 15.1236L9.58107 15.1236L9.82137 14.589L9.82413 14.5904C10.5398 14.6456 11.3983 14.6726 12.2346 14.6726C13.0709 14.6726 13.9274 14.6456 14.6451 14.5904L14.6451 14.589L14.8868 15.1236L12.2346 15.1236L12.2346 15.1236ZM14.9784 14.7183C14.9217 14.5944 14.6006 13.8814 14.6006 13.8814C14.8653 13.8598 15.1291 13.8329 15.3763 13.8018C15.3763 13.8018 15.1904 14.548 15.1473 14.7183C15.1002 14.8974 15.0416 14.8576 14.9784 14.7183L14.9784 14.7183ZM16.4366 14.8537C16.3223 15.0153 16.1607 15.1236 16.0381 15.1236L15.2968 15.1236L15.4503 14.5183C15.8273 14.4759 16.1094 14.4248 16.3108 14.3904C16.4946 14.3594 16.6111 14.4052 16.5747 14.5561C16.5519 14.6558 16.5073 14.7588 16.4366 14.8537L16.4366 14.8537Z" id="Shape" fill="#FFFFFF" fill-rule="evenodd" stroke="none" />
          </g>
        </g>
      </g>
      <g id="Group-90" transform="translate(63.20923 17.449274)">
        <path d="M5.57715 1.97564L5.56706 3.81177C5.56706 4.0906 5.55698 4.35917 5.54017 4.60018C5.48353 5.4264 5.1953 5.9832 4.62975 6.37245C4.16588 6.68825 3.55244 6.85446 2.82118 6.85446C2.30202 6.85446 1.83748 6.78052 1.43009 6.61413C1.14252 6.50169 0.872604 6.35362 0.677983 6.13144C0.297477 5.71329 0.158153 5.18471 0.167565 4.25682L0.185716 1.96622C0.19462 1.12185 0.13059 0.612103 0 0.212775L0.233611 0.22286L0.836306 0.22286L1.13311 0.212775L1.07798 0.890928C1.06723 1.04841 1.06723 1.38236 1.05983 1.89278L1.0395 3.88656C1.03076 4.74102 1.07866 5.00892 1.22538 5.35295C1.46706 5.90035 2.11681 6.24388 2.88521 6.24388C3.34034 6.24388 3.74908 6.14085 4.07429 5.95564C4.33412 5.79799 4.53815 5.57514 4.64925 5.32472C4.8069 4.95295 4.84454 4.56387 4.85328 3.64606L4.86337 1.97631C4.87345 1.13194 4.80757 0.621516 4.67748 0.222187L4.91866 0.231599L5.43782 0.231599L5.69967 0.222187C5.59597 0.881348 5.57715 1.07463 5.57715 1.97564L5.57715 1.97564Z" id="Shape" fill="#FFFFFF" stroke="none" />
        <path d="M13.8981 0.629583C13.8712 0.853113 13.8517 1.0753 13.8517 1.30622C13.8517 1.49278 13.843 1.86387 13.843 2.42068L13.8327 5.03648C13.8327 5.18472 13.8327 5.37043 13.843 5.6022C13.8712 6.08489 13.88 6.26068 13.9257 6.78052L13.5749 6.78052L13.1939 6.78926C12.8417 6.25195 12.6943 6.04724 12.3865 5.658L9.65005 2.19782L8.90803 1.23429L8.92769 1.70689L8.91744 4.80556C8.91744 5.57514 8.99156 6.27144 9.13039 6.68018L8.8892 6.66136L8.36063 6.66136L8.09206 6.68018C8.12971 6.49363 8.14786 6.35564 8.15593 6.26203C8.18501 6.04858 8.21189 5.8264 8.21189 5.59413L8.21189 4.79547L8.22198 1.96622C8.22198 1.12185 8.17627 0.620843 8.04551 0.222187L8.52702 0.241012L9.35458 0.212775C9.67845 0.770255 9.81778 0.97429 10.1793 1.43765L12.6376 4.60085L13.1574 5.26001L13.1292 4.60085L13.138 2.41261C13.138 1.48471 13.0551 0.659163 12.9077 0.222187L13.1292 0.232272L13.6961 0.232272L13.9648 0.222187C13.9257 0.407398 13.9082 0.537314 13.8981 0.629583L13.8981 0.629583Z" id="Shape" fill="#FFFFFF" stroke="none" />
        <path d="M17.3882 6.65984L16.7114 6.65984L16.4509 6.67816L16.506 6.26135C16.5613 5.86202 16.5721 5.76908 16.5721 4.9153L16.5815 1.96488C16.5815 1.13933 16.525 0.610756 16.3963 0.211428L16.6279 0.221512L17.2306 0.221512L17.5276 0.211428L17.4723 0.88958C17.4629 1.04706 17.4541 1.38101 17.4541 1.89143L17.4434 4.92538C17.4434 5.76908 17.5007 6.27883 17.6299 6.67816L17.3882 6.65984L17.3882 6.65984Z" id="Shape" fill="#FFFFFF" stroke="none" />
        <path d="M25.2053 0.695632L24.9529 1.2242L24.695 1.79916L23.1261 5.57463C22.8488 6.24253 22.8117 6.35497 22.7181 6.81816L22.5234 6.79934L22.1155 6.79934L21.8824 6.81816C21.8273 6.47547 21.8092 6.37312 21.6428 5.92875L20.1312 1.83698C19.8154 0.974456 19.5838 0.537985 19.3885 0.222185L19.6207 0.232438L20.354 0.232438L20.6779 0.212102C20.696 0.379833 20.7041 0.509077 20.7224 0.593278C20.7614 0.825548 20.8813 1.20605 21.0765 1.76219L22.0965 4.74034L22.4211 5.76034L22.8569 4.65614L23.8581 2.04034C24.1098 1.39042 24.229 0.94538 24.229 0.593278C24.229 0.463363 24.2196 0.388573 24.1658 0.222185L24.4607 0.232438L25.1569 0.232438L25.4249 0.212102L25.4431 0.249917C25.334 0.445211 25.2498 0.593278 25.2053 0.695632L25.2053 0.695632Z" id="Shape" fill="#FFFFFF" stroke="none" />
        <path d="M31.1021 6.02035L31.0187 6.3812L30.9533 6.71515C30.7849 6.70641 30.6644 6.69699 30.5905 6.69699C30.5533 6.69699 30.1831 6.68825 29.4699 6.67884L28.2256 6.66069L27.3066 6.67884L27.3631 6.26204C27.4184 5.85262 27.4278 5.77044 27.4278 4.91598L27.4372 1.96556C27.4372 1.12119 27.3915 0.620851 27.2607 0.221691L27.7523 0.23043L29.0417 0.23043C30.0908 0.23043 30.1931 0.221523 30.814 0.203371L30.6926 0.500347L30.5715 0.880179L30.5076 1.11245L30.3952 1.1306C30.2295 0.944717 30.1452 0.888919 29.9237 0.82354C29.672 0.749422 29.3669 0.712447 29.0222 0.712447C28.8747 0.712447 28.6249 0.721859 28.3463 0.739339L28.3078 1.86186L28.3078 2.96606L29.532 2.96606C29.9231 2.96606 30.0895 2.94791 30.5338 2.91027L30.618 2.98422L30.4874 3.27178L30.3661 3.58825C30.1817 3.56943 30.0422 3.56001 29.95 3.56001C29.6343 3.5417 29.3373 3.53161 29.0404 3.53161C28.79 3.53161 28.6688 3.53161 28.2977 3.55128L28.2977 4.94237C28.2977 5.05346 28.3071 5.19279 28.3158 5.36859C28.3347 5.70254 28.3718 5.84187 28.4829 5.9617C28.6316 6.10994 28.8444 6.15699 29.3837 6.15699C29.7258 6.15699 29.9945 6.13884 30.2463 6.09161C30.3654 6.07347 30.4962 6.03649 30.6173 5.98052C30.7829 5.9059 30.8758 5.8412 31.0617 5.66472L31.1829 5.72069L31.1021 6.02035L31.1021 6.02035Z" id="Shape" fill="#FFFFFF" stroke="none" />
        <path d="M38.2486 6.67817L38.0081 6.68825L37.3032 6.7064L36.9126 6.73329L36.8035 6.56708L36.681 6.3543C36.6351 6.26203 36.5612 6.1496 36.477 6.0101C36.0864 5.37917 35.6785 4.79481 35.1869 4.10875C34.7707 3.52421 34.5943 3.37547 34.3714 3.14455C34.8158 3.13514 35.0946 3.11615 35.3262 3.02321C35.7719 2.85631 36.0413 2.36472 36.0413 1.82606C36.0413 1.11245 35.5768 0.64774 34.7976 0.64774C34.6314 0.64774 34.4818 0.657824 34.1391 0.703707C34.1197 1.09413 34.1109 1.18707 34.1109 1.89144L34.1022 4.92539C34.1022 5.76976 34.158 6.28019 34.2865 6.67817L34.0469 6.66052L33.3689 6.66052L33.1082 6.67817C33.2106 6.01951 33.2296 5.79666 33.2296 4.91598L33.2396 1.96556C33.2396 1.12119 33.1931 0.620849 33.0618 0.221521L33.5454 0.240344L34.4267 0.212109C34.6677 0.202697 34.8818 0.202697 35.0845 0.202697C35.8736 0.202697 36.1618 0.276815 36.477 0.526564C36.7827 0.777824 36.9502 1.19446 36.9502 1.64909C36.9502 2.03816 36.8203 2.4469 36.578 2.70623C36.3746 2.92102 36.1148 3.09665 35.6696 3.32758L35.8823 3.61514L36.7639 4.87699C37.1719 5.47077 37.5798 5.98119 37.8587 6.26808C38.0074 6.41682 38.0728 6.47279 38.2573 6.61212L38.2486 6.67817L38.2486 6.67817Z" id="Shape" fill="#FFFFFF" stroke="none" />
        <path d="M41.2393 6.89161C41.1269 6.89161 41.0071 6.88287 40.877 6.87413C40.496 6.83631 40.3195 6.79934 39.865 6.63228L39.9667 6.30774L40.0778 5.88152L40.1351 5.64992L40.2637 5.62169C40.4319 5.88152 40.5155 5.98387 40.6899 6.09497C40.9235 6.25261 41.2474 6.34555 41.5262 6.34555C42.2776 6.34555 42.8331 5.84455 42.8331 5.18606C42.8331 4.92606 42.7489 4.67564 42.5928 4.48102C42.3981 4.24001 42.1469 4.0548 41.5813 3.74841C40.737 3.29463 40.6158 3.2111 40.366 2.96C40.0872 2.67177 39.9298 2.27328 39.9298 1.84639C39.9298 0.742018 40.803 0 42.12 0C42.2311 0 42.3415 0.0100849 42.4539 0.0188235C42.815 0.0465548 43.0094 0.0936134 43.4842 0.251261L43.3805 0.510421L43.2425 0.946053L43.196 1.14067L43.0755 1.15883C42.7415 0.704371 42.4076 0.537985 41.8602 0.537985C41.1726 0.537985 40.7188 0.936641 40.7188 1.52992C40.7188 1.80925 40.8292 2.05916 41.0346 2.24488C41.2474 2.43143 41.4696 2.57883 42.0736 2.90404C42.8338 3.31278 43.0654 3.47917 43.3165 3.79429C43.54 4.08169 43.6504 4.4353 43.6504 4.81497C43.6504 6.02034 42.6492 6.89161 41.2393 6.89161L41.2393 6.89161Z" id="Shape" fill="#FFFFFF" stroke="none" />
        <path d="M46.6658 6.65984L45.989 6.65984L45.7285 6.67816L45.7836 6.26135C45.8395 5.86202 45.8496 5.76908 45.8496 4.9153L45.8604 1.96488C45.8604 1.13933 45.8032 0.610756 45.6738 0.211428L45.9056 0.221512L46.5088 0.221512L46.8051 0.211428L46.75 0.88958C46.7411 1.04706 46.7316 1.38101 46.7316 1.89143L46.7216 4.92538C46.7216 5.76908 46.7789 6.27883 46.9074 6.67816L46.6658 6.65984L46.6658 6.65984Z" id="Shape" fill="#FFFFFF" stroke="none" />
        <path d="M54.0918 5.9079C53.4158 6.45664 52.6267 6.68824 51.4403 6.68824C51.2175 6.68824 50.837 6.66 50.2795 6.66L49.6027 6.66L49.3422 6.67815L49.3982 6.26135C49.4533 5.86202 49.4634 5.76908 49.4634 4.91529L49.4741 2.00252C49.4741 1.15747 49.4183 0.620161 49.2876 0.220832C49.5664 0.231084 49.4089 0.230916 50.1319 0.230916C50.5131 0.230916 51.1239 0.220832 51.5049 0.220832C51.8281 0.220832 52.1082 0.220832 52.3398 0.230916C53.1007 0.248564 53.5654 0.342177 53.9733 0.55495C54.8358 1.00873 55.3462 1.9931 55.3462 3.17142C55.3462 4.27496 54.9005 5.26824 54.0918 5.9079L54.0918 5.9079ZM53.7126 1.43698C53.2488 0.917817 52.6743 0.72185 51.5513 0.72185C51.255 0.72185 50.9573 0.742019 50.3736 0.769078L50.3446 1.89143L50.3365 4.90589C50.3365 5.02639 50.3446 5.17597 50.3548 5.33346C50.373 5.66741 50.4099 5.8069 50.5204 5.92741C50.5864 5.99127 50.6597 6.0385 50.7533 6.06606C50.9479 6.12068 51.2913 6.14959 51.6333 6.14959C53.3315 6.14959 54.3624 5.11934 54.3624 3.4037C54.3624 2.60656 54.1308 1.91026 53.7126 1.43698L53.7126 1.43698Z" id="Shape" fill="#FFFFFF" fill-rule="evenodd" stroke="none" />
        <path d="M62.2052 6.66002L61.6113 6.66002L61.2032 6.68826L61.1394 6.29699C61.0827 6.00069 60.9898 5.7133 60.8041 5.17598L60.4896 4.2575L59.9225 4.238L58.8197 4.238L58.1699 4.2575L57.8548 5.10187C57.6783 5.58405 57.5849 5.97313 57.5849 6.25195C57.5849 6.39128 57.595 6.48355 57.6501 6.67817L57.3619 6.66002L56.7224 6.66002L56.4725 6.67817L56.4348 6.62221L56.657 6.20405C56.7222 6.08355 56.8064 5.90792 56.9168 5.67565C57.0279 5.43582 57.1115 5.23918 57.1688 5.1012L58.7073 1.31514C58.9308 0.777827 58.9773 0.620181 59.0965 0.155642L59.2916 0.128751L59.7004 0.0627008L59.9037 0.0257258C59.9967 0.415474 60.0343 0.563037 60.1926 0.971609L61.7318 5.06355C61.8525 5.3975 62.0469 5.83313 62.2705 6.27817C62.3526 6.44523 62.3898 6.51044 62.4921 6.67683L62.2052 6.66002L62.2052 6.66002ZM59.376 1.05649L58.366 3.71952L58.9134 3.73835L59.8129 3.73835L60.2944 3.71952L59.376 1.05649L59.376 1.05649Z" id="Shape" fill="#FFFFFF" fill-rule="evenodd" stroke="none" />
        <path d="M69.1138 5.9079C68.4358 6.45664 67.6487 6.68824 66.4608 6.68824C66.238 6.68824 65.8583 6.66 65.3008 6.66L64.6247 6.66L64.3628 6.67815L64.4193 6.26135C64.4753 5.86202 64.4853 5.76908 64.4853 4.91529L64.4941 2.00252C64.4941 1.15747 64.4389 0.620161 64.3095 0.220832C64.5877 0.231084 64.4307 0.230916 65.1519 0.230916C65.5331 0.230916 66.1459 0.220832 66.5262 0.220832C66.8501 0.220832 67.1296 0.220832 67.3605 0.230916C68.1206 0.248564 68.5852 0.342177 68.9932 0.55495C69.8558 1.00873 70.3662 1.9931 70.3662 3.17142C70.3655 4.27496 69.9212 5.26824 69.1138 5.9079L69.1138 5.9079ZM68.7339 1.43698C68.2692 0.917817 67.6936 0.72185 66.5712 0.72185C66.2743 0.72185 65.978 0.742019 65.3928 0.769078L65.3645 1.89143L65.3558 4.90589C65.3558 5.02639 65.3645 5.17597 65.3753 5.33346C65.3921 5.66741 65.4306 5.8069 65.5417 5.92741C65.6057 5.99127 65.681 6.0385 65.7733 6.06606C65.9679 6.12068 66.3119 6.14959 66.6546 6.14959C68.3528 6.14959 69.3823 5.11934 69.3823 3.4037C69.3823 2.60656 69.1501 1.91026 68.7339 1.43698L68.7339 1.43698Z" id="Shape" fill="#FFFFFF" fill-rule="evenodd" stroke="none" />
      </g>
      <g id="Group-89" transform="translate(63.432236 31.618214)">
        <path d="M1.04572 10.3133C1.89009 10.8761 2.89597 11.299 4.06152 11.299C5.08757 11.299 6.11245 10.9375 6.11245 9.93161C6.11245 7.53984 0.443029 7.84152 0.443029 3.78C0.443029 1.78958 2.03076 0 4.88639 0C6.2943 0 7.48001 0.321848 8.24287 0.7042L8.24287 3.17664C7.09749 2.61446 6.03093 2.31143 4.96707 2.31143C4.12135 2.31143 3.37883 2.61446 3.37883 3.53832C3.37883 5.79059 9.04757 5.46942 9.04757 9.69043C9.04757 12.103 6.93732 13.5911 4.16253 13.5911C2.61379 13.5911 1.06589 13.1689 0 12.3846L1.04572 10.3133L1.04572 10.3133Z" id="Shape" fill="#FFFFFF" stroke="none" />
        <path d="M12.1729 11.118C11.7905 10.3935 11.5892 9.46959 11.5892 8.38287L11.5892 0.140002L14.3431 0.140002L14.3431 8.2227C14.3431 8.90674 14.4838 9.50943 14.7255 9.97195C15.1889 10.8365 16.0722 11.2992 17.2989 11.2992C18.505 11.2992 19.3904 10.8365 19.8529 9.97195C20.1142 9.50943 20.2341 8.90674 20.2341 8.20321L20.2341 0.140002L22.9894 0.140002L22.9894 8.38287C22.9894 9.46892 22.7867 10.3928 22.4062 11.118C21.541 12.8061 19.7317 13.5904 17.2794 13.5904C14.8265 13.5904 13.0374 12.8061 12.1729 11.118L12.1729 11.118Z" id="Shape" fill="#FFFFFF" stroke="none" />
        <path d="M26.3084 0.140002L30.2675 0.140002C31.4559 0.140002 32.3393 0.321179 33.043 0.642355C34.5714 1.30555 35.1538 2.57278 35.1538 3.98068C35.1538 5.70841 34.069 6.91514 32.5803 7.37833L32.5803 7.41867C32.9823 7.64018 33.5669 8.36337 34.2684 9.59027L36.4203 13.3898L33.2638 13.3898L31.5158 10.2136C30.8526 8.96673 30.3887 8.46438 30.0675 8.38354L29.0628 8.38354L29.0628 13.3898L26.309 13.3898L26.309 0.140002L26.3084 0.140002L26.3084 0.140002ZM30.0864 6.15144C30.6898 6.15144 31.0714 6.05177 31.4148 5.87009C31.9366 5.54824 32.299 5.00555 32.299 4.26219C32.299 3.55849 31.9772 2.95446 31.3946 2.65294C31.0936 2.47244 30.7113 2.37143 30.1072 2.37143L29.0622 2.37143L29.0622 6.15077L30.0864 6.15077L30.0864 6.15144L30.0864 6.15144Z" id="Shape" fill="#FFFFFF" fill-rule="evenodd" stroke="none" />
        <path d="M48.866 12.5051C47.3179 13.3508 45.83 13.5904 44.4631 13.5904C40.0191 13.5904 37.647 10.7765 37.647 6.89547C37.647 3.0953 40.4231 0 44.8038 0C46.273 0 47.4789 0.261177 48.3428 0.64437L48.3428 3.17664C47.2789 2.61311 46.1322 2.31278 44.8657 2.31278C41.9704 2.31278 40.5826 4.4237 40.5826 6.85648C40.5826 9.47026 42.2122 11.299 44.8045 11.299C46.1525 11.299 47.1389 10.8965 48.1031 10.3348L48.866 12.5051L48.866 12.5051Z" id="Shape" fill="#FFFFFF" stroke="none" />
        <path d="M50.2928 6.79446C50.2928 2.77412 53.0662 0 57.0469 0C61.0276 0 63.803 2.79362 63.803 6.79446C63.803 10.856 61.0081 13.5904 57.0469 13.5904C53.0662 13.5904 50.2928 10.8365 50.2928 6.79446L50.2928 6.79446ZM60.8674 6.79446C60.8674 3.91933 59.3389 2.31076 57.0469 2.31076C54.7758 2.31076 53.2271 3.89917 53.2271 6.79446C53.2271 9.71077 54.7758 11.2977 57.0469 11.2977C59.3194 11.2983 60.8674 9.71077 60.8674 6.79446L60.8674 6.79446Z" id="Shape" fill="#FFFFFF" fill-rule="evenodd" stroke="none" />
        <path d="M66.5486 0.140002L69.3032 0.140002L69.3032 11.058L73.9276 11.058L73.9276 13.3891L66.5486 13.3891L66.5486 0.140002L66.5486 0.140002Z" id="Shape" fill="#FFFFFF" stroke="none" />
        <path d="M75.0753 6.79446C75.0753 2.77412 77.8494 0 81.8301 0C85.8103 0 88.5858 2.79362 88.5858 6.79446C88.5858 10.856 85.7906 13.5904 81.8301 13.5904C77.8494 13.5904 75.0753 10.8365 75.0753 6.79446L75.0753 6.79446ZM85.65 6.79446C85.65 3.91933 84.1223 2.31076 81.8302 2.31076C79.5591 2.31076 78.0099 3.89917 78.0099 6.79446C78.0099 9.71077 79.5591 11.2977 81.8302 11.2977C84.1028 11.2983 85.65 9.71077 85.65 6.79446L85.65 6.79446Z" id="Shape" fill="#FFFFFF" fill-rule="evenodd" stroke="none" />
        <path d="M91.3322 0.140002L93.825 0.140002L97.2213 4.94555C97.665 5.56976 97.9875 6.07144 98.2884 6.59396L98.3289 6.59396C98.5901 6.09093 98.9314 5.52808 99.3529 4.86471L102.429 0.140002L104.941 0.140002L104.941 13.3891L102.188 13.3891L102.188 6.27346C102.188 5.74959 102.188 5.14623 102.207 4.68505L102.188 4.68505C102.028 5.02707 101.504 5.7906 101.282 6.13127L98.9106 9.79077L97.6644 9.79077L94.9906 6.01211C94.7077 5.63043 94.3872 5.20824 94.1057 4.70522L94.0654 4.70522C94.0848 5.16774 94.0848 5.7711 94.0848 6.19329L94.0848 13.3898L91.3309 13.3898L91.3309 0.140002L91.3322 0.140002L91.3322 0.140002Z" id="Shape" fill="#FFFFFF" stroke="none" />
        <path d="M108.358 0.140676L112.519 0.140676C115.395 0.140676 116.681 1.80925 116.681 3.49715C116.681 4.5827 116.138 5.64858 115.112 6.17178L115.112 6.21211C116.701 6.6343 117.586 7.92102 117.586 9.40909C117.586 11.419 116.018 13.3904 112.882 13.3904L108.358 13.3904L108.358 0.140676L108.358 0.140676L108.358 0.140676ZM112.158 5.54826C113.365 5.54826 113.988 4.86405 113.988 4.00019C113.988 3.09531 113.385 2.39094 112.097 2.39094L111.111 2.39094L111.111 5.54758L112.158 5.54758L112.158 5.54826L112.158 5.54826ZM112.519 11.1375C114.049 11.1375 114.81 10.6157 114.81 9.4091C114.81 8.38355 114.047 7.79986 112.78 7.79986L111.111 7.79986L111.111 11.1375L112.519 11.1375L112.519 11.1375Z" id="Shape" fill="#FFFFFF" fill-rule="evenodd" stroke="none" />
        <path d="M130.03 0.0793276L132.26 0.0793276L137.669 13.3904L134.713 13.3904L133.427 10.1524L128.924 10.1524L127.697 13.3904L124.862 13.3904L130.03 0.0793276L130.03 0.0793276ZM132.603 7.94118L131.819 5.70975C131.498 4.74488 131.336 4.18068 131.217 3.73899L131.175 3.73899C131.074 4.20151 130.874 4.76437 130.511 5.72857L129.709 7.94118L132.603 7.94118L132.603 7.94118Z" id="Shape" fill="#FFFFFF" fill-rule="evenodd" stroke="none" />
        <path d="M123.007 0.139328L120.252 0.139328L120.252 13.3884L123.007 13.3884L123.007 0.139328L123.007 0.139328Z" id="Shape" fill="#FFFFFF" stroke="none" />
        <path d="M158.798 0.0793276L161.029 0.0793276L166.437 13.3904L163.481 13.3904L162.195 10.1524L157.691 10.1524L156.466 13.3904L153.63 13.3904L158.798 0.0793276L158.798 0.0793276ZM161.372 7.94118L160.587 5.70975C160.266 4.74488 160.103 4.18068 159.983 3.73899L159.943 3.73899C159.842 4.20151 159.642 4.76437 159.279 5.72857L158.476 7.94118L161.372 7.94118L161.372 7.94118Z" id="Shape" fill="#FFFFFF" fill-rule="evenodd" stroke="none" />
        <path d="M149.208 13.3904L143.66 6.13194C143.176 5.48892 142.755 4.88488 142.294 4.30186L142.254 4.30186C142.313 4.78539 142.313 5.60942 142.313 6.25245L142.313 13.3904L139.56 13.3904L139.56 0.140676L142.313 0.140676L147.64 7.11699C148.163 7.78035 148.585 8.36337 148.988 8.94573L149.029 8.94573C148.988 8.2422 148.988 7.35883 148.988 6.73463L148.988 0.140676L151.743 0.140676L151.743 13.3904L149.208 13.3904L149.208 13.3904Z" id="Shape" fill="#FFFFFF" stroke="none" />
      </g>
    </g>
  </g>
</svg>