<?xml version="1.0" standalone="no"?>
<!DOCTYPE svg PUBLIC "-//W3C//DTD SVG 20010904//EN"
 "http://www.w3.org/TR/2001/REC-SVG-20010904/DTD/svg10.dtd">
<svg version="1.0" xmlns="http://www.w3.org/2000/svg"
 width="512.000000pt" height="512.000000pt" viewBox="0 0 512.000000 512.000000"
 preserveAspectRatio="xMidYMid meet">
<metadata>
Created by potrace 1.14, written by Peter Selinger 2001-2017
</metadata>
<g transform="translate(0.000000,512.000000) scale(0.100000,-0.100000)"
fill="#000000" stroke="none">
<path d="M273 5098 c-116 -39 -220 -147 -258 -268 -11 -38 -13 -392 -12 -2285
l2 -2240 33 -70 c43 -92 125 -170 213 -205 l64 -25 2245 0 c2180 0 2246 1
2294 19 123 47 207 138 255 276 3 8 6 1028 6 2265 l0 2250 -32 67 c-44 93
-100 151 -191 196 l-76 37 -2240 2 -2241 2 -62 -21z"/>
</g>
</svg>
