<?xml version="1.0" encoding="utf-8"?>
<svg width="35px" height="35px" viewBox="0 0 35 35" version="1.1" xmlns:xlink="http://www.w3.org/1999/xlink" xmlns="http://www.w3.org/2000/svg">
  <defs>
    <path d="M0 17.5C0 7.83502 7.83502 0 17.5 0C27.165 0 35 7.83502 35 17.5C35 27.165 27.165 35 17.5 35C7.83502 35 0 27.165 0 17.5Z" id="path_1" />
    <clipPath id="clip_1">
      <use xlink:href="#path_1" />
    </clipPath>
  </defs>
  <g id="btnPause" fill-opacity="1">
    <path d="M0 0L35 0L35 35L0 35L0 0Z" id="btnPause" fill="none" fill-rule="evenodd" stroke="none" />
    <g id="btnPause">
      <g id="Oval-Copy">
        <g clip-path="url(#clip_1)">
          <use xlink:href="#path_1" fill="none" stroke="#C9E3BC" stroke-width="6" />
        </g>
      </g>
      <g id="Group-99" transform="translate(11 8.5)">
        <path d="M1.999 0L2.001 0Q2.0992 0 2.19694 0.00962573Q2.29467 0.0192515 2.39099 0.0384102Q2.4873 0.057569 2.58128 0.0860763Q2.67525 0.114584 2.76598 0.152165Q2.85671 0.189746 2.94332 0.236039Q3.02993 0.282333 3.11158 0.336892Q3.19324 0.391452 3.26915 0.453752Q3.34507 0.516052 3.41451 0.585494Q3.48395 0.654935 3.54625 0.730848Q3.60855 0.806761 3.66311 0.888415Q3.71767 0.970069 3.76396 1.05668Q3.81025 1.14329 3.84783 1.23402Q3.88542 1.32474 3.91392 1.41872Q3.94243 1.5127 3.96159 1.60901Q3.98075 1.70533 3.99037 1.80306Q4 1.9008 4 1.999L4 16.001Q4 16.0992 3.99037 16.1969Q3.98075 16.2947 3.96159 16.391Q3.94243 16.4873 3.91392 16.5813Q3.88542 16.6753 3.84783 16.766Q3.81025 16.8567 3.76396 16.9433Q3.71767 17.0299 3.66311 17.1116Q3.60855 17.1932 3.54625 17.2691Q3.48395 17.3451 3.41451 17.4145Q3.34507 17.4839 3.26915 17.5462Q3.19324 17.6085 3.11158 17.6631Q3.02993 17.7177 2.94332 17.764Q2.85671 17.8103 2.76598 17.8478Q2.67525 17.8854 2.58128 17.9139Q2.4873 17.9424 2.39099 17.9616Q2.29467 17.9807 2.19694 17.9904Q2.0992 18 2.001 18L1.999 18Q1.9008 18 1.80306 17.9904Q1.70533 17.9807 1.60901 17.9616Q1.5127 17.9424 1.41872 17.9139Q1.32474 17.8854 1.23402 17.8478Q1.14329 17.8103 1.05668 17.764Q0.970069 17.7177 0.888415 17.6631Q0.806761 17.6085 0.730848 17.5462Q0.654935 17.4839 0.585494 17.4145Q0.516052 17.3451 0.453752 17.2691Q0.391452 17.1932 0.336892 17.1116Q0.282333 17.0299 0.236039 16.9433Q0.189746 16.8567 0.152165 16.766Q0.114584 16.6753 0.0860763 16.5813Q0.057569 16.4873 0.0384102 16.391Q0.0192515 16.2947 0.00962573 16.1969Q0 16.0992 0 16.001L0 1.999Q0 1.9008 0.00962573 1.80306Q0.0192515 1.70533 0.0384102 1.60901Q0.057569 1.5127 0.0860763 1.41872Q0.114584 1.32474 0.152165 1.23402Q0.189746 1.14329 0.236039 1.05668Q0.282333 0.970069 0.336892 0.888415Q0.391452 0.806761 0.453752 0.730848Q0.516052 0.654935 0.585494 0.585494Q0.654935 0.516052 0.730848 0.453752Q0.806761 0.391452 0.888415 0.336892Q0.970069 0.282333 1.05668 0.236039Q1.14329 0.189746 1.23402 0.152165Q1.32474 0.114584 1.41872 0.0860763Q1.5127 0.057569 1.60901 0.0384102Q1.70533 0.0192515 1.80306 0.00962573Q1.9008 0 1.999 0L1.999 0Z" id="Rectángulo-Copy-6" fill="#C9E3BC" fill-rule="evenodd" stroke="none" />
        <path d="M10.999 0L11.001 0Q11.0992 0 11.1969 0.00962573Q11.2947 0.0192515 11.391 0.0384102Q11.4873 0.057569 11.5813 0.0860763Q11.6753 0.114584 11.766 0.152165Q11.8567 0.189746 11.9433 0.236039Q12.0299 0.282333 12.1116 0.336892Q12.1932 0.391452 12.2692 0.453752Q12.3451 0.516052 12.4145 0.585494Q12.4839 0.654935 12.5462 0.730848Q12.6085 0.806761 12.6631 0.888415Q12.7177 0.970069 12.764 1.05668Q12.8103 1.14329 12.8478 1.23402Q12.8854 1.32474 12.9139 1.41872Q12.9424 1.5127 12.9616 1.60901Q12.9807 1.70533 12.9904 1.80306Q13 1.9008 13 1.999L13 16.001Q13 16.0992 12.9904 16.1969Q12.9807 16.2947 12.9616 16.391Q12.9424 16.4873 12.9139 16.5813Q12.8854 16.6753 12.8478 16.766Q12.8103 16.8567 12.764 16.9433Q12.7177 17.0299 12.6631 17.1116Q12.6085 17.1932 12.5462 17.2691Q12.4839 17.3451 12.4145 17.4145Q12.3451 17.4839 12.2692 17.5462Q12.1932 17.6085 12.1116 17.6631Q12.0299 17.7177 11.9433 17.764Q11.8567 17.8103 11.766 17.8478Q11.6753 17.8854 11.5813 17.9139Q11.4873 17.9424 11.391 17.9616Q11.2947 17.9807 11.1969 17.9904Q11.0992 18 11.001 18L10.999 18Q10.9008 18 10.8031 17.9904Q10.7053 17.9807 10.609 17.9616Q10.5127 17.9424 10.4187 17.9139Q10.3247 17.8854 10.234 17.8478Q10.1433 17.8103 10.0567 17.764Q9.97007 17.7177 9.88841 17.6631Q9.80676 17.6085 9.73085 17.5462Q9.65493 17.4839 9.58549 17.4145Q9.51605 17.3451 9.45375 17.2691Q9.39145 17.1932 9.33689 17.1116Q9.28233 17.0299 9.23604 16.9433Q9.18975 16.8567 9.15216 16.766Q9.11458 16.6753 9.08607 16.5813Q9.05757 16.4873 9.03841 16.391Q9.01925 16.2947 9.00963 16.1969Q9 16.0992 9 16.001L9 1.999Q9 1.9008 9.00963 1.80306Q9.01925 1.70533 9.03841 1.60901Q9.05757 1.5127 9.08607 1.41872Q9.11458 1.32474 9.15216 1.23402Q9.18975 1.14329 9.23604 1.05668Q9.28233 0.970069 9.33689 0.888415Q9.39145 0.806761 9.45375 0.730848Q9.51605 0.654935 9.58549 0.585494Q9.65493 0.516052 9.73085 0.453752Q9.80676 0.391452 9.88841 0.336892Q9.97007 0.282333 10.0567 0.236039Q10.1433 0.189746 10.234 0.152165Q10.3247 0.114584 10.4187 0.0860763Q10.5127 0.057569 10.609 0.0384102Q10.7053 0.0192515 10.8031 0.00962573Q10.9008 0 10.999 0Z" id="Rectángulo-Copy-7" fill="#C9E3BC" fill-rule="evenodd" stroke="none" />
      </g>
    </g>
  </g>
</svg>