<?xml version="1.0" encoding="utf-8"?>
<svg width="116.94861px" height="100px" viewBox="0 0 116.94861 100" version="1.1" xmlns:xlink="http://www.w3.org/1999/xlink" xmlns="http://www.w3.org/2000/svg">
  <g id="CIIS" fill-opacity="1">
    <path d="M0 0L116.949 0L116.949 100L0 100L0 0Z" id="CIIS" fill="none" fill-rule="evenodd" stroke="none" />
    <g id="CIIS">
      <path d="M61.0288 24.9951C59.7537 24.0918 58.7506 23.1731 57.984 21.3434C58.5957 22.1545 59.6361 22.6236 60.7714 22.4016C61.858 22.1891 62.7339 21.3135 62.9449 20.2264C63.2917 18.4406 61.9333 16.8777 60.2098 16.8777C58.868 16.8777 57.7502 17.8258 57.4836 19.0882C57.3851 19.0799 57.5152 19.0909 57.4167 19.0826C57.13 16.5131 58.0477 15.1231 58.6316 14.1467C60.1845 11.5502 62.6431 8.89343 63.4061 6.67267C64.2317 4.26999 63.8711 2.45825 63.8711 2.45825C63.8711 2.45825 62.8383 5.90701 60.9153 7.92846C58.2458 10.735 54.2292 15.1652 54.4703 18.8502C54.6337 21.3455 55.3353 23.1799 56.977 24.6345C58.9743 26.4035 62.8827 27.5617 65.7144 26.4084C65.9917 26.2953 63.1246 26.4801 61.0288 24.9951" id="Shape" fill="#F9ED5A" stroke="none" />
      <path d="M75.8093 16.5124C74.5804 11.6314 69.9032 7.03291 68.7656 5.66139C65.7994 2.0848 65.1592 0 65.1592 0C65.1592 0 64.4381 1.0285 64.9262 3.00022C65.4139 4.97043 67.8056 8.05895 69.5199 10.8561C71.312 13.7801 73.1759 17.6706 72.5807 21.084C72.516 21.4548 72.3108 22.1004 71.8984 22.8513C71.8511 21.0263 70.3601 19.5604 68.5238 19.5604C66.6576 19.5604 65.1448 21.0732 65.1448 22.9394C65.1448 24.7986 66.6464 26.3061 68.5032 26.3174C67.833 26.7153 67.0622 27.0674 66.1774 27.3425C59.7975 29.3277 55.4055 24.3323 55.4055 24.3323C55.4055 24.3323 55.7839 27.2729 61.0151 30.0222C61.2127 30.1261 66.3788 31.9089 70.5636 29.4795C75.8464 26.4126 77.1024 21.6473 75.8093 16.5124" id="Shape-2" fill="#F9A050" stroke="none" />
      <path d="M70.948 60.5636L66.5623 62.7817L66.5623 33.8484L70.948 35.5365L70.948 60.5636Z" id="Polygon" fill="#00A4B7" fill-rule="evenodd" stroke="none" />
      <path d="M58.9985 60.5634L63.3843 62.7813L63.3843 33.8484L58.9985 35.5361L58.9985 60.5634Z" id="Polygon-2" fill="#00A4B7" fill-rule="evenodd" stroke="none" />
      <path d="M74.9453 59.6168C75.3401 54.1292 79.3422 52.5324 79.221 52.6684C76.9686 55.1921 76.4473 58.5996 76.6479 60.4639C76.8665 62.4971 77.315 65.6164 81.0251 68.2163C83.577 70.0046 88.5945 71.389 91.2288 71.5549C93.9916 71.729 96.5652 71.6691 99.2687 71.0044C101.676 70.4123 103.83 69.3471 105.535 67.4985C107.138 65.7596 107.778 63.6706 107.705 61.3408C107.641 59.297 107.058 57.4353 105.709 55.8562C104.669 54.6386 103.342 53.8069 101.934 53.0957C99.1469 51.6871 96.1806 50.7647 93.1902 49.9098C89.9177 48.9747 86.692 47.9122 83.6742 46.3077C81.3986 45.0982 79.4023 43.5561 77.9873 41.3569C76.4235 38.9269 75.9619 36.2462 76.2747 33.4175C76.74 29.2124 79.1123 26.2851 82.6134 24.1521C85.0998 22.6372 87.8308 21.8546 90.7088 21.5465C93.5597 21.2415 96.3984 21.2918 99.195 21.976C103.534 23.0379 107.156 25.1857 109.609 29.0344C111.118 31.4013 111.828 34.0094 111.878 36.8061C111.878 37.5735 111.512 40.1496 110.005 40.5537C108.539 40.9472 106.237 39.6182 104.761 36.7528C103.136 33.5241 104.992 29.7628 104.992 29.7628C103.606 28.022 101.676 26.7855 99.296 25.9837C96.6401 25.0889 93.8919 25.0535 91.1358 25.3449C89.1017 25.5599 87.1529 26.0921 85.375 27.1364C83.0892 28.4794 81.3977 30.3118 80.8784 32.9926C80.2228 36.3755 81.1473 39.2343 83.908 41.3949C85.891 42.9476 88.178 43.9315 90.5436 44.71C93.0319 45.5292 95.5662 46.2084 98.0627 47.0036C100.803 47.877 103.49 48.8927 105.92 50.4758C108.347 52.0578 110.405 54.0172 111.349 56.8153C112.962 61.6019 112.528 66.1192 109.008 70.0031C106.938 72.2867 104.289 73.7011 101.324 74.4452C95.1407 75.9973 89.0665 75.7097 83.2172 73.0198C79.4184 71.2731 76.6578 68.5083 75.2878 64.4807C74.7736 62.9706 74.8645 60.739 74.9453 59.6168" id="Shape-3" fill="#00A4B7" stroke="none" />
      <path d="M19.5248 47.1872L24.3818 48.7909L24.3818 50.1231L27.9612 52.2854L25.7236 56.2472L21.5323 59.7319L20.4889 62.7909L21.4285 66.0842L17.5144 62.0273L17.7343 55.7158L15.4575 52.882L17.1364 49.0957L15.7599 47.714L14.7206 44.0769L11.5349 44.0769L17.8237 36.4958L32.1617 36.4958L26.7321 41.962L25.1743 46.1895L25.0087 42.2065C25.0087 42.2065 21.5206 41.5829 20.5626 41.5829C19.6048 41.5829 17.6303 43.038 17.6303 43.038L18.4617 45.7396L16.0715 45.5318L15.9936 47.5064L19.5248 47.1872L19.5248 47.1872Z" id="Shape-4" fill="#C9E3BC" stroke="none" />
      <path d="M95.4594 98.1955L90.7666 100L90.7666 33.8484L95.4594 35.6528L95.4594 98.1955Z" id="Polygon-3" fill="#C9E3BC" fill-rule="evenodd" stroke="none" />
      <path d="M31.8548 71.1017C19.3698 71.1017 9.24855 60.9809 9.24855 48.4955C9.24855 36.0106 19.3698 25.8891 31.8548 25.8891C39.8844 25.8891 46.9311 30.0793 50.9415 36.3886L55.2329 34.7383C50.5151 26.7387 41.8143 21.368 31.8548 21.368C16.8728 21.368 4.72742 33.5135 4.72742 48.4955C4.72742 63.4775 16.8728 75.6229 31.8548 75.6229C41.813 75.6229 50.5126 70.2538 55.231 62.2559L51.1909 60.2127C47.2267 66.7408 40.0499 71.1017 31.8548 71.1017" id="Shape-5" fill="#00A4B7" stroke="none" />
      <path d="M31.7277 46.6515L29.499 51.089L31.7277 53.5785L34.0905 53.5159L35.2737 54.3094L34.7565 57.5297L36.7301 62.8176L39.9463 60.4981L41.1501 55.8862L44.3089 52.7784L41.1972 52.1028L38.842 48.7L41.8938 51.089L44.0442 49.3813L42.5779 48.8163L41.8938 47.6187L45.0485 48.4755L48.298 51.0355L49.8253 49.0419L51.3143 50.2094L53.0392 47.3339L54.3181 47.9623L52.8321 43.2379L55.2443 38.1977L48.2471 41.0234L45.7015 38.1977L42.102 39.6645L39.4395 38.6182L36.9151 39.6466L33.3795 41.3844L33.9271 43.5439L32.8273 44.2401L31.7277 44.2401L31.4244 46.0059L32.7725 46.0059L35.0978 44.9216L35.9469 45.6882L35.9469 44.6113L39.5365 46.2012L37.2811 47.7569L34.6013 47.0064L31.7277 46.6515Z" id="Polygon-4" fill="#C9E3BC" fill-rule="evenodd" stroke="none" />
      <path d="M95.4761 50.4304L95.4952 46.062C93.927 45.5968 92.3212 45.1334 90.7666 44.627L90.7666 49.0282C91.5752 49.284 92.4061 49.5276 93.2228 49.7609C93.9763 49.9763 94.7282 50.1997 95.4761 50.4304" id="Shape-6" fill="#00A4B7" stroke="none" />
      <path d="M114.163 86.4251L2.11165 86.4251L0 80.9337L116.949 80.9337L114.163 86.4251Z" id="Polygon-5" fill="#C9E3BC" fill-rule="evenodd" stroke="none" />
    </g>
  </g>
</svg>