<?xml version="1.0" encoding="utf-8"?>
<svg width="200px" height="116.35425px" viewBox="0 0 200 116.35425" version="1.1" xmlns:xlink="http://www.w3.org/1999/xlink" xmlns="http://www.w3.org/2000/svg">
  <g id="enfermeria-usco" fill-opacity="1">
    <path d="M0 0L200 0L200 116.354L0 116.354L0 0Z" id="enfermeria-usco" fill="none" fill-rule="evenodd" stroke="none" />
    <g id="Group-31">
      <g id="Group-103-Copy-2" transform="translate(19.801489 0)">
        <g id="Group-96" transform="translate(46.596424 64.8107)">
          <path d="M5.38861 1.9088L5.3789 3.6829C5.3789 3.95218 5.36919 4.21174 5.35292 4.44472C5.29825 5.24284 5.01972 5.78094 4.47326 6.157C4.02506 6.46211 3.43245 6.62281 2.72589 6.62281C2.22423 6.62281 1.77544 6.55112 1.38177 6.39058C1.10398 6.28185 0.843065 6.13878 0.655187 5.92401C0.287492 5.52003 0.15293 5.00941 0.162041 4.11288L0.179515 1.89969C0.188029 1.08381 0.126199 0.591408 0 0.205646L0.225812 0.215349L0.807971 0.215349L1.09487 0.205646L1.04155 0.860683C1.03109 1.01287 1.03109 1.33561 1.02392 1.82875L1.00451 3.75504C0.996 4.58063 1.04215 4.8396 1.18403 5.17205C1.41761 5.70089 2.04532 6.03274 2.78772 6.03274C3.2274 6.03274 3.62243 5.93312 3.9365 5.7542C4.18771 5.60202 4.38484 5.38666 4.49223 5.14472C4.64441 4.78554 4.68085 4.40948 4.68922 3.5228L4.69907 1.9094C4.70878 1.09351 4.64501 0.600518 4.51955 0.214607L4.75239 0.223713L5.25389 0.223713L5.50704 0.214607C5.40683 0.851572 5.38861 1.03826 5.38861 1.9088L5.38861 1.9088Z" id="Shape" fill="#00A4B7" stroke="none" />
          <path d="M13.4283 0.608285C13.4022 0.824244 13.3834 1.039 13.3834 1.26213C13.3834 1.44224 13.3749 1.80083 13.3749 2.33878L13.3651 4.86619C13.3651 5.00941 13.3651 5.18892 13.3749 5.41265C13.4022 5.87921 13.4107 6.04902 13.4549 6.55127L13.116 6.55127L12.7477 6.55964C12.4075 6.04051 12.2651 5.84277 11.9677 5.46671L9.3238 2.12341L8.60694 1.19253L8.62576 1.64924L8.61605 4.64306C8.61605 5.38666 8.68759 6.05932 8.82155 6.4542L8.58871 6.43598L8.07795 6.43598L7.81838 6.4542C7.85482 6.27409 7.87245 6.14072 7.88021 6.05021C7.90829 5.84397 7.93428 5.62935 7.93428 5.40488L7.93428 4.63335L7.94398 1.89969C7.94398 1.08381 7.89977 0.599771 7.77357 0.214607L8.23864 0.232824L9.03825 0.205646C9.35114 0.744192 9.48585 0.941332 9.83517 1.38892L12.2104 4.44533L12.7126 5.08229L12.6853 4.44533L12.6938 2.33101C12.6938 1.43448 12.6138 0.636812 12.4713 0.214607L12.6853 0.22446L13.2331 0.22446L13.4927 0.214607C13.4549 0.393525 13.438 0.519127 13.4283 0.608285L13.4283 0.608285Z" id="Shape" fill="#00A4B7" stroke="none" />
          <path d="M16.8002 6.43482L16.1464 6.43482L15.8947 6.45229L15.948 6.04965C16.0014 5.66389 16.0118 5.57413 16.0118 4.74913L16.0209 1.89839C16.0209 1.10072 15.9663 0.590099 15.842 0.204338L16.0657 0.214046L16.648 0.214046L16.9349 0.204338L16.8816 0.859374C16.8725 1.01171 16.864 1.3343 16.864 1.82744L16.8535 4.75899C16.8535 5.57413 16.9089 6.06653 17.0338 6.45229L16.8002 6.43482L16.8002 6.43482Z" id="Shape" fill="#00A4B7" stroke="none" />
          <path d="M24.3534 0.672077L24.1093 1.1827L23.8602 1.73842L22.3443 5.38608C22.0764 6.03142 22.0406 6.14014 21.9501 6.58773L21.762 6.56952L21.3679 6.56952L21.1428 6.58773C21.0894 6.25648 21.0719 6.15762 20.9112 5.72824L19.4506 1.77471C19.1455 0.941352 18.9217 0.51989 18.7331 0.214773L18.9574 0.224481L19.6659 0.224481L19.979 0.204919C19.9965 0.36696 20.0042 0.491814 20.0218 0.573211C20.0596 0.797679 20.1754 1.16522 20.364 1.70257L21.3497 4.58005L21.6632 5.5656L22.0842 4.49866L23.0515 1.97125C23.2948 1.34339 23.4099 0.913422 23.4099 0.573211C23.4099 0.447609 23.4008 0.375474 23.3489 0.214773L23.6338 0.224481L24.3065 0.224481L24.5654 0.204919L24.5829 0.241358C24.4776 0.430135 24.3962 0.573211 24.3534 0.672077L24.3534 0.672077Z" id="Shape" fill="#00A4B7" stroke="none" />
          <path d="M30.0508 5.81678L29.97 6.16536L29.9069 6.4881C29.7443 6.47959 29.6278 6.47063 29.5563 6.47063C29.5204 6.47063 29.1628 6.46212 28.4738 6.45301L27.2714 6.43538L26.3834 6.45301L26.4381 6.05021C26.4915 5.65474 26.5006 5.57544 26.5006 4.74984L26.5097 1.8991C26.5097 1.08321 26.4654 0.599771 26.3392 0.21401L26.8141 0.222519L28.06 0.222519C29.0736 0.222519 29.1725 0.21401 29.7722 0.196535L29.6552 0.483431L29.5381 0.850378L29.4762 1.0747L29.3677 1.09232C29.2076 0.912805 29.1263 0.858741 28.9121 0.795717C28.6689 0.724029 28.3742 0.688337 28.0412 0.688337C27.8987 0.688337 27.6573 0.697448 27.3879 0.714321L27.3509 1.79889L27.3509 2.86582L28.5336 2.86582C28.9116 2.86582 29.0722 2.8482 29.5016 2.81176L29.583 2.8833L29.4568 3.16108L29.3396 3.46695C29.1614 3.44873 29.0267 3.43962 28.9375 3.43962C28.6324 3.42199 28.3455 3.41229 28.0586 3.41229C27.8167 3.41229 27.6996 3.41229 27.3412 3.4311L27.3412 4.77523C27.3412 4.88246 27.3503 5.01718 27.3586 5.18698C27.3769 5.50972 27.4127 5.64429 27.5201 5.76018C27.6638 5.90326 27.8694 5.94881 28.3905 5.94881C28.721 5.94881 28.9806 5.93118 29.2238 5.88563C29.339 5.86816 29.4652 5.83232 29.5823 5.7784C29.7424 5.70612 29.8321 5.64369 30.0116 5.47329L30.1287 5.5272L30.0508 5.81678L30.0508 5.81678Z" id="Shape" fill="#00A4B7" stroke="none" />
          <path d="M36.9554 6.45228L36.7232 6.46214L36.042 6.47961L35.6646 6.50574L35.5594 6.34504L35.4409 6.13939C35.3967 6.05023 35.3252 5.94166 35.2438 5.80695C34.8664 5.19731 34.4722 4.63263 33.9973 3.96982C33.5953 3.40514 33.4249 3.26132 33.2095 3.03819C33.6389 3.02908 33.9082 3.01086 34.132 2.9211C34.5626 2.75966 34.8229 2.28473 34.8229 1.76441C34.8229 1.07472 34.374 0.62578 33.6213 0.62578C33.4606 0.62578 33.3162 0.635638 32.9851 0.679844C32.9662 1.05725 32.9577 1.147 32.9577 1.82743L32.9492 4.75897C32.9492 5.57471 33.0033 6.06786 33.1275 6.45228L32.8959 6.4354L32.2407 6.4354L31.989 6.45228C32.0879 5.81606 32.1061 5.6007 32.1061 4.74986L32.1158 1.89897C32.1158 1.08323 32.071 0.599792 31.9441 0.21403L32.4113 0.232247L33.2628 0.204919C33.4957 0.195808 33.7027 0.195808 33.8985 0.195808C34.6609 0.195808 34.9393 0.267347 35.2438 0.508692C35.5392 0.751382 35.7011 1.15417 35.7011 1.59325C35.7011 1.96931 35.5756 2.36418 35.3414 2.61464C35.1449 2.82224 34.8939 2.99189 34.4637 3.21517L34.6694 3.49295L35.521 4.71208C35.9152 5.28587 36.3094 5.77902 36.5788 6.05606C36.7225 6.19988 36.7856 6.25394 36.9638 6.38851L36.9554 6.45228L36.9554 6.45228Z" id="Shape" fill="#00A4B7" stroke="none" />
          <path d="M39.8451 6.65852C39.7366 6.65852 39.6207 6.65015 39.4951 6.64164C39.1269 6.6052 38.9565 6.5695 38.5173 6.40806L38.6156 6.09458L38.723 5.68267L38.7782 5.45895L38.9025 5.43162C39.0651 5.68267 39.1458 5.78155 39.3142 5.88893C39.54 6.04111 39.8529 6.13102 40.1223 6.13102C40.8483 6.13102 41.3851 5.64698 41.3851 5.01061C41.3851 4.75956 41.3037 4.51746 41.1528 4.32959C40.9648 4.0966 40.7221 3.91769 40.1757 3.62168C39.3598 3.18319 39.2427 3.10255 39.0013 2.85986C38.7321 2.58147 38.5799 2.1963 38.5799 1.78381C38.5799 0.716867 39.4235 0 40.6961 0C40.8034 0 40.9102 0.00970796 41.0187 0.0182218C41.3674 0.0449529 41.5555 0.0905028 42.0141 0.24269L41.9139 0.493146L41.7805 0.914007L41.7357 1.10204L41.6193 1.11966C41.2965 0.680428 40.9739 0.519877 40.4449 0.519877C39.7808 0.519877 39.3423 0.904896 39.3423 1.47809C39.3423 1.74811 39.4489 1.98946 39.6474 2.16898C39.8529 2.34924 40.0677 2.49171 40.6512 2.80594C41.3857 3.20082 41.6095 3.36152 41.8521 3.66588C42.0682 3.94367 42.1748 4.28523 42.1748 4.65218C42.1748 5.81679 41.2075 6.65852 39.8451 6.65852L39.8451 6.65852Z" id="Shape" fill="#00A4B7" stroke="none" />
          <path d="M45.0883 6.43482L44.4345 6.43482L44.1827 6.45229L44.236 6.04965C44.29 5.66389 44.2997 5.57413 44.2997 4.74913L44.3102 1.89839C44.3102 1.10072 44.2549 0.590099 44.1299 0.204338L44.3538 0.214046L44.9367 0.214046L45.2229 0.204338L45.1695 0.859374C45.1612 1.01171 45.1521 1.3343 45.1521 1.82744L45.1422 4.75899C45.1422 5.57413 45.1976 6.06653 45.3219 6.45229L45.0883 6.43482L45.0883 6.43482Z" id="Shape" fill="#00A4B7" stroke="none" />
          <path d="M52.2632 5.70803C51.61 6.23821 50.8476 6.46208 49.7013 6.46208C49.486 6.46208 49.1184 6.43475 48.5797 6.43475L47.9259 6.43475L47.6741 6.45238L47.7281 6.04958C47.7815 5.66382 47.7912 5.57406 47.7912 4.74907L47.8016 1.93476C47.8016 1.11828 47.7476 0.599142 47.6214 0.213376C47.8908 0.223084 47.7384 0.223084 48.4372 0.223084C48.8054 0.223084 49.3955 0.213376 49.7638 0.213376C50.076 0.213376 50.3467 0.213376 50.5704 0.223084C51.3056 0.239961 51.7544 0.330468 52.1487 0.536117C52.9821 0.974603 53.4752 1.92565 53.4752 3.06413C53.4752 4.13047 53.0445 5.09003 52.2632 5.70803L52.2632 5.70803ZM51.8969 1.38831C51.4487 0.886656 50.8937 0.697433 49.8086 0.697433C49.5224 0.697433 49.2348 0.716995 48.6708 0.742983L48.6428 1.82739L48.635 4.73997C48.635 4.85646 48.6428 5.00088 48.6526 5.15307C48.6701 5.47581 48.7059 5.61052 48.8126 5.72701C48.8763 5.78869 48.9473 5.83424 49.0376 5.86097C49.2257 5.91369 49.5575 5.94162 49.888 5.94162C51.5288 5.94162 52.5248 4.94622 52.5248 3.28861C52.5248 2.51828 52.301 1.84562 51.8969 1.38831L51.8969 1.38831Z" id="Shape" fill="#00A4B7" fill-rule="evenodd" stroke="none" />
          <path d="M60.1025 6.43479L59.5287 6.43479L59.1345 6.46212L59.0726 6.08412C59.018 5.79782 58.9282 5.52004 58.7487 5.0009L58.4449 4.11363L57.8971 4.09466L56.8315 4.09466L56.2037 4.11363L55.8991 4.92937C55.7287 5.39518 55.6384 5.77124 55.6384 6.04051C55.6384 6.17522 55.6481 6.26439 55.7014 6.45241L55.423 6.43479L54.805 6.43479L54.5635 6.45241L54.5272 6.39835L54.7418 5.99436C54.805 5.87787 54.8863 5.70806 54.9929 5.48374C55.1003 5.25211 55.1809 5.06213 55.2363 4.92877L56.7228 1.27065C56.9387 0.751367 56.9837 0.59918 57.0989 0.150244L57.2875 0.124256L57.6824 0.0604841L57.8789 0.024788C57.9686 0.401443 58.0051 0.543922 58.158 0.938799L59.6452 4.89233C59.7616 5.21492 59.9496 5.63593 60.1656 6.0659C60.245 6.2272 60.2808 6.29037 60.3797 6.45107L60.1025 6.43479L60.1025 6.43479ZM57.3689 1.02077L56.3931 3.59373L56.9219 3.61195L57.7911 3.61195L58.2562 3.59373L57.3689 1.02077L57.3689 1.02077Z" id="Shape" fill="#00A4B7" fill-rule="evenodd" stroke="none" />
          <path d="M66.7774 5.70803C66.1223 6.23821 65.3618 6.46208 64.2142 6.46208C63.9988 6.46208 63.6319 6.43475 63.0933 6.43475L62.4401 6.43475L62.1871 6.45238L62.2418 6.04958C62.2957 5.66382 62.3054 5.57406 62.3054 4.74907L62.3139 1.93476C62.3139 1.11828 62.2606 0.599142 62.1356 0.213376C62.4043 0.223084 62.2527 0.223084 62.9495 0.223084C63.3177 0.223084 63.9097 0.213376 64.2774 0.213376C64.5902 0.213376 64.8603 0.213376 65.0834 0.223084C65.8179 0.239961 66.2667 0.330468 66.661 0.536117C67.4943 0.974603 67.9875 1.92565 67.9875 3.06413C67.9869 4.13047 67.5575 5.09003 66.7774 5.70803L66.7774 5.70803ZM66.4105 1.38831C65.9615 0.886656 65.4054 0.697433 64.3208 0.697433C64.0339 0.697433 63.7478 0.716995 63.1824 0.742983L63.155 1.82739L63.1467 4.73997C63.1467 4.85646 63.155 5.00088 63.1655 5.15307C63.1817 5.47581 63.2188 5.61052 63.3262 5.72701C63.388 5.78869 63.4609 5.83424 63.5499 5.86097C63.7379 5.91369 64.0704 5.94162 64.4016 5.94162C66.0424 5.94162 67.037 4.94622 67.037 3.28861C67.037 2.51828 66.8125 1.84562 66.4105 1.38831L66.4105 1.38831Z" id="Shape" fill="#00A4B7" fill-rule="evenodd" stroke="none" />
        </g>
        <g id="Group-97" transform="translate(0 78.550674)">
          <path d="M1.0124 9.98523C1.8299 10.5302 2.80383 10.9396 3.93228 10.9396C4.92578 10.9396 5.91798 10.5895 5.91798 9.61559C5.91798 7.29997 0.428956 7.59209 0.428956 3.65976C0.428956 1.73273 1.96614 0 4.73087 0C6.09401 0 7.24199 0.311539 7.98061 0.681918L7.98061 3.07566C6.87172 2.53129 5.8391 2.23797 4.80909 2.23797C3.9903 2.23797 3.27126 2.53129 3.27126 3.42573C3.27126 5.60636 8.75963 5.29541 8.75963 9.38216C8.75963 11.718 6.71658 13.1587 4.03007 13.1587C2.53069 13.1587 1.03196 12.75 0 11.9905L1.0124 9.98523L1.0124 9.98523Z" id="Shape" fill="#00A4B7" stroke="none" />
          <path d="M11.7855 10.7643C11.4152 10.0628 11.2203 9.16849 11.2203 8.11632L11.2203 0.135644L13.8866 0.135644L13.8866 7.96116C13.8866 8.62352 14.0229 9.20686 14.2569 9.65476C14.7054 10.4918 15.5607 10.9396 16.7484 10.9396C17.916 10.9396 18.7733 10.4918 19.2212 9.65476C19.474 9.20686 19.5901 8.62352 19.5901 7.94219L19.5901 0.135644L22.2577 0.135644L22.2577 8.11632C22.2577 9.16774 22.0615 10.0622 21.6932 10.7643C20.8555 12.3986 19.1038 13.1582 16.7296 13.1582C14.3547 13.1582 12.6226 12.3986 11.7855 10.7643L11.7855 10.7643Z" id="Shape" fill="#00A4B7" stroke="none" />
          <path d="M25.4711 0.135644L29.3044 0.135644C30.455 0.135644 31.3103 0.31097 31.9915 0.621917C33.4714 1.26411 34.0353 2.491 34.0353 3.8541C34.0353 5.52694 32.9849 6.69513 31.5436 7.14362L31.5436 7.18276C31.9328 7.39722 32.4986 8.09736 33.178 9.28513L35.2614 12.9639L32.2053 12.9639L30.5129 9.88879C29.8709 8.68147 29.4216 8.19518 29.1107 8.11693L28.1381 8.11693L28.1381 12.9639L25.4718 12.9639L25.4718 0.135644L25.4711 0.135644L25.4711 0.135644ZM29.1291 5.95584C29.7132 5.95584 30.0827 5.85936 30.4153 5.68328C30.9205 5.37174 31.2712 4.84634 31.2712 4.12663C31.2712 3.4453 30.9595 2.86061 30.3957 2.56848C30.1043 2.39375 29.7339 2.29608 29.1492 2.29608L28.1374 2.29608L28.1374 5.95524L29.1291 5.95524L29.1291 5.95584L29.1291 5.95584Z" id="Shape" fill="#00A4B7" fill-rule="evenodd" stroke="none" />
          <path d="M47.3111 12.1072C45.8124 12.9259 44.3716 13.158 43.0483 13.158C38.7457 13.158 36.449 10.4337 36.449 6.67614C36.449 2.99681 39.1369 0 43.3782 0C44.8006 0 45.9682 0.25299 46.8045 0.623825L46.8045 3.07566C45.7746 2.53009 44.6643 2.23932 43.4382 2.23932C40.635 2.23932 39.2914 4.28299 39.2914 6.63835C39.2914 9.16904 40.869 10.9396 43.3788 10.9396C44.6839 10.9396 45.639 10.5498 46.5726 10.0061L47.3111 12.1072L47.3111 12.1072Z" id="Shape" fill="#00A4B7" stroke="none" />
          <path d="M48.6925 6.57831C48.6925 2.68587 51.3777 0 55.2318 0C59.0859 0 61.7729 2.70468 61.7729 6.57831C61.7729 10.5106 59.0669 13.158 55.2318 13.158C51.3777 13.158 48.6925 10.4918 48.6925 6.57831L48.6925 6.57831ZM58.9307 6.5783C58.9307 3.79476 57.4508 2.23737 55.2318 2.23737C53.0328 2.23737 51.5335 3.7752 51.5335 6.5783C51.5335 9.40172 53.0328 10.9384 55.2318 10.9384C57.432 10.939 58.9307 9.40172 58.9307 6.5783L58.9307 6.5783Z" id="Shape" fill="#00A4B7" fill-rule="evenodd" stroke="none" />
          <path d="M64.4311 0.135644L67.098 0.135644L67.098 10.7063L71.5753 10.7063L71.5753 12.9631L64.4311 12.9631L64.4311 0.135644L64.4311 0.135644Z" id="Shape" fill="#00A4B7" stroke="none" />
          <path d="M72.6864 6.57831C72.6864 2.68587 75.3722 0 79.2263 0C83.0798 0 85.7668 2.70468 85.7668 6.57831C85.7668 10.5106 83.0608 13.158 79.2263 13.158C75.3722 13.158 72.6864 10.4918 72.6864 6.57831L72.6864 6.57831ZM82.9246 6.5783C82.9246 3.79476 81.4454 2.23737 79.2263 2.23737C77.0275 2.23737 75.5274 3.7752 75.5274 6.5783C75.5274 9.40172 77.0275 10.9384 79.2263 10.9384C81.4265 10.939 82.9246 9.40172 82.9246 6.5783L82.9246 6.5783Z" id="Shape" fill="#00A4B7" fill-rule="evenodd" stroke="none" />
          <path d="M88.4261 0.135644L90.8395 0.135644L94.1277 4.78826C94.5572 5.39267 94.8695 5.87821 95.1609 6.3842L95.2 6.3842C95.453 5.89718 95.7835 5.3522 96.1916 4.71001L99.1701 0.135644L101.602 0.135644L101.602 12.9631L98.9361 12.9631L98.9361 6.07385C98.9361 5.56667 98.9361 4.98257 98.9551 4.53602L98.9361 4.53602C98.7809 4.86712 98.2738 5.60639 98.0593 5.9363L95.7634 9.47942L94.5566 9.47942L91.968 5.82085C91.6941 5.45122 91.3839 5.0426 91.1114 4.55558L91.0722 4.55558C91.0912 5.00348 91.0912 5.58758 91.0912 5.99634L91.0912 12.9639L88.4249 12.9639L88.4249 0.135644L88.4261 0.135644L88.4261 0.135644Z" id="Shape" fill="#00A4B7" stroke="none" />
          <path d="M104.91 0.136225L108.94 0.136225C111.723 0.136225 112.969 1.75172 112.969 3.38603C112.969 4.43684 112.443 5.46883 111.45 5.97542L111.45 6.01454C112.988 6.42331 113.845 7.66902 113.845 9.10978C113.845 11.0556 112.327 12.9644 109.29 12.9644L104.91 12.9644L104.91 0.136225L104.91 0.136225L104.91 0.136225ZM108.589 5.37176C109.757 5.37176 110.362 4.7094 110.362 3.87305C110.362 2.99682 109.777 2.31491 108.531 2.31491L107.576 2.31491L107.576 5.37101L108.589 5.37101L108.589 5.37176L108.589 5.37176ZM108.94 10.7833C110.42 10.7833 111.158 10.278 111.158 9.10981C111.158 8.11695 110.419 7.55167 109.191 7.55167L107.575 7.55167L107.575 10.7833L108.94 10.7833L108.94 10.7833Z" id="Shape" fill="#00A4B7" fill-rule="evenodd" stroke="none" />
          <path d="M119.092 0.135062L116.426 0.135062L116.426 12.9625L119.092 12.9625L119.092 0.135062L119.092 0.135062Z" id="Shape" fill="#00A4B7" stroke="none" />
          <path d="M125.892 0.0769568L128.052 0.0769568L133.289 12.9645L130.427 12.9645L129.182 9.8295L124.822 9.8295L123.635 12.9645L120.89 12.9645L125.892 0.0769568L125.892 0.0769568ZM128.384 7.68862L127.625 5.52816C127.314 4.59399 127.156 4.04767 127.041 3.62009L127.001 3.62009C126.903 4.06798 126.709 4.61296 126.358 5.54638L125.581 7.68862L128.384 7.68862L128.384 7.68862Z" id="Shape" fill="#00A4B7" fill-rule="evenodd" stroke="none" />
          <path d="M144.461 12.9644L139.089 5.93689C138.621 5.3144 138.212 4.72957 137.766 4.16503L137.727 4.16503C137.785 4.63308 137.785 5.43105 137.785 6.05368L137.785 12.9644L135.118 12.9644L135.118 0.136225L137.785 0.136225L142.942 6.89062C143.449 7.53282 143.858 8.09735 144.248 8.66129L144.286 8.66129C144.248 7.97996 144.248 7.12465 144.248 6.52039L144.248 0.136225L146.914 0.136225L146.914 12.9644L144.461 12.9644L144.461 12.9644Z" id="Shape" fill="#00A4B7" stroke="none" />
          <path d="M153.744 0.0769568L155.905 0.0769568L161.141 12.9645L158.278 12.9645L157.034 9.8295L152.673 9.8295L151.486 12.9645L148.742 12.9645L153.744 0.0769568L153.744 0.0769568ZM156.237 7.68862L155.477 5.52816C155.166 4.59399 155.009 4.04767 154.893 3.62009L154.852 3.62009C154.757 4.06798 154.561 4.61296 154.21 5.54638L153.434 7.68862L156.237 7.68862L156.237 7.68862Z" id="Shape" fill="#00A4B7" fill-rule="evenodd" stroke="none" />
        </g>
        <g id="Group-102" transform="translate(53.59832 0)">
          <g id="Group-99">
            <path d="M26.9665 56.7403C27.1486 56.7455 27.4356 56.7521 27.8327 56.7521C29.8066 56.7521 32.9011 56.6036 36.4351 55.9071C41.4523 54.9181 45.3247 53.3968 48.2739 51.2566C48.3093 51.2303 48.3739 51.1862 48.4599 51.1284L48.5072 51.0956C48.6919 50.9707 48.9409 50.8012 49.2268 50.5672C49.5073 50.3359 49.7537 50.0987 49.9745 49.8411C50.401 49.3509 50.746 48.7707 50.972 48.1616C51.2284 47.4807 51.3571 46.7322 51.3544 45.9338L51.3544 13.1478L52.1693 12.695C52.4656 12.5301 52.7338 12.3277 52.9638 12.097C53.3088 11.756 53.5867 11.319 53.7464 10.8695C53.8785 10.5062 53.9449 10.1217 53.9449 9.73075L53.9449 6.08041C53.9449 5.48308 53.7701 3.53601 51.4932 3.53601L39.6662 3.53601C39.0912 3.17853 33.7817 0 27.1072 0L26.8371 0C20.162 0 14.853 3.17918 14.2786 3.53601L2.4511 3.53601C0.176725 3.53601 0 5.48308 0 6.08041L0 9.73075C0 10.1217 0.0649864 10.5062 0.197804 10.8695C0.357462 11.319 0.636808 11.756 0.981068 12.0957C1.2125 12.3277 1.47988 12.5301 1.77564 12.695L2.5891 13.1478L2.5891 45.9338C2.5891 46.7322 2.71652 47.4813 2.97479 48.1616C3.19958 48.7707 3.54449 49.3509 3.97037 49.8411C4.19115 50.0981 4.4376 50.3353 4.72023 50.5672C5.00402 50.8019 5.25573 50.9714 5.43705 51.0956L5.48504 51.1284C5.56987 51.1862 5.63485 51.2303 5.67096 51.2566C8.6208 53.3968 12.4926 54.9181 17.5098 55.9071C21.0459 56.603 24.1401 56.7515 26.1143 56.7521C26.5112 56.7521 26.799 56.7455 26.9665 56.7403L26.9665 56.7403ZM36.3485 55.4674C33.519 56.0251 30.6804 56.3039 27.8327 56.3039C27.5336 56.3039 27.2491 56.3001 26.9793 56.2923L26.9659 56.2919L26.9525 56.2924C26.7052 56.3001 26.4258 56.3039 26.1143 56.3039C23.2652 56.3031 20.4259 56.0242 17.5963 55.4674C12.6915 54.5005 8.80409 52.976 5.93411 50.8939C5.90887 50.8755 5.85206 50.8362 5.76373 50.7761L5.7374 50.7581L5.69021 50.7258L5.65703 50.7031C5.3903 50.5207 5.17317 50.3603 5.00578 50.2219C4.74021 50.0039 4.50835 49.7796 4.31025 49.5491C3.90947 49.0877 3.60445 48.5735 3.39519 48.0064C3.15662 47.3779 3.03729 46.687 3.03722 45.9338L3.03722 12.8844L1.99357 12.3035C1.73458 12.159 1.50286 11.9843 1.29827 11.7792C0.988509 11.4735 0.762479 11.1203 0.620107 10.7196C0.505451 10.4058 0.448123 10.0762 0.448123 9.73075L0.448123 6.08041C0.448123 5.58848 0.551911 5.16518 0.759416 4.81051C1.08187 4.25959 1.64574 3.98413 2.4511 3.98413L14.4065 3.98413L14.5151 3.91666C15.5812 3.25434 16.8854 2.63335 18.4278 2.05367C21.2756 0.983305 24.0787 0.448123 26.8371 0.448123L27.1072 0.448123C29.8656 0.448123 32.6687 0.983226 35.5164 2.05343C37.0608 2.63377 38.3652 3.25482 39.4296 3.91658L39.5383 3.98413L51.4932 3.98413C52.2997 3.98413 52.8639 4.25956 53.1861 4.81042C53.3933 5.1647 53.4968 5.58803 53.4968 6.08041L53.4968 9.73075C53.4968 10.0734 53.4396 10.4019 53.3252 10.7164C53.1816 11.1205 52.9562 11.4745 52.6488 11.7784C52.4442 11.9835 52.2117 12.1586 51.9513 12.3035L50.9063 12.8841L50.9063 45.9338C50.9088 46.6807 50.791 47.3707 50.5526 48.0037C50.3414 48.5732 50.036 49.0877 49.6364 49.547C49.4385 49.7779 49.2069 50.0027 48.9416 50.2215C48.757 50.3726 48.5285 50.5402 48.2561 50.7244L48.2043 50.7603C48.1083 50.8248 48.0425 50.8702 48.0069 50.8966C45.1399 52.9768 41.2538 54.5003 36.3485 55.4674L36.3485 55.4674Z" id="Vector" fill="#00A4B7" fill-rule="evenodd" stroke="none" />
            <path d="M38.1641 7.08381L38.1641 9.55396C38.1641 9.77935 38.3953 9.96598 38.5018 10.0258C40.2689 11.0213 40.6335 11.2362 40.6335 11.7021L40.6335 41.9642C40.6335 42.9814 40.2492 43.2587 39.5007 43.6273C37.5739 44.5769 33.308 46.2775 27.006 46.2775C20.7023 46.2775 16.4375 44.5769 14.5108 43.6273C13.7636 43.2581 13.376 42.9814 13.376 41.9642L13.376 11.7028C13.376 11.2408 13.7354 11.0023 15.4702 10.0264C15.5891 9.95873 15.8468 9.82339 15.8468 9.49877L15.8468 7.13968C15.8468 6.81966 15.6635 6.24664 15.1253 6.24664L3.66756 6.24664C3.13071 6.24664 2.94473 6.6396 2.94473 7.13968L2.94473 9.55462C2.94473 9.84966 3.27321 9.94298 3.42109 10.0264C5.06525 10.9536 5.39118 11.2494 5.39118 11.7028L5.39118 45.5802C5.39118 47.5314 6.00824 48.0879 6.70417 48.5925C14.5397 54.2834 27.0054 53.703 27.0054 53.703C27.0054 53.703 38.8797 54.2834 46.7153 48.5925C47.4105 48.0879 48.6189 47.5314 48.6189 45.5802L48.6189 11.7028C48.6189 11.2342 49.0954 11.0332 50.8946 10.0264C50.9946 9.96925 51.2101 9.83717 51.2101 9.55462L51.2101 7.08447C51.2101 6.76445 50.9781 6.21707 50.4411 6.21707L38.9316 6.21707C38.3953 6.21641 38.1641 6.76379 38.1641 7.08381L38.1641 7.08381Z" id="Shape" fill="#00A4B7" stroke="none" />
            <path d="M28.1331 41.717C26.5224 41.717 25.613 41.0895 25.1247 40.7517L24.9952 40.6603C24.6949 40.4482 24.5464 40.3456 24.2441 40.3798C23.8236 40.4258 23.7355 40.6879 23.7355 40.9002L23.7355 41.3201C23.7355 41.3937 23.6757 41.4535 23.6015 41.4535L20.4071 41.4535C20.3323 41.4535 20.2724 41.3937 20.2724 41.3201L20.2724 34.8494C20.2724 34.7759 20.3323 34.716 20.4071 34.716L25.0945 34.716C25.1233 34.716 25.1542 34.7272 25.1778 34.7463C25.1884 34.7561 26.3232 35.6767 26.6807 35.9416L26.7549 35.9988C26.9324 36.1361 27.2032 36.3423 27.4982 36.3423C27.7197 36.3423 27.9266 36.2327 28.1337 36.0033C28.3098 35.8121 28.3919 35.6058 28.3774 35.3902C28.3637 35.1577 28.2309 34.923 28.0074 34.7299L22.5901 30.5451C21.7248 29.865 20.2724 28.4254 20.2724 26.4263C20.2724 21.6595 23.9406 20.3985 25.8811 20.3985C27.4916 20.3985 28.3991 21.0273 28.8893 21.3645L29.0188 21.4551C29.3185 21.6661 29.4637 21.7673 29.7699 21.7351C30.1898 21.6891 30.2779 21.4263 30.2779 21.2141L30.2779 20.7948C30.2779 20.7205 30.3383 20.66 30.4113 20.66L33.6075 20.66C33.6811 20.66 33.7416 20.7205 33.7416 20.7948L33.7416 27.2641C33.7416 27.3397 33.6811 27.3983 33.6075 27.3983L28.9203 27.3983C28.8901 27.3983 28.8605 27.3877 28.8354 27.3687C28.8244 27.3608 27.6902 26.4375 27.332 26.174L27.2564 26.1162C27.0797 25.9801 26.8108 25.7738 26.5158 25.7738C26.2937 25.7738 26.0874 25.8835 25.879 26.111C25.7042 26.3028 25.6221 26.5091 25.636 26.7246C25.6497 26.9587 25.7825 27.1913 26.0058 27.3844L31.4239 31.5697C32.9629 32.8123 33.7416 34.1963 33.7416 35.6879C33.7416 37.9142 33.0004 39.5754 31.5376 40.6295C30.1391 41.6383 28.5785 41.717 28.1331 41.717L28.1331 41.717Z" id="Shape" fill="#00A4B7" stroke="none" />
            <g id="Group-92" transform="translate(14.999002 2.3840475)">
              <path d="M13.134 40.8371C12.0853 40.8371 11.1127 40.6204 10.2413 40.1906L10.2413 40.3536C10.2413 40.4771 10.1415 40.575 10.0191 40.575L3.98877 40.575C3.86778 40.575 3.76666 40.4771 3.76666 40.3536L3.76666 31.0492C3.76666 30.9276 3.86778 30.8285 3.98877 30.8285L8.57485 30.8285C8.00514 30.3921 7.10352 29.6995 6.59684 29.2966C5.74586 28.6198 3.76606 26.7543 3.76606 24.0443C3.76606 20.6963 5.30043 18.872 6.58579 17.9291C8.38172 16.6142 10.3261 16.5123 10.8807 16.5123C11.9308 16.5123 12.9007 16.7292 13.7734 17.1609L13.7734 16.996C13.7734 16.8736 13.872 16.7752 13.9941 16.7752L20.0253 16.7752C20.1474 16.7752 20.2474 16.8736 20.2474 16.996L20.2474 26.2996C20.2474 26.4231 20.1474 26.5217 20.0253 26.5217L15.4346 26.5217C15.9406 26.912 16.7338 27.5245 17.4158 28.0514C18.7834 29.1108 20.2481 31.0479 20.2481 33.3052C20.2481 36.7136 18.7091 38.5379 17.4178 39.467C15.6561 40.7379 13.6931 40.8371 13.134 40.8371L13.134 40.8371ZM10.0191 39.6004C10.058 39.6004 10.0947 39.6103 10.1289 39.6294C11.0292 40.1446 12.0122 40.3942 13.134 40.3942C13.6603 40.3942 15.5043 40.301 17.1589 39.1069C18.3667 38.2375 19.8039 36.5251 19.8039 33.3045C19.8039 31.2083 18.4292 29.3973 17.1444 28.4023C16.0431 27.548 14.6506 26.4737 14.6506 26.4737C14.5758 26.4165 14.5455 26.3179 14.5758 26.2273C14.6073 26.138 14.6901 26.0775 14.7867 26.0775L19.8039 26.0775L19.8039 17.2167L14.2182 17.2167L14.2182 17.5262C14.2182 17.6071 14.1762 17.6786 14.1066 17.7188C14.0382 17.7575 13.9554 17.7588 13.8857 17.7188C12.9867 17.2055 12.0037 16.9546 10.8813 16.9546C10.3622 16.9546 8.53674 17.0518 6.84852 18.2866C5.64471 19.1664 4.20953 20.8809 4.20953 24.043C4.20953 26.5604 6.07177 28.3116 6.87287 28.9484C7.64498 29.5635 9.34634 30.86 9.36398 30.8739C9.43956 30.9303 9.46854 31.0289 9.43956 31.1196C9.40804 31.2096 9.32334 31.27 9.22939 31.27L4.20953 31.27L4.20953 40.1307L9.79716 40.1307L9.79716 39.8206C9.79716 39.7411 9.83913 39.6694 9.9068 39.6287C9.94161 39.6103 9.98044 39.6004 10.0191 39.6004L10.0191 39.6004Z" id="Shape" fill="#00A4B7" fill-rule="evenodd" stroke="none" />
              <path d="M5.82396 18.7695C4.07478 17.7411 3.37422 16.3428 3.09429 15.3512C2.79077 14.2748 2.90115 13.4494 2.90563 13.4152L3.19617 13.456C3.19213 13.4875 2.79854 16.6484 5.97378 18.5153L5.82396 18.7695L5.82396 18.7695Z" id="Shape" fill="#00A4B7" stroke="none" />
              <path d="M20.0971 17.0032L19.8572 16.8317C21.0382 15.175 20.7745 13.3902 20.772 13.3725L21.0643 13.3324C21.0763 13.4074 21.3469 15.2519 20.0971 17.0032L20.0971 17.0032Z" id="Shape" fill="#00A4B7" stroke="none" />
              <path d="M11.9359 16.7134C8.63506 16.7134 6.38116 15.8066 5.07025 15.0456C3.64552 14.2169 3.01143 13.3943 2.98454 13.3601L3.21906 13.1813C3.24475 13.2136 5.76215 16.4184 11.9359 16.4184C15.163 16.4184 17.3618 15.5378 18.6359 14.7999C20.0185 13.9994 20.6461 13.1892 20.652 13.1813L20.8873 13.3601C20.8597 13.3949 20.2256 14.2177 18.8003 15.0456C17.4919 15.8066 15.238 16.7134 11.9359 16.7134L11.9359 16.7134Z" id="Shape" fill="#00A4B7" stroke="none" />
              <path d="M22.6422 37.079C22.6422 36.8464 22.6395 36.3956 22.6368 35.7799C22.6329 34.3001 22.6256 31.9186 22.623 29.3013L22.623 29.1238C22.6217 28.1336 22.6198 26.5229 22.6198 25.5051C23.4648 25.0168 25.3349 22.9179 22.5239 15.4516C22.1506 14.3622 21.7201 13.7589 21.3968 13.4422C21.8063 13.2464 22.1388 12.8712 22.3379 12.5268C22.8235 11.6903 22.9832 10.5935 23.0679 10.0041C23.087 9.87926 23.0994 9.78067 23.1139 9.71956C23.242 9.10646 23.0804 8.7917 22.5107 8.55776L21.7792 8.25352L21.7792 4.69714C21.7792 3.99665 21.8444 3.93881 22.0586 3.743C22.1032 3.69962 22.1577 3.65297 22.2156 3.59317C22.445 3.36515 22.5422 3.09244 22.4903 2.82499C22.445 2.59761 22.2708 2.27562 21.6984 2.03183C17.3745 0.145221 13.3581 0 12.2293 0C12.107 0 12.038 0.00197185 12.0368 0.00197185C12.0262 0.00197185 11.956 0 11.833 0C10.7054 0 6.69038 0.145879 2.36705 2.03183C1.79077 2.27562 1.61869 2.59761 1.57522 2.82499C1.5213 3.09309 1.61869 3.36515 1.84723 3.59317C1.90056 3.64837 1.95239 3.69437 1.9978 3.73578C2.21335 3.93554 2.27056 3.9881 2.27056 4.69714L2.27175 8.25089C2.09892 8.31924 1.79869 8.44212 1.53325 8.55975C0.964731 8.80946 0.807739 9.11303 0.937247 9.71956C0.949642 9.78067 0.964731 9.87926 0.982504 10.0041C1.06735 10.5935 1.22763 11.6903 1.71264 12.5268C1.97674 12.9802 2.26189 13.2799 2.57603 13.4409C2.20214 13.8214 1.82886 14.468 1.48261 15.3538C-0.835077 21.5065 -0.0985144 24.6784 1.40105 25.5281C1.40314 29.3065 1.41166 33.7487 1.41883 35.7845C1.41957 36.3989 1.42077 36.847 1.42212 37.0798C1.1855 37.2913 0.917527 37.7697 0.839257 38.2494C0.753215 38.7804 0.893777 39.2469 1.2454 39.5999C2.1778 40.5316 8.32662 41.767 12.0308 41.767C15.7363 41.767 21.8825 40.5316 22.8169 39.5999C23.1678 39.2469 23.3097 38.7804 23.225 38.2494C23.1474 37.7703 22.8773 37.292 22.6422 37.079L22.6422 37.079ZM22.3431 8.96781C22.7156 9.12158 22.7657 9.22145 22.6814 9.62954C22.6664 9.69722 22.6493 9.805 22.6302 9.94167C22.5501 10.5022 22.397 11.5451 21.9553 12.3053C21.849 12.49 21.6893 12.6937 21.4974 12.8547C21.3719 12.9605 21.0091 13.1405 20.9684 12.4841C20.9408 12.0543 20.9953 11.6272 21.1544 11.208C21.5617 10.1362 21.7346 9.46197 21.7713 8.73257L22.3431 8.96781L22.3431 8.96781ZM17.3956 6.72373C15.8974 6.64946 14.9452 7.41436 14.3827 8.14508C13.9483 8.45 13.0672 8.94942 11.9796 8.91655C10.8585 8.91655 9.97139 8.37574 9.56391 8.07477C8.99419 7.36442 8.05523 6.65275 6.60361 6.72373C4.25501 6.83346 3.28572 8.64713 2.94993 9.87464C2.82774 9.38508 2.74753 8.91259 2.71735 8.46116L3.37519 8.2384C3.42777 8.22131 3.46512 8.17004 3.46586 8.11288L3.48035 7.07397C3.92982 6.90771 6.17775 6.11455 9.5633 5.69925C9.63172 5.69005 9.67967 5.63354 9.67967 5.56651L9.67967 5.20313L14.0962 5.20313L14.0962 5.56651C14.0962 5.63485 14.148 5.69268 14.2157 5.69925C14.2532 5.70385 17.8634 6.09091 20.6031 7.12655L20.6031 8.09908C20.6031 8.15428 20.6359 8.2029 20.6858 8.22394C20.6963 8.22657 20.9014 8.31068 21.3364 8.45723C21.3325 8.9573 21.272 9.39691 21.1169 9.9456C20.7817 8.73847 19.8059 6.83477 17.3956 6.72373L17.3956 6.72373ZM19.6187 8.12668C19.4892 8.34484 18.7374 9.45803 17.1512 9.22213C16.4796 9.12158 16.0195 8.75028 15.7469 8.38756C15.4492 7.9959 15.5412 7.64501 15.63 7.59177C16.0827 7.31579 16.6569 7.13245 17.3739 7.16465C18.378 7.21327 19.1021 7.6082 19.6187 8.12668L19.6187 8.12668ZM13.8136 9.43767C13.8248 9.44161 14.8643 9.79514 15.6996 10.8216C15.7659 10.9175 15.5544 11.1048 15.4038 11.0654C15.0628 10.976 14.3131 10.8137 13.836 11.4373C13.832 11.4432 13.8261 11.4472 13.8229 11.4524C13.7761 11.501 13.1979 12.0846 12.0407 12.0846C10.8644 12.0846 10.2237 11.4741 10.1908 11.4412C9.51925 10.8354 8.87724 11.0128 8.49484 11.0667C8.31081 11.0936 8.11304 10.9596 8.2182 10.8071C9.05858 9.79382 10.1672 9.44358 10.179 9.43964C10.2848 9.39561 10.3407 9.27865 10.3072 9.16891C10.302 9.15971 10.1988 9.0677 9.95168 8.64254C10.4524 8.91523 11.1503 9.1827 11.9744 9.1827C12.013 9.18336 12.0473 9.18334 12.0861 9.18334C12.8719 9.18334 13.5416 8.93628 14.0265 8.67737C13.7939 9.08479 13.694 9.15971 13.6907 9.16891C13.6585 9.27667 13.7117 9.39168 13.8136 9.43767L13.8136 9.43767ZM8.35157 8.30743C8.07956 8.6879 7.61157 9.11503 6.8895 9.2228C5.267 9.46265 4.51789 8.29361 4.41079 8.1129C4.91866 7.60034 5.63296 7.21199 6.62197 7.16599C7.33568 7.1338 7.89807 7.32304 8.35545 7.58392C8.51514 7.67329 8.57563 7.99397 8.35157 8.30743L8.35157 8.30743ZM2.71217 4.61763C3.30876 4.4021 5.6614 3.57412 7.52559 3.26199C7.53934 3.27053 7.55711 3.28103 7.57549 3.29286C8.91866 4.11427 10.4116 4.52893 12.0131 4.52893C13.6126 4.52893 15.105 4.11427 16.4474 3.29286C16.4679 3.28103 16.4849 3.26987 16.4986 3.26199C18.3636 3.57412 20.7365 4.4021 21.3364 4.61763C21.3364 4.64458 21.3358 4.67152 21.3358 4.69913L21.3358 8.17467C21.111 8.09844 20.9554 8.04126 20.8699 8.00907L20.8699 7.03454C20.8699 6.97935 20.8363 6.9294 20.7839 6.90904C18.286 5.94634 15.0248 5.52579 14.3636 5.44694L14.3636 5.07041C14.3636 4.9955 14.3045 4.93569 14.2302 4.93569L9.54557 4.93569C9.47268 4.93569 9.41353 4.9955 9.41353 5.07041L9.41353 5.44891C5.66663 5.92204 3.32072 6.84792 3.29637 6.85777C3.24633 6.87815 3.21346 6.92613 3.21152 6.98066L3.19838 8.01629L2.71217 8.18123L2.71217 4.69847C2.71351 4.67087 2.71217 4.64458 2.71217 4.61763L2.71217 4.61763ZM2.1608 3.28236C2.09045 3.2114 1.97737 3.0701 2.00829 2.91042C2.0431 2.73694 2.23041 2.572 2.54395 2.43925C6.89865 0.538844 11.0471 0.442901 11.8337 0.442901C11.9572 0.442901 12.0216 0.44423 12.0393 0.44423C12.0413 0.44423 12.1078 0.442901 12.2294 0.442901C13.0171 0.442901 17.1663 0.538859 21.5231 2.44058C21.8326 2.572 22.023 2.7376 22.0559 2.91042C22.0868 3.0701 21.9751 3.2114 21.9041 3.28236C21.8523 3.33493 21.8036 3.37829 21.7595 3.41773C21.527 3.63063 21.4106 3.77454 21.3627 4.15634C20.5847 3.88165 18.2978 3.10231 16.4986 2.81252C16.4855 2.81121 16.4743 2.81119 16.4625 2.81119C16.3902 2.81119 16.3455 2.83615 16.2181 2.91501C14.9453 3.69371 13.5298 4.08734 12.0144 4.08734C10.4957 4.08734 9.081 3.69371 7.80743 2.91501C7.65956 2.82367 7.61101 2.80069 7.52751 2.81252C5.73024 3.10231 3.4626 3.87902 2.69108 4.15634C2.64448 3.76928 2.52752 3.6234 2.29748 3.41181C2.2567 3.37369 2.2107 3.3323 2.1608 3.28236L2.1608 3.28236ZM2.3336 12.6609C2.25279 12.559 2.17392 12.4407 2.09505 12.3047C1.6535 11.5444 1.50099 10.5015 1.42018 9.94101C1.4018 9.80431 1.38343 9.69656 1.37029 9.62756C1.28544 9.22606 1.33339 9.13404 1.71265 8.96582C1.90967 8.87776 2.12851 8.78839 2.29685 8.7194C2.37363 9.50993 2.58066 10.3451 2.90988 11.2073C3.05045 11.5766 3.06687 12.0175 3.01698 12.4946C2.95918 13.0289 2.51031 12.883 2.3336 12.6609L2.3336 12.6609ZM22.5034 39.287C21.7977 39.9954 15.9992 41.3235 12.0313 41.3235C9.71635 41.3235 6.77697 40.8713 4.59014 40.3528L3.92378 40.3528L3.92378 40.1866C2.7022 39.8672 1.81104 39.5367 1.55949 39.287C1.31691 39.0439 1.22101 38.7324 1.27165 38.3597C1.33797 37.859 1.64807 37.4418 1.74218 37.3885C1.74471 37.3866 1.74666 37.3839 1.74994 37.3839C2.06079 37.5161 2.81394 37.8177 3.92438 38.1455L3.92438 37.865C2.88085 37.5542 2.16535 37.269 1.86571 37.1409C1.86571 36.9352 1.86437 36.4627 1.86168 35.7818C1.85779 34.5925 1.85256 32.7794 1.84853 30.7239C2.23362 30.8055 3.05174 30.9822 3.92378 31.1459L3.92378 31.0486L4.91473 30.9908C3.70824 30.7851 2.32175 30.5532 1.84853 30.4499C1.84853 30.0905 1.84719 29.7258 1.84719 29.3538C2.18567 29.4445 4.55264 30.061 7.94732 30.3915C8.2477 30.6234 8.5487 30.8547 8.80427 31.0486L9.16441 31.0486C9.16441 31.0486 7.74626 29.9676 6.90051 29.3045C6.83224 29.4006 6.84927 29.5319 6.94068 29.6055C7.10888 29.7389 7.32054 29.9046 7.54789 30.0826C4.16293 29.7192 1.90708 29.0923 1.87676 29.0838C1.86691 29.0824 1.85839 29.0832 1.84793 29.0824C1.84793 28.1645 1.84524 27.2156 1.84524 26.2739C2.12786 26.04 3.29163 25.9191 4.36802 25.9191C4.43703 25.9191 4.49544 25.9683 4.53562 25.9191C4.47647 25.8008 4.42119 25.7179 4.36936 25.5944L4.36802 25.4761C3.05831 25.4761 2.55626 25.5458 1.70931 25.1884C0.967376 24.8756 0.404234 23.8787 0.462045 21.5117C0.490276 20.392 0.820094 19.0067 0.820094 19.0067C1.05476 17.9842 1.40235 16.8251 1.89588 15.5148C2.30786 14.4647 2.67516 13.9652 2.91641 13.7266L3.27714 13.3187C3.48477 12.377 3.56558 11.6877 3.32255 11.0496C3.29492 10.9734 3.26803 10.8965 3.24099 10.8209C3.24099 10.399 3.46311 9.19518 4.25629 8.28111C4.44091 8.56564 5.14671 9.47773 6.46941 9.47773C6.61535 9.47773 6.76652 9.46723 6.92291 9.44291C8.11237 9.2668 8.65445 8.33103 8.83251 7.93413C9.39311 8.43749 9.69603 8.81798 9.81823 9.11961C9.4173 9.31805 8.47834 9.73271 7.75552 10.6757L7.75552 10.677C7.75418 10.6777 7.75418 10.6777 7.75418 10.6777C7.7476 10.6849 7.59255 10.9274 7.73834 11.0969L7.73834 11.0982L7.73834 11.0995C7.78644 11.1869 8.2253 11.6863 9.95027 11.8099C10.2354 12.0694 10.9615 12.5268 12.0419 12.5268C13.1348 12.5268 13.822 12.0688 14.0843 11.8099C15.831 11.6804 16.1312 11.1396 16.1811 11.0693C16.2837 10.9274 16.1975 10.7394 16.1523 10.6777C15.4327 9.73927 14.5561 9.32462 14.1795 9.12485C14.3018 8.81995 14.6127 8.41912 15.1967 7.90853C15.3651 8.28834 15.9012 9.2622 17.1169 9.44225C17.2766 9.46656 17.4278 9.47709 17.571 9.47709C18.8754 9.47709 19.5785 8.5906 19.7776 8.29424C20.5997 9.23328 20.823 10.468 20.823 10.8203L20.8257 10.8229C20.7988 10.8965 20.7718 10.9714 20.741 11.0489C20.4571 11.7921 20.4807 12.6168 20.6885 13.318L21.3902 14.121C21.6104 14.4332 21.8666 14.903 22.1065 15.6022C22.6677 17.0971 23.0369 18.3929 23.2768 19.5049C23.4576 20.3361 23.5608 21.6576 23.5608 21.6576C23.6375 23.6152 23.0613 24.842 22.3207 25.1614C21.5329 25.5018 20.8679 25.4873 19.984 25.4873C19.9742 25.4873 19.9676 25.4906 19.9589 25.4913L19.9589 25.5911L19.9361 25.5911C19.9361 25.7134 19.7816 25.8113 19.9038 25.8113C20.6568 25.8113 21.4258 25.7955 22.1755 26.2733C22.1755 27.261 22.1768 28.2125 22.1782 29.1706C21.1018 29.4603 19.9117 29.6784 18.7617 29.8427C18.8175 29.921 18.8721 30.0038 18.9273 30.0885C19.9051 29.9407 20.8855 29.7495 21.766 29.5504C22.1065 29.4727 22.1788 29.6252 22.1788 30.0163C22.1788 30.4053 22.1163 30.4532 21.812 30.5157C21.2595 30.6313 20.3244 30.8238 19.4261 30.9822C19.4636 31.0657 19.5036 31.1498 19.5378 31.2352C20.6286 31.0401 21.7529 30.8035 22.1801 30.7128C22.1847 32.7617 22.1919 34.5728 22.1946 35.7812C22.1946 36.4581 22.1965 36.9338 22.1965 37.1395C21.7392 37.3301 20.3341 37.8741 18.2702 38.329C18.1663 38.4498 18.0592 38.5662 17.9509 38.6713C20.2547 38.1948 21.8252 37.5857 22.3108 37.3813C22.3141 37.384 22.316 37.386 22.3201 37.3885C22.4154 37.4411 22.7241 37.859 22.7925 38.3597C22.8432 38.733 22.7459 39.0439 22.5034 39.287L22.5034 39.287ZM15.5799 12.9769C15.5413 12.9769 15.5057 12.9808 15.4761 12.9868C14.2926 13.2273 12.1741 13.2339 11.9401 13.2339C11.7055 13.2339 9.58825 13.2273 8.40416 12.9868C8.3719 12.9816 8.3371 12.9769 8.2996 12.9769C7.95724 12.9769 7.5006 13.2543 7.32972 13.7707C7.22725 14.073 7.29491 14.4324 7.51046 14.7315C7.70494 15.001 7.97232 15.1599 8.22671 15.1599L11.9395 15.1599L15.6509 15.1599C15.9072 15.1599 16.1721 15.0002 16.3671 14.7315C16.5827 14.4318 16.6504 14.073 16.5506 13.7707C16.3783 13.2549 15.9217 12.9769 15.5799 12.9769L15.5799 12.9769ZM15.2658 13.4324C15.3658 13.4166 15.4624 13.3936 15.5544 13.381C15.7108 13.3594 15.9461 13.4423 16.0294 13.6348C16.0459 13.6748 16.0335 13.7695 15.8034 13.8194C15.6405 13.8542 15.4203 13.8844 15.1423 13.918L15.2658 13.4324L15.2658 13.4324ZM9.88653 13.5664C10.8454 13.6315 11.9401 13.6348 11.9401 13.6348C11.9401 13.6348 13.0335 13.6315 13.9916 13.5664L14.1888 14.0021C13.5178 14.052 12.7182 14.0777 11.9401 14.0777C11.1614 14.0777 10.3623 14.052 9.6901 14.0021L9.88653 13.5664L9.88653 13.5664ZM7.8509 13.6348C7.935 13.4423 8.16817 13.3594 8.32531 13.381C8.41793 13.3936 8.51382 13.4166 8.61375 13.4324L8.73729 13.918C8.4587 13.8844 8.23987 13.8542 8.07496 13.8194C7.84762 13.7688 7.83312 13.6748 7.8509 13.6348L7.8509 13.6348ZM8.22732 14.7597C8.10782 14.7597 7.95008 14.654 7.83835 14.4962C7.77008 14.4036 7.72662 14.3031 7.70361 14.2058C7.66941 14.0586 7.78114 14.0139 7.96054 14.0441C8.15966 14.0777 8.433 14.1276 8.80241 14.169L8.95148 14.7597L8.22732 14.7597L8.22732 14.7597ZM9.09872 14.3642C9.05525 14.1979 8.87392 13.4697 8.87392 13.4697C9.11576 13.5 9.37208 13.5263 9.6296 13.5474C9.6296 13.5474 9.31755 14.2439 9.26169 14.3642C9.19925 14.5001 9.14398 14.5389 9.09872 14.3642L9.09872 14.3642ZM11.9402 14.7597L9.35049 14.7597L9.585 14.238L9.58769 14.2393C10.2862 14.2932 11.124 14.3195 11.9402 14.3195C12.7564 14.3195 13.5923 14.2932 14.2927 14.2393L14.2927 14.238L14.5285 14.7597L11.9402 14.7597L11.9402 14.7597ZM14.6179 14.3642C14.5626 14.2432 14.2493 13.5474 14.2493 13.5474C14.5075 13.5263 14.765 13.5 15.0063 13.4697C15.0063 13.4697 14.8248 14.1979 14.7828 14.3642C14.7368 14.5389 14.6796 14.5001 14.6179 14.3642L14.6179 14.3642ZM16.0412 14.4962C15.9296 14.654 15.7718 14.7597 15.6522 14.7597L14.9288 14.7597L15.0786 14.169C15.4465 14.1276 15.7218 14.0777 15.9184 14.0441C16.0978 14.0139 16.2114 14.0586 16.1759 14.2058C16.1536 14.3031 16.1102 14.4036 16.0412 14.4962L16.0412 14.4962Z" id="Shape" fill="#00A4B7" fill-rule="evenodd" stroke="none" />
            </g>
          </g>
        </g>
      </g>
      <path d="M176.43 116.219L178.121 116.219L178.96 113.987L182.14 113.987L183.005 116.219L184.764 116.219L181.179 107.263L179.88 107.263L176.43 116.219ZM179.434 112.661L180.083 110.902C180.327 110.212 180.462 109.82 180.543 109.508L180.57 109.508C180.651 109.806 180.773 110.212 181.017 110.888L181.639 112.661L179.434 112.661ZM173.616 116.219L175.24 116.219L175.24 107.303L173.616 107.303L173.616 116.219ZM173.562 106.803L174.793 106.803L176.092 104.814L174.347 104.814L173.562 106.803ZM165.648 116.219L167.271 116.219L167.271 112.742L168.042 112.742C168.259 112.796 168.583 113.161 169.016 113.96L170.302 116.219L172.169 116.219L170.681 113.621C170.207 112.81 169.842 112.323 169.571 112.174L169.571 112.147C170.599 111.822 171.316 111.037 171.316 109.847C171.316 108.94 170.938 108.115 169.991 107.669C169.517 107.439 168.922 107.303 168.083 107.303L165.648 107.303L165.648 116.219ZM167.271 111.416L167.271 108.629L168.015 108.629C168.502 108.629 168.8 108.737 169.016 108.886C169.409 109.116 169.612 109.536 169.612 110.009C169.612 110.564 169.368 110.97 168.989 111.186C168.719 111.335 168.421 111.416 168.002 111.416L167.271 111.416ZM158.856 116.219L163.794 116.219L163.794 114.839L160.48 114.839L160.48 112.39L163.334 112.39L163.334 111.01L160.48 111.01L160.48 108.683L163.334 108.683L163.781 107.303L158.856 107.303L158.856 116.219ZM147.749 116.219L149.372 116.219L149.372 111.146C149.372 110.834 149.372 110.374 149.359 110.023L149.386 110.023C149.562 110.361 149.805 110.672 149.995 110.943L151.943 113.743L152.687 113.743L154.446 111.01C154.608 110.767 154.933 110.266 155.054 110.009L155.082 110.009C155.054 110.361 155.054 110.821 155.054 111.186L155.054 116.219L156.691 116.219L156.691 107.303L155.203 107.303L153.066 110.618C152.755 111.091 152.525 111.484 152.335 111.822L152.308 111.822C152.105 111.47 151.875 111.132 151.564 110.672L149.223 107.303L147.749 107.303L147.749 116.219ZM139.78 116.219L141.404 116.219L141.404 112.742L142.175 112.742C142.391 112.796 142.716 113.161 143.149 113.96L144.434 116.219L146.301 116.219L144.813 113.621C144.339 112.81 143.974 112.323 143.704 112.174L143.704 112.147C144.732 111.822 145.449 111.037 145.449 109.847C145.449 108.94 145.07 108.115 144.123 107.669C143.649 107.439 143.054 107.303 142.215 107.303L139.78 107.303L139.78 116.219ZM141.404 111.416L141.404 108.629L142.148 108.629C142.635 108.629 142.932 108.737 143.149 108.886C143.541 109.116 143.744 109.536 143.744 110.009C143.744 110.564 143.501 110.97 143.122 111.186C142.851 111.335 142.554 111.416 142.134 111.416L141.404 111.416ZM132.989 116.219L137.927 116.219L137.927 114.839L134.612 114.839L134.612 112.39L137.467 112.39L137.467 111.01L134.612 111.01L134.612 108.683L137.467 108.683L137.913 107.303L132.989 107.303L132.989 116.219ZM126.495 116.219L128.118 116.219L128.118 112.39L130.959 112.39L130.959 111.01L128.118 111.01L128.118 108.683L131.013 108.683L131.46 107.303L126.495 107.303L126.495 116.219ZM124.33 116.219L124.33 107.303L122.693 107.303L122.693 112.065C122.693 112.553 122.706 113.094 122.72 113.567L122.693 113.567C122.422 113.148 122.098 112.715 121.705 112.187L117.971 107.303L116.361 107.303L116.361 116.219L117.985 116.219L117.985 111.159C117.985 110.645 117.985 110.131 117.958 109.779L117.985 109.779C118.282 110.185 118.594 110.631 118.986 111.132L122.855 116.219L124.33 116.219ZM109.57 116.219L114.508 116.219L114.508 114.839L111.193 114.839L111.193 112.39L114.048 112.39L114.048 111.01L111.193 111.01L111.193 108.683L114.048 108.683L114.494 107.303L109.57 107.303L109.57 116.219ZM99.8559 116.219L104.794 116.219L104.794 114.839L101.479 114.839L101.479 112.39L104.334 112.39L104.334 111.01L101.479 111.01L101.479 108.683L104.334 108.683L104.78 107.303L99.8559 107.303L99.8559 116.219ZM90.4396 116.219L93.0643 116.219C96.1624 116.219 98.0835 114.406 98.0835 111.7C98.0835 109.062 96.3654 107.303 93.2131 107.303L90.4396 107.303L90.4396 116.219ZM92.0631 114.839L92.0631 108.683L93.0643 108.683C95.2425 108.683 96.3383 109.86 96.3383 111.727C96.3383 113.405 95.4454 114.839 93.0913 114.839L92.0631 114.839ZM77.9929 116.219L79.684 116.219L80.5228 113.987L83.7022 113.987L84.568 116.219L86.3268 116.219L82.7416 107.263L81.4428 107.263L77.9929 116.219ZM80.9964 112.661L81.6458 110.902C81.8893 110.212 82.0246 109.82 82.1057 109.508L82.1328 109.508C82.214 109.806 82.3357 110.212 82.5793 110.888L83.2016 112.661L80.9964 112.661ZM67.8596 116.219L69.4831 116.219L69.4831 111.146C69.4831 110.834 69.4831 110.374 69.4696 110.023L69.4966 110.023C69.6725 110.361 69.916 110.672 70.1055 110.943L72.0536 113.743L72.7977 113.743L74.5565 111.01C74.7189 110.767 75.0436 110.266 75.1653 110.009L75.1924 110.009C75.1653 110.361 75.1653 110.821 75.1653 111.186L75.1653 116.219L76.8023 116.219L76.8023 107.303L75.3141 107.303L73.1766 110.618C72.8654 111.091 72.6354 111.484 72.446 111.822L72.4189 111.822C72.216 111.47 71.986 111.132 71.6748 110.672L69.3343 107.303L67.8596 107.303L67.8596 116.219ZM58.3352 116.219L60.0263 116.219L60.8651 113.987L64.0444 113.987L64.9103 116.219L66.6691 116.219L63.0839 107.263L61.7851 107.263L58.3352 116.219ZM61.3386 112.661L61.988 110.902C62.2315 110.212 62.3668 109.82 62.448 109.508L62.4751 109.508C62.5562 109.806 62.678 110.212 62.9215 110.888L63.5438 112.661L61.3386 112.661ZM51.3406 116.219L52.9641 116.219L52.9641 112.742L53.7353 112.742C53.9517 112.796 54.2764 113.161 54.7094 113.96L55.9946 116.219L57.8616 116.219L56.3734 113.621C55.8999 112.81 55.5346 112.323 55.2641 112.174L55.2641 112.147C56.2923 111.822 57.0093 111.037 57.0093 109.847C57.0093 108.94 56.6305 108.115 55.6835 107.669C55.2099 107.439 54.6147 107.303 53.7759 107.303L51.3406 107.303L51.3406 116.219ZM52.9641 111.416L52.9641 108.629L53.7082 108.629C54.1953 108.629 54.4929 108.737 54.7094 108.886C55.1017 109.116 55.3046 109.536 55.3046 110.009C55.3046 110.564 55.0611 110.97 54.6823 111.186C54.4117 111.335 54.1141 111.416 53.6947 111.416L52.9641 111.416ZM49.2842 111.89L47.6472 111.89L47.6472 114.717C47.2954 114.88 46.7543 114.988 46.159 114.988C44.2379 114.988 43.115 113.73 43.115 111.808C43.115 109.914 44.2514 108.589 46.4025 108.589C47.3631 108.589 48.1613 108.832 48.8648 109.184L48.8648 107.669C48.1884 107.425 47.3225 107.222 46.2808 107.222C43.3179 107.222 41.3832 109.211 41.3832 111.917C41.3832 114.474 43.115 116.354 46.0372 116.354C47.2819 116.354 48.4725 116.043 49.2842 115.637L49.2842 111.89ZM35.4846 116.354C38.0822 116.354 39.9762 114.528 39.9762 111.795C39.9762 109.103 38.1227 107.222 35.4846 107.222C32.8464 107.222 30.9929 109.089 30.9929 111.795C30.9929 114.528 32.8599 116.354 35.4846 116.354L35.4846 116.354ZM35.4846 114.988C33.834 114.988 32.7246 113.811 32.7246 111.795C32.7246 109.766 33.834 108.589 35.4846 108.589C37.1757 108.589 38.2445 109.82 38.2445 111.795C38.2445 113.811 37.1216 114.988 35.4846 114.988L35.4846 114.988ZM23.4031 116.219L25.0266 116.219L25.0266 112.742L25.7978 112.742C26.0142 112.796 26.3389 113.161 26.7719 113.96L28.0571 116.219L29.9241 116.219L28.4359 113.621C27.9624 112.81 27.5971 112.323 27.3265 112.174L27.3265 112.147C28.3548 111.822 29.0718 111.037 29.0718 109.847C29.0718 108.94 28.693 108.115 27.7459 107.669C27.2724 107.439 26.6772 107.303 25.8383 107.303L23.4031 107.303L23.4031 116.219ZM25.0266 111.416L25.0266 108.629L25.7707 108.629C26.2578 108.629 26.5554 108.737 26.7719 108.886C27.1642 109.116 27.3671 109.536 27.3671 110.009C27.3671 110.564 27.1236 110.97 26.7448 111.186C26.4742 111.335 26.1766 111.416 25.7572 111.416L25.0266 111.416ZM16.0298 116.219L17.6533 116.219L17.6533 113.148L18.0321 113.148C18.8303 113.148 19.4391 113.026 19.9261 112.837C21.1844 112.323 21.6308 111.254 21.6308 110.226C21.6308 109.008 21.1032 108.142 20.1832 107.682C19.6556 107.425 19.0062 107.303 18.1809 107.303L16.0298 107.303L16.0298 116.219ZM17.6533 111.822L17.6533 108.629L18.1133 108.629C18.6003 108.629 18.9656 108.71 19.2226 108.859C19.6962 109.143 19.9261 109.644 19.9261 110.226C19.9261 110.888 19.6826 111.375 19.182 111.619C18.925 111.754 18.5732 111.822 18.1403 111.822L17.6533 111.822Z" id="PROGRAMA-DE-ENFERMERÃA-2" fill="#00A4B7" stroke="none" />
      <path d="M0 98.6104L200 98.6104L200 99.6526L0 99.6526L0 98.6104Z" id="Rectangle-10" fill="#00A4B7" fill-rule="evenodd" stroke="none" />
      <path d="M0 99.1067L88.536 99.1067L88.536 101.107L0 101.107L0 99.1067Z" id="Rectangle-14-Copy" fill="#00A4B7" fill-rule="evenodd" stroke="none" />
    </g>
  </g>
</svg>