<svg width="20" height="20" xmlns="http://www.w3.org/2000/svg"><path d="M0 10C0 4.477 4.477 0 10 0s10 4.477 10 10-4.477 10-10 10S0 15.523 0 10Zm7.647-5.578S7.467 4 7.192 4a.684.684 0 0 0-.505.211c-.094.086-1.663 1.376-1.663 1.376s-.457.4-.422 1.15c.03.75.176 1.816.938 3.303.756 1.484 2.648 3.751 3.843 4.548 0 0 1.108.85 2.14 1.195.299.094.898.217 1.037.217.142 0 .392 0 .68-.21.292-.212 1.932-1.531 1.932-1.531s.402-.363-.065-.784c-.468-.422-1.89-1.36-2.195-1.606-.305-.25-.74-.14-.927.03-.187.17-.521.45-.562.486-.061.047-.229.2-.416.123-.24-.094-1.219-.626-2.127-1.868-.903-1.242-1.002-1.648-1.137-2.086a.306.306 0 0 1 .123-.358c.135-.094.633-.51.633-.51s.323-.317.188-.692c-.135-.375-1.04-2.572-1.04-2.572Z" fill="#80D2DB" fill-rule="evenodd"/></svg>