<svg width="20" height="20" xmlns="http://www.w3.org/2000/svg"><path d="M10 0C4.477 0 0 4.477 0 10s4.477 10 10 10 10-4.477 10-10S15.523 0 10 0Zm6 10a6 6 0 1 1-12 0 6 6 0 0 1 12 0ZM6.019 6.974c.462.26 1.054.53 1.766.728a8.959 8.959 0 0 1 1.113-2.58 5.001 5.001 0 0 0-2.88 1.852Zm6.196.728a7.926 7.926 0 0 0 1.766-.727 5 5 0 0 0-2.88-1.853 8.958 8.958 0 0 1 1.113 2.58ZM10 8c-.437 0-.85-.033-1.236-.09.18-.69.429-1.271.677-1.737.2-.374.398-.672.559-.89.161.218.36.516.559.89.248.466.497 1.047.677 1.737A8.4 8.4 0 0 1 10 8Zm-2.5 2c0-.463.033-.901.091-1.314a8.916 8.916 0 0 1-2.096-.859A4.982 4.982 0 0 0 5 10c0 .779.178 1.516.495 2.173a8.915 8.915 0 0 1 2.096-.859A9.423 9.423 0 0 1 7.5 10Zm5 0c0-.463-.033-.901-.091-1.314a8.935 8.935 0 0 0 2.095-.859A4.98 4.98 0 0 1 15 10c0 .779-.178 1.516-.495 2.173a8.923 8.923 0 0 0-2.096-.859c.058-.413.091-.85.091-1.314Zm-3.928 1.108a8.434 8.434 0 0 1 0-2.216 9.404 9.404 0 0 0 2.856 0 8.434 8.434 0 0 1 0 2.216 9.41 9.41 0 0 0-2.856 0Zm.192.982c.18.69.429 1.271.677 1.737.2.374.398.672.559.89.161-.218.36-.516.559-.89a7.938 7.938 0 0 0 .677-1.737 8.41 8.41 0 0 0-2.472 0Zm2.677 2.208a8.96 8.96 0 0 0 .774-2 7.921 7.921 0 0 1 1.766.727 5 5 0 0 1-2.88 1.853 8.58 8.58 0 0 0 .34-.58Zm-2.543.58a8.96 8.96 0 0 1-1.113-2.58 7.91 7.91 0 0 0-1.766.728c.7.92 1.713 1.59 2.88 1.852Z" fill="#80D2DB" fill-rule="evenodd"/></svg>