<?xml version="1.0" encoding="utf-8"?>
<svg width="26px" height="26px" viewBox="0 0 26 26" version="1.1" xmlns:xlink="http://www.w3.org/1999/xlink" xmlns="http://www.w3.org/2000/svg">
  <g id="ico-pdf" fill-opacity="1">
    <path d="M0 0L26 0L26 26L0 26L0 0Z" id="ico-pdf" fill="none" fill-rule="evenodd" stroke="none" />
    <g id="ico-pdf">
      <path d="M23.8148 26L2.18518 26C0.978546 26 0 25.0215 0 23.8148L0 2.18518C0 0.978546 0.978546 0 2.18518 0L23.8148 0C25.0215 0 26 0.978546 26 2.18518L26 23.8148C26 25.0215 25.0215 26 23.8148 26L23.8148 26Z" id="Shape-21-Copy" fill="#B43331" stroke="none" />
      <path d="M22.0917 17.1744C21.9477 16.9212 21.7513 16.6812 21.5069 16.4629C21.3061 16.2796 21.0704 16.1094 20.8041 15.9523C19.7305 15.3194 18.1985 15.0139 16.1165 15.0139L15.907 15.0139C15.7935 14.9091 15.6756 14.8044 15.5535 14.6953C14.7635 13.9838 14.135 13.2113 13.6461 12.3515C14.6063 10.2346 15.0646 8.34905 15.0079 6.74284C14.9991 6.47221 14.9598 6.21907 14.89 5.98336C14.7853 5.60365 14.6107 5.26754 14.3662 4.99258C14.3619 4.98823 14.3619 4.98823 14.3575 4.98383C13.9691 4.54738 13.4279 4.29858 12.8779 4.29858C12.3236 4.29858 11.8129 4.53864 11.4419 4.97949C11.0753 5.41594 10.8788 6.01393 10.8701 6.71661C10.8571 7.79031 10.9443 8.80727 11.1276 9.74566C11.1451 9.81988 11.1582 9.89405 11.1756 9.96822C11.3589 10.8194 11.6296 11.6268 11.9788 12.3775C11.5685 13.2112 11.1538 13.9313 10.8658 14.4202C10.6476 14.7912 10.4075 15.1796 10.1587 15.5681C9.03698 15.7689 8.08545 16.0133 7.2562 16.3188C6.13444 16.7248 5.23531 17.2485 4.58938 17.8726C4.1703 18.2742 3.88664 18.7019 3.74693 19.1471C3.59853 19.6054 3.60733 20.0637 3.77316 20.474C3.9259 20.8537 4.20087 21.1723 4.56749 21.3905C4.65481 21.4429 4.74646 21.4865 4.84246 21.5258C5.12183 21.6393 5.42737 21.7004 5.74593 21.7004C6.48358 21.7004 7.243 21.3818 7.88465 20.81C9.08052 19.7407 10.3158 18.021 11.0446 16.9342C11.6425 16.8425 12.2929 16.764 13.0262 16.6854C13.8905 16.5981 14.6542 16.5457 15.3482 16.5195C15.5621 16.7116 15.7672 16.8949 15.9637 17.0694C17.0549 18.0427 17.8841 18.7455 18.6349 19.2387C18.6349 19.243 18.6392 19.243 18.6435 19.243C18.9404 19.4394 19.224 19.6009 19.5078 19.7319C19.8263 19.8803 20.1493 19.9588 20.4811 19.9588C20.9001 19.9588 21.2929 19.8323 21.6202 19.601C21.952 19.3609 22.192 19.0161 22.3011 18.6277C22.4278 18.1607 22.3536 17.6414 22.0917 17.1744L22.0917 17.1744ZM12.442 8.43191C12.3809 7.89066 12.3547 7.32764 12.3635 6.73405C12.3721 6.17103 12.5773 5.79126 12.8785 5.79126C13.1054 5.79126 13.3455 5.9964 13.4546 6.38919C13.4852 6.50702 13.507 6.64233 13.5114 6.79507C13.5201 6.97839 13.5157 7.17044 13.507 7.36684C13.4809 7.92118 13.3848 8.51037 13.2189 9.14327C13.1185 9.54921 12.9876 9.97258 12.8261 10.4134C12.6428 9.79367 12.5118 9.13459 12.442 8.43191L12.442 8.43191ZM5.15974 19.9197C5.08551 19.7364 5.16843 19.3829 5.62236 18.9464C6.3163 18.283 7.40308 17.7593 8.91769 17.3621C8.62958 17.7549 8.34593 18.1128 8.0709 18.4401C7.65188 18.9464 7.25034 19.3741 6.88806 19.6971C6.57824 19.9764 6.23773 20.1511 5.91476 20.1947C5.85802 20.2034 5.80127 20.2078 5.74453 20.2078C5.46088 20.2079 5.22951 20.0944 5.15974 19.9197L5.15974 19.9197ZM12.1351 15.2801L12.1657 15.2321L12.1177 15.2408C12.1264 15.219 12.1395 15.1972 12.1525 15.1798C12.3359 14.8699 12.5672 14.4727 12.816 14.0144L12.8378 14.0624L12.8945 13.9446C13.0778 14.2065 13.2786 14.464 13.4881 14.7127C13.5886 14.8306 13.6933 14.9441 13.798 15.0575L13.7282 15.0619L13.7893 15.1186C13.6104 15.1317 13.4227 15.1492 13.235 15.1666C13.1171 15.1797 12.9949 15.1884 12.8728 15.2015C12.6196 15.2277 12.3708 15.2539 12.1351 15.2801L12.1351 15.2801ZM19.4835 18.0035C18.9641 17.6718 18.3835 17.2047 17.6677 16.5806C18.6847 16.6853 19.4835 16.9079 20.0508 17.2396C20.2996 17.3837 20.4873 17.5321 20.6139 17.6761C20.8234 17.8987 20.8976 18.0995 20.8583 18.2348C20.8234 18.3701 20.6706 18.4617 20.4829 18.4617C20.3737 18.4617 20.2603 18.4356 20.1425 18.3788C19.9417 18.2828 19.7322 18.1649 19.5096 18.0209C19.5008 18.021 19.4922 18.0122 19.4835 18.0035L19.4835 18.0035Z" id="Group-4" fill="#FFFFFF" fill-rule="evenodd" stroke="none" />
    </g>
  </g>
</svg>