<?xml version="1.0" encoding="utf-8"?>
<svg width="346.5901px" height="488.44653px" viewBox="0 0 346.5901 488.44653" version="1.1" xmlns:xlink="http://www.w3.org/1999/xlink" xmlns="http://www.w3.org/2000/svg">
  <g id="llamas" fill-opacity="1">
    <path d="M0 0L283.831 0L283.831 400L0 400L0 0Z" id="llamas" fill="none" fill-rule="evenodd" stroke="none" />
    <g id="Group-31" opacity="0.4">
      <path d="M85.4496 325.143C68.8628 313.393 55.8134 301.443 45.8413 277.641C53.7988 288.192 67.3329 294.295 82.1018 291.407C96.236 288.642 107.63 277.253 110.375 263.111C114.887 239.88 97.215 219.55 74.796 219.55C57.341 219.55 42.8009 231.884 39.3325 248.305C38.051 248.197 39.7433 248.34 38.4617 248.232C34.7326 214.807 46.6702 196.725 54.2662 184.025C74.4664 150.249 106.449 115.688 116.375 86.7997C127.114 55.545 122.423 31.9772 122.423 31.9772C122.423 31.9772 108.988 76.8398 83.9737 103.135C49.2481 139.644 -3.00139 197.274 0.134893 245.208C2.26023 277.668 11.3862 301.531 32.7426 320.453C58.7234 343.464 109.566 358.531 146.402 343.528C150.008 342.057 112.712 344.461 85.4496 325.143" id="Shape" fill="#F9ED5A" stroke="none" />
      <path d="M277.718 214.798C261.731 151.305 200.89 91.4864 186.091 73.6452C147.506 27.1198 139.177 7.62939e-06 139.177 7.62939e-06C139.177 7.62939e-06 129.798 13.3791 136.147 39.0278C142.491 64.6569 173.603 104.834 195.904 141.219C219.216 179.256 243.462 229.865 235.719 274.267C234.877 279.091 232.209 287.489 226.844 297.257C226.229 273.517 206.833 254.448 182.945 254.448C158.669 254.448 138.99 274.127 138.99 298.403C138.99 322.588 158.524 342.198 182.677 342.346C173.96 347.521 163.933 352.102 152.424 355.681C69.431 381.504 12.2988 316.522 12.2988 316.522C12.2988 316.522 17.221 354.775 85.27 390.539C87.8406 391.889 155.043 415.081 209.48 383.479C278.2 343.583 294.538 281.595 277.718 214.798" id="Shape-2" fill="#F9A050" stroke="none" />
    </g>
  </g>
</svg>