<?xml version="1.0" encoding="utf-8"?>
<svg width="33px" height="33px" viewBox="0 0 33 33" version="1.1" xmlns:xlink="http://www.w3.org/1999/xlink" xmlns="http://www.w3.org/2000/svg">
  <defs>
    <path d="M3.999 0L29.001 0Q29.1975 0 29.393 0.0192563Q29.5885 0.0385126 29.7812 0.0768396Q29.9738 0.115167 30.1618 0.172196Q30.3498 0.229224 30.5313 0.304406Q30.7129 0.379587 30.8861 0.472197Q31.0594 0.564807 31.2227 0.673953Q31.3861 0.783099 31.5379 0.907731Q31.6898 1.03236 31.8287 1.17128Q31.9676 1.3102 32.0923 1.46206Q32.2169 1.61393 32.326 1.77727Q32.4352 1.94062 32.5278 2.11388Q32.6204 2.28715 32.6956 2.46865Q32.7708 2.65015 32.8278 2.83815Q32.8848 3.02615 32.9232 3.21883Q32.9615 3.41152 32.9807 3.60703Q33 3.80254 33 3.999L33 29.001Q33 29.1975 32.9807 29.393Q32.9615 29.5885 32.9232 29.7812Q32.8848 29.9738 32.8278 30.1618Q32.7708 30.3498 32.6956 30.5313Q32.6204 30.7129 32.5278 30.8861Q32.4352 31.0594 32.326 31.2227Q32.2169 31.3861 32.0923 31.5379Q31.9676 31.6898 31.8287 31.8287Q31.6898 31.9676 31.5379 32.0923Q31.3861 32.2169 31.2227 32.326Q31.0594 32.4352 30.8861 32.5278Q30.7129 32.6204 30.5313 32.6956Q30.3498 32.7708 30.1618 32.8278Q29.9738 32.8848 29.7812 32.9232Q29.5885 32.9615 29.393 32.9807Q29.1975 33 29.001 33L3.999 33Q3.80254 33 3.60703 32.9807Q3.41152 32.9615 3.21883 32.9232Q3.02615 32.8848 2.83815 32.8278Q2.65015 32.7708 2.46865 32.6956Q2.28715 32.6204 2.11388 32.5278Q1.94062 32.4352 1.77727 32.326Q1.61393 32.2169 1.46206 32.0923Q1.3102 31.9676 1.17128 31.8287Q1.03236 31.6898 0.907731 31.5379Q0.783099 31.3861 0.673953 31.2227Q0.564807 31.0594 0.472197 30.8861Q0.379587 30.7129 0.304406 30.5313Q0.229224 30.3498 0.172196 30.1618Q0.115167 29.9738 0.0768396 29.7812Q0.0385126 29.5885 0.0192563 29.393Q0 29.1975 0 29.001L0 3.999Q0 3.80254 0.0192563 3.60703Q0.0385126 3.41152 0.0768396 3.21883Q0.115167 3.02615 0.172196 2.83815Q0.229224 2.65015 0.304406 2.46865Q0.379587 2.28715 0.472197 2.11388Q0.564807 1.94062 0.673953 1.77727Q0.783099 1.61393 0.907731 1.46206Q1.03236 1.3102 1.17128 1.17128Q1.3102 1.03236 1.46206 0.907731Q1.61393 0.783099 1.77727 0.673953Q1.94062 0.564807 2.11388 0.472197Q2.28715 0.379587 2.46865 0.304406Q2.65015 0.229224 2.83815 0.172196Q3.02615 0.115167 3.21883 0.0768396Q3.41152 0.0385126 3.60703 0.0192563Q3.80254 0 3.999 0L3.999 0Z" id="path_1" />
    <clipPath id="clip_1">
      <use xlink:href="#path_1" />
    </clipPath>
  </defs>
  <g id="mc" fill-opacity="1">
    <path d="M0 0L33 0L33 33L0 33L0 0Z" id="mc" fill="none" fill-rule="evenodd" stroke="none" />
    <path d="M11.06 8.05995L24.4964 21.4964Q24.5485 21.5485 24.5952 21.6054Q24.6419 21.6623 24.6828 21.7235Q24.7237 21.7848 24.7584 21.8497Q24.7932 21.9147 24.8213 21.9827Q24.8495 22.0507 24.8709 22.1212Q24.8923 22.1917 24.9066 22.2639Q24.921 22.3361 24.9282 22.4094Q24.9354 22.4827 24.9354 22.5563Q24.9354 22.63 24.9282 22.7033Q24.921 22.7766 24.9066 22.8488Q24.8923 22.921 24.8709 22.9915Q24.8495 23.062 24.8213 23.13Q24.7932 23.198 24.7584 23.263Q24.7237 23.3279 24.6828 23.3891Q24.6419 23.4504 24.5952 23.5073Q24.5485 23.5642 24.4964 23.6163L24.495 23.6177Q24.4429 23.6698 24.386 23.7165Q24.3291 23.7632 24.2678 23.8041Q24.2066 23.845 24.1417 23.8798Q24.0767 23.9145 24.0087 23.9427Q23.9406 23.9708 23.8702 23.9922Q23.7997 24.0136 23.7275 24.028Q23.6552 24.0423 23.582 24.0495Q23.5087 24.0568 23.435 24.0568Q23.3614 24.0568 23.2881 24.0495Q23.2148 24.0423 23.1426 24.028Q23.0704 24.0136 22.9999 23.9922Q22.9294 23.9708 22.8614 23.9427Q22.7934 23.9145 22.7284 23.8798Q22.6635 23.845 22.6022 23.8041Q22.541 23.7632 22.4841 23.7165Q22.4271 23.6698 22.3751 23.6177L8.93863 10.1813Q8.88656 10.1292 8.83984 10.0723Q8.79313 10.0154 8.75221 9.95412Q8.7113 9.89289 8.67659 9.82794Q8.64187 9.763 8.61369 9.69496Q8.58551 9.62693 8.56413 9.55646Q8.54276 9.48599 8.52839 9.41376Q8.51402 9.34153 8.5068 9.26825Q8.49959 9.19496 8.49959 9.12132Q8.49959 9.04768 8.5068 8.97439Q8.51402 8.90111 8.52839 8.82888Q8.54276 8.75665 8.56413 8.68618Q8.58551 8.61571 8.61369 8.54768Q8.64187 8.47964 8.67659 8.4147Q8.7113 8.34975 8.75221 8.28852Q8.79313 8.22729 8.83984 8.17036Q8.88656 8.11344 8.93863 8.06137L8.94005 8.05995Q8.99212 8.00788 9.04905 7.96116Q9.10597 7.91445 9.1672 7.87353Q9.22843 7.83262 9.29338 7.79791Q9.35832 7.76319 9.42636 7.73501Q9.49439 7.70683 9.56486 7.68545Q9.63533 7.66408 9.70756 7.64971Q9.77979 7.63534 9.85307 7.62812Q9.92636 7.62091 10 7.62091Q10.0736 7.62091 10.1469 7.62812Q10.2202 7.63534 10.2924 7.64971Q10.3647 7.66408 10.4351 7.68545Q10.5056 7.70683 10.5736 7.73501Q10.6417 7.76319 10.7066 7.7979Q10.7716 7.83262 10.8328 7.87353Q10.894 7.91445 10.951 7.96116Q11.0079 8.00788 11.06 8.05995Z" id="Rectángulo-Copy-6" fill="#C9E3BC" fill-rule="evenodd" stroke="none" />
    <path d="M9.05995 21.94L22.4964 8.5036Q22.5485 8.45153 22.6054 8.40481Q22.6623 8.3581 22.7235 8.31718Q22.7848 8.27627 22.8497 8.24156Q22.9147 8.20684 22.9827 8.17866Q23.0507 8.15048 23.1212 8.1291Q23.1917 8.10773 23.2639 8.09336Q23.3361 8.07899 23.4094 8.07178Q23.4827 8.06456 23.5563 8.06456Q23.63 8.06456 23.7033 8.07178Q23.7766 8.07899 23.8488 8.09336Q23.921 8.10773 23.9915 8.1291Q24.062 8.15048 24.13 8.17866Q24.198 8.20684 24.263 8.24156Q24.3279 8.27627 24.3891 8.31718Q24.4504 8.3581 24.5073 8.40481Q24.5642 8.45153 24.6163 8.5036L24.6177 8.50502Q24.6698 8.55709 24.7165 8.61402Q24.7632 8.67094 24.8041 8.73217Q24.845 8.7934 24.8798 8.85835Q24.9145 8.92329 24.9427 8.99133Q24.9708 9.05936 24.9922 9.12983Q25.0136 9.2003 25.028 9.27253Q25.0423 9.34476 25.0495 9.41804Q25.0568 9.49133 25.0568 9.56497Q25.0568 9.63861 25.0495 9.7119Q25.0423 9.78518 25.028 9.85741Q25.0136 9.92964 24.9922 10.0001Q24.9708 10.0706 24.9427 10.1386Q24.9145 10.2066 24.8798 10.2716Q24.845 10.3365 24.8041 10.3978Q24.7632 10.459 24.7165 10.5159Q24.6698 10.5729 24.6177 10.6249L11.1813 24.0614Q11.1292 24.1134 11.0723 24.1602Q11.0154 24.2069 10.9541 24.2478Q10.8929 24.2887 10.8279 24.3234Q10.763 24.3581 10.695 24.3863Q10.6269 24.4145 10.5565 24.4359Q10.486 24.4572 10.4138 24.4716Q10.3415 24.486 10.2682 24.4932Q10.195 24.5004 10.1213 24.5004Q10.0477 24.5004 9.97439 24.4932Q9.90111 24.486 9.82888 24.4716Q9.75665 24.4572 9.68618 24.4359Q9.61571 24.4145 9.54768 24.3863Q9.47964 24.3581 9.4147 24.3234Q9.34975 24.2887 9.28852 24.2478Q9.22729 24.2069 9.17036 24.1602Q9.11344 24.1134 9.06137 24.0614L9.05995 24.06Q9.00788 24.0079 8.96116 23.951Q8.91445 23.894 8.87353 23.8328Q8.83262 23.7716 8.7979 23.7066Q8.76319 23.6417 8.73501 23.5736Q8.70683 23.5056 8.68545 23.4351Q8.66407 23.3647 8.64971 23.2924Q8.63534 23.2202 8.62812 23.1469Q8.6209 23.0736 8.6209 23Q8.6209 22.9264 8.62812 22.8531Q8.63534 22.7798 8.64971 22.7076Q8.66407 22.6353 8.68545 22.5649Q8.70683 22.4944 8.73501 22.4264Q8.76319 22.3583 8.7979 22.2934Q8.83262 22.2284 8.87353 22.1672Q8.91445 22.106 8.96116 22.049Q9.00788 21.9921 9.05995 21.94Z" id="Rectángulo-Copy-7" fill="#C9E3BC" fill-rule="evenodd" stroke="none" />
    <g id="Rectángulo-4-Copy-3">
      <g clip-path="url(#clip_1)">
        <use xlink:href="#path_1" fill="none" stroke="#C9E3BC" stroke-width="6" />
      </g>
    </g>
  </g>
</svg>