<?xml version="1.0" encoding="utf-8"?>
<svg width="33px" height="33px" viewBox="0 0 33 33" version="1.1" xmlns:xlink="http://www.w3.org/1999/xlink" xmlns="http://www.w3.org/2000/svg">
  <defs>
    <path d="M3.999 0L29.001 0Q29.1975 0 29.393 0.0192563Q29.5885 0.0385126 29.7812 0.0768396Q29.9738 0.115167 30.1618 0.172196Q30.3498 0.229224 30.5313 0.304406Q30.7129 0.379587 30.8861 0.472197Q31.0594 0.564807 31.2227 0.673953Q31.3861 0.783099 31.5379 0.907731Q31.6898 1.03236 31.8287 1.17128Q31.9676 1.3102 32.0923 1.46206Q32.2169 1.61393 32.326 1.77727Q32.4352 1.94062 32.5278 2.11388Q32.6204 2.28715 32.6956 2.46865Q32.7708 2.65015 32.8278 2.83815Q32.8848 3.02615 32.9232 3.21883Q32.9615 3.41152 32.9807 3.60703Q33 3.80254 33 3.999L33 29.001Q33 29.1975 32.9807 29.393Q32.9615 29.5885 32.9232 29.7812Q32.8848 29.9738 32.8278 30.1618Q32.7708 30.3498 32.6956 30.5313Q32.6204 30.7129 32.5278 30.8861Q32.4352 31.0594 32.326 31.2227Q32.2169 31.3861 32.0923 31.5379Q31.9676 31.6898 31.8287 31.8287Q31.6898 31.9676 31.5379 32.0923Q31.3861 32.2169 31.2227 32.326Q31.0594 32.4352 30.8861 32.5278Q30.7129 32.6204 30.5313 32.6956Q30.3498 32.7708 30.1618 32.8278Q29.9738 32.8848 29.7812 32.9232Q29.5885 32.9615 29.393 32.9807Q29.1975 33 29.001 33L3.999 33Q3.80254 33 3.60703 32.9807Q3.41152 32.9615 3.21883 32.9232Q3.02615 32.8848 2.83815 32.8278Q2.65015 32.7708 2.46865 32.6956Q2.28715 32.6204 2.11388 32.5278Q1.94062 32.4352 1.77727 32.326Q1.61393 32.2169 1.46206 32.0923Q1.3102 31.9676 1.17128 31.8287Q1.03236 31.6898 0.907731 31.5379Q0.783099 31.3861 0.673953 31.2227Q0.564807 31.0594 0.472197 30.8861Q0.379587 30.7129 0.304406 30.5313Q0.229224 30.3498 0.172196 30.1618Q0.115167 29.9738 0.0768396 29.7812Q0.0385126 29.5885 0.0192563 29.393Q0 29.1975 0 29.001L0 3.999Q0 3.80254 0.0192563 3.60703Q0.0385126 3.41152 0.0768396 3.21883Q0.115167 3.02615 0.172196 2.83815Q0.229224 2.65015 0.304406 2.46865Q0.379587 2.28715 0.472197 2.11388Q0.564807 1.94062 0.673953 1.77727Q0.783099 1.61393 0.907731 1.46206Q1.03236 1.3102 1.17128 1.17128Q1.3102 1.03236 1.46206 0.907731Q1.61393 0.783099 1.77727 0.673953Q1.94062 0.564807 2.11388 0.472197Q2.28715 0.379587 2.46865 0.304406Q2.65015 0.229224 2.83815 0.172196Q3.02615 0.115167 3.21883 0.0768396Q3.41152 0.0385126 3.60703 0.0192563Q3.80254 0 3.999 0L3.999 0Z" id="path_1" />
    <clipPath id="clip_1">
      <use xlink:href="#path_1" />
    </clipPath>
  </defs>
  <g id="mh" fill-opacity="1">
    <path d="M0 0L33 0L33 33L0 33L0 0Z" id="mh" fill="none" fill-rule="evenodd" stroke="none" />
    <g id="mh">
      <g id="Rect치ngulo-4-Copy-2">
        <g clip-path="url(#clip_1)">
          <use xlink:href="#path_1" fill="none" stroke="#C9E3BC" stroke-width="6" />
        </g>
      </g>
      <g id="Grupo-6-Copy" transform="translate(6.5 7.5)">
        <g id="Grupo-5">
          <path d="M1.499 0L18.501 0Q18.5746 0 18.6479 0.00721809Q18.7212 0.0144362 18.7934 0.0288029Q18.8657 0.0431695 18.9361 0.0645464Q19.0066 0.0859233 19.0746 0.114105Q19.1427 0.142286 19.2076 0.177Q19.2726 0.211714 19.3338 0.252627Q19.395 0.29354 19.452 0.340257Q19.5089 0.386975 19.561 0.439047Q19.613 0.491119 19.6597 0.548044Q19.7065 0.60497 19.7474 0.6662Q19.7883 0.727431 19.823 0.792376Q19.8577 0.857322 19.8859 0.925357Q19.9141 0.993393 19.9355 1.06386Q19.9568 1.13433 19.9712 1.20656Q19.9856 1.27879 19.9928 1.35207Q20 1.42536 20 1.499L20 1.501Q20 1.57464 19.9928 1.64793Q19.9856 1.72121 19.9712 1.79344Q19.9568 1.86567 19.9355 1.93614Q19.9141 2.00661 19.8859 2.07464Q19.8577 2.14268 19.823 2.20762Q19.7883 2.27257 19.7474 2.3338Q19.7065 2.39503 19.6597 2.45196Q19.613 2.50888 19.561 2.56095Q19.5089 2.61303 19.452 2.65974Q19.395 2.70646 19.3338 2.74737Q19.2726 2.78829 19.2076 2.823Q19.1427 2.85771 19.0746 2.8859Q19.0066 2.91408 18.9361 2.93545Q18.8657 2.95683 18.7934 2.9712Q18.7212 2.98556 18.6479 2.99278Q18.5746 3 18.501 3L1.499 3Q1.42536 3 1.35207 2.99278Q1.27879 2.98556 1.20656 2.9712Q1.13433 2.95683 1.06386 2.93545Q0.993393 2.91408 0.925357 2.8859Q0.857322 2.85771 0.792376 2.823Q0.727431 2.78829 0.6662 2.74737Q0.60497 2.70646 0.548044 2.65974Q0.491119 2.61303 0.439047 2.56095Q0.386975 2.50888 0.340257 2.45196Q0.29354 2.39503 0.252627 2.3338Q0.211714 2.27257 0.177 2.20762Q0.142286 2.14268 0.114105 2.07464Q0.0859233 2.00661 0.0645464 1.93614Q0.0431695 1.86567 0.0288029 1.79344Q0.0144362 1.72121 0.00721809 1.64793Q0 1.57464 0 1.501L0 1.499Q0 1.42536 0.00721809 1.35207Q0.0144362 1.27879 0.0288029 1.20656Q0.0431695 1.13433 0.0645464 1.06386Q0.0859233 0.993393 0.114105 0.925357Q0.142286 0.857322 0.177 0.792376Q0.211714 0.727431 0.252627 0.6662Q0.29354 0.60497 0.340257 0.548044Q0.386975 0.491119 0.439047 0.439047Q0.491119 0.386975 0.548044 0.340257Q0.60497 0.29354 0.6662 0.252627Q0.727431 0.211714 0.792376 0.177Q0.857322 0.142286 0.925357 0.114105Q0.993393 0.0859233 1.06386 0.0645464Q1.13433 0.0431695 1.20656 0.0288029Q1.27879 0.0144362 1.35207 0.00721809Q1.42536 0 1.499 0L1.499 0Z" id="Rect치ngulo" fill="#C9E3BC" fill-rule="evenodd" stroke="none" />
          <path d="M1.499 15L18.501 15Q18.5746 15 18.6479 15.0072Q18.7212 15.0144 18.7934 15.0288Q18.8657 15.0432 18.9361 15.0645Q19.0066 15.0859 19.0746 15.1141Q19.1427 15.1423 19.2076 15.177Q19.2726 15.2117 19.3338 15.2526Q19.395 15.2935 19.452 15.3403Q19.5089 15.387 19.561 15.439Q19.613 15.4911 19.6597 15.548Q19.7065 15.605 19.7474 15.6662Q19.7883 15.7274 19.823 15.7924Q19.8577 15.8573 19.8859 15.9254Q19.9141 15.9934 19.9355 16.0639Q19.9568 16.1343 19.9712 16.2066Q19.9856 16.2788 19.9928 16.3521Q20 16.4254 20 16.499L20 16.501Q20 16.5746 19.9928 16.6479Q19.9856 16.7212 19.9712 16.7934Q19.9568 16.8657 19.9355 16.9361Q19.9141 17.0066 19.8859 17.0746Q19.8577 17.1427 19.823 17.2076Q19.7883 17.2726 19.7474 17.3338Q19.7065 17.395 19.6597 17.452Q19.613 17.5089 19.561 17.561Q19.5089 17.613 19.452 17.6597Q19.395 17.7065 19.3338 17.7474Q19.2726 17.7883 19.2076 17.823Q19.1427 17.8577 19.0746 17.8859Q19.0066 17.9141 18.9361 17.9355Q18.8657 17.9568 18.7934 17.9712Q18.7212 17.9856 18.6479 17.9928Q18.5746 18 18.501 18L1.499 18Q1.42536 18 1.35207 17.9928Q1.27879 17.9856 1.20656 17.9712Q1.13433 17.9568 1.06386 17.9355Q0.993393 17.9141 0.925357 17.8859Q0.857322 17.8577 0.792376 17.823Q0.727431 17.7883 0.6662 17.7474Q0.60497 17.7065 0.548044 17.6597Q0.491119 17.613 0.439047 17.561Q0.386975 17.5089 0.340257 17.452Q0.29354 17.395 0.252627 17.3338Q0.211714 17.2726 0.177 17.2076Q0.142286 17.1427 0.114105 17.0746Q0.0859233 17.0066 0.0645464 16.9361Q0.0431695 16.8657 0.0288029 16.7934Q0.0144362 16.7212 0.00721809 16.6479Q0 16.5746 0 16.501L0 16.499Q0 16.4254 0.00721809 16.3521Q0.0144362 16.2788 0.0288029 16.2066Q0.0431695 16.1343 0.0645464 16.0639Q0.0859233 15.9934 0.114105 15.9254Q0.142286 15.8573 0.177 15.7924Q0.211714 15.7274 0.252627 15.6662Q0.29354 15.605 0.340257 15.548Q0.386975 15.4911 0.439047 15.439Q0.491119 15.387 0.548044 15.3403Q0.60497 15.2935 0.6662 15.2526Q0.727431 15.2117 0.792376 15.177Q0.857322 15.1423 0.925357 15.1141Q0.993393 15.0859 1.06386 15.0645Q1.13433 15.0432 1.20656 15.0288Q1.27879 15.0144 1.35207 15.0072Q1.42536 15 1.499 15L1.499 15Z" id="Rect치ngulo-Copy" fill="#C9E3BC" fill-rule="evenodd" stroke="none" />
        </g>
      </g>
      <path d="M7.999 15L25.001 15Q25.0746 15 25.1479 15.0072Q25.2212 15.0144 25.2934 15.0288Q25.3657 15.0432 25.4361 15.0645Q25.5066 15.0859 25.5746 15.1141Q25.6427 15.1423 25.7076 15.177Q25.7726 15.2117 25.8338 15.2526Q25.895 15.2935 25.952 15.3403Q26.0089 15.387 26.061 15.439Q26.113 15.4911 26.1597 15.548Q26.2065 15.605 26.2474 15.6662Q26.2883 15.7274 26.323 15.7924Q26.3577 15.8573 26.3859 15.9254Q26.4141 15.9934 26.4355 16.0639Q26.4568 16.1343 26.4712 16.2066Q26.4856 16.2788 26.4928 16.3521Q26.5 16.4254 26.5 16.499L26.5 16.501Q26.5 16.5746 26.4928 16.6479Q26.4856 16.7212 26.4712 16.7934Q26.4568 16.8657 26.4355 16.9361Q26.4141 17.0066 26.3859 17.0746Q26.3577 17.1427 26.323 17.2076Q26.2883 17.2726 26.2474 17.3338Q26.2065 17.395 26.1597 17.452Q26.113 17.5089 26.061 17.561Q26.0089 17.613 25.952 17.6597Q25.895 17.7065 25.8338 17.7474Q25.7726 17.7883 25.7076 17.823Q25.6427 17.8577 25.5746 17.8859Q25.5066 17.9141 25.4361 17.9355Q25.3657 17.9568 25.2934 17.9712Q25.2212 17.9856 25.1479 17.9928Q25.0746 18 25.001 18L7.999 18Q7.92536 18 7.85207 17.9928Q7.77879 17.9856 7.70656 17.9712Q7.63433 17.9568 7.56386 17.9355Q7.49339 17.9141 7.42536 17.8859Q7.35732 17.8577 7.29238 17.823Q7.22743 17.7883 7.1662 17.7474Q7.10497 17.7065 7.04804 17.6597Q6.99112 17.613 6.93905 17.561Q6.88697 17.5089 6.84026 17.452Q6.79354 17.395 6.75263 17.3338Q6.71171 17.2726 6.677 17.2076Q6.64228 17.1427 6.6141 17.0746Q6.58592 17.0066 6.56455 16.9361Q6.54317 16.8657 6.5288 16.7934Q6.51444 16.7212 6.50722 16.6479Q6.5 16.5746 6.5 16.501L6.5 16.499Q6.5 16.4254 6.50722 16.3521Q6.51444 16.2788 6.5288 16.2066Q6.54317 16.1343 6.56455 16.0639Q6.58592 15.9934 6.6141 15.9254Q6.64229 15.8573 6.677 15.7924Q6.71171 15.7274 6.75263 15.6662Q6.79354 15.605 6.84026 15.548Q6.88697 15.4911 6.93905 15.439Q6.99112 15.387 7.04804 15.3403Q7.10497 15.2935 7.1662 15.2526Q7.22743 15.2117 7.29238 15.177Q7.35732 15.1423 7.42536 15.1141Q7.49339 15.0859 7.56386 15.0645Q7.63433 15.0432 7.70656 15.0288Q7.77879 15.0144 7.85207 15.0072Q7.92536 15 7.999 15Z" id="Rect치ngulo-Copy-5" fill="#C9E3BC" fill-rule="evenodd" stroke="none" />
    </g>
  </g>
</svg>