<?xml version="1.0" encoding="utf-8"?>
<svg width="177.70605px" height="67.90039px" viewBox="0 0 177.70605 67.90039" version="1.1" xmlns:xlink="http://www.w3.org/1999/xlink" xmlns="http://www.w3.org/2000/svg">
  <g id="v-congreso" fill-opacity="1">
    <path d="M0 0L177.706 0L177.706 67.9004L0 67.9004L0 0Z" id="v-congreso" fill="none" fill-rule="evenodd" stroke="none" />
    <g id="v-congreso">
      <path d="M73.1274 4.03906C73.1274 4.64421 73.046 5.19564 72.8831 5.69336C72.7201 6.19108 72.4802 6.61719 72.1633 6.97168C71.8464 7.32617 71.4579 7.6001 70.9978 7.79346C70.5377 7.98682 70.0086 8.0835 69.4106 8.0835C68.784 8.0835 68.2371 7.98682 67.7698 7.79346C67.3025 7.6001 66.9149 7.32617 66.6069 6.97168C66.299 6.61719 66.068 6.19019 65.9141 5.69067C65.7601 5.19116 65.6831 4.63704 65.6831 4.02832C65.6831 3.4196 65.7601 2.86727 65.9141 2.37134C66.068 1.87541 66.2999 1.45199 66.6096 1.10107C66.9193 0.750163 67.3079 0.478923 67.7751 0.287354C68.2424 0.0957844 68.7912 0 69.4214 0C70.0158 0 70.5431 0.0957844 71.0032 0.287354C71.4633 0.478923 71.8509 0.751058 72.166 1.10376C72.4811 1.45646 72.7201 1.88078 72.8831 2.37671C73.046 2.87264 73.1274 3.42676 73.1274 4.03906L73.1274 4.03906ZM67.5308 4.03906C67.5308 4.56543 67.5648 5.0345 67.6328 5.44629C67.7008 5.85807 67.8101 6.2063 67.9604 6.49097C68.1108 6.77563 68.3051 6.99316 68.5432 7.14355C68.7813 7.29395 69.0705 7.36914 69.4106 7.36914C69.7544 7.36914 70.0453 7.29395 70.2834 7.14355C70.5216 6.99316 70.714 6.77563 70.8608 6.49097C71.0077 6.2063 71.1142 5.85807 71.1804 5.44629C71.2467 5.0345 71.2798 4.56543 71.2798 4.03906C71.2798 3.5127 71.2467 3.04362 71.1804 2.63184C71.1142 2.22005 71.0077 1.87183 70.8608 1.58716C70.714 1.30249 70.5225 1.08586 70.2861 0.937256C70.0498 0.788656 69.7616 0.714355 69.4214 0.714355C69.0776 0.714355 68.7858 0.788656 68.5459 0.937256C68.306 1.08586 68.1108 1.30249 67.9604 1.58716C67.8101 1.87183 67.7008 2.22005 67.6328 2.63184C67.5648 3.04362 67.5308 3.5127 67.5308 4.03906L67.5308 4.03906ZM61.5366 8.0835C61.0425 8.0835 60.6307 8.03695 60.3013 7.94385C59.9718 7.85075 59.7078 7.73079 59.509 7.58398C59.3103 7.43717 59.1689 7.27246 59.0847 7.08984C59.0006 6.90723 58.9585 6.7264 58.9585 6.54736C58.9585 6.35758 58.9934 6.19824 59.0632 6.06934C59.1331 5.94043 59.2262 5.8348 59.3425 5.75244C59.4589 5.67008 59.5914 5.611 59.74 5.5752C59.8886 5.53939 60.0435 5.52148 60.2046 5.52148C60.2046 5.83659 60.2422 6.1132 60.3174 6.35132C60.3926 6.58944 60.4964 6.78817 60.6289 6.94751C60.7614 7.10685 60.9198 7.22681 61.1042 7.30737C61.2887 7.38794 61.4901 7.42822 61.7085 7.42822C61.9233 7.42822 62.1149 7.39779 62.2832 7.33691C62.4515 7.27604 62.5947 7.19189 62.7129 7.08447C62.8311 6.97705 62.9206 6.85083 62.9814 6.70581C63.0423 6.56079 63.0728 6.40413 63.0728 6.23584C63.0728 6.04964 63.0352 5.88403 62.96 5.73901C62.8848 5.59399 62.7711 5.45972 62.6189 5.33618C62.4667 5.21265 62.2751 5.09448 62.0442 4.98169C61.8132 4.8689 61.5438 4.74805 61.2358 4.61914C60.8527 4.46159 60.5295 4.29956 60.2664 4.13306C60.0032 3.96655 59.791 3.78662 59.6299 3.59326C59.4688 3.3999 59.3533 3.19043 59.2834 2.96484C59.2136 2.73926 59.1787 2.49219 59.1787 2.22363C59.1787 1.88704 59.2467 1.58268 59.3828 1.31055C59.5189 1.03841 59.7069 0.805664 59.9468 0.612305C60.1867 0.418945 60.4714 0.270345 60.8008 0.166504C61.1302 0.0626628 61.4883 0.0107422 61.875 0.0107422C62.2796 0.0107422 62.6287 0.043864 62.9224 0.110107C63.216 0.176351 63.4586 0.266764 63.6501 0.381348C63.8417 0.495931 63.9841 0.631104 64.0771 0.786865C64.1702 0.942627 64.2168 1.11003 64.2168 1.28906C64.2168 1.41797 64.189 1.53792 64.1335 1.64893C64.078 1.75993 63.9939 1.85661 63.8811 1.93896C63.7683 2.02132 63.6269 2.08577 63.4568 2.13232C63.2867 2.17887 63.0889 2.20215 62.8633 2.20215C62.8633 2.04818 62.8427 1.88257 62.8015 1.70532C62.7603 1.52808 62.6932 1.36336 62.6001 1.21118C62.507 1.059 62.3862 0.93278 62.2375 0.83252C62.0889 0.732259 61.909 0.682129 61.6978 0.682129C61.5509 0.682129 61.4113 0.703613 61.2788 0.746582C61.1463 0.789551 61.0308 0.854004 60.9324 0.939941C60.8339 1.02588 60.756 1.13241 60.6987 1.25952C60.6414 1.38664 60.6128 1.53255 60.6128 1.69727C60.6128 1.85124 60.6379 1.99626 60.688 2.13232C60.7381 2.26839 60.8303 2.40177 60.9646 2.53247C61.0989 2.66317 61.2833 2.79386 61.5178 2.92456C61.7524 3.05526 62.0558 3.1958 62.4282 3.34619C62.8042 3.50016 63.1247 3.65771 63.3896 3.81885C63.6546 3.97998 63.8722 4.15275 64.0422 4.33716C64.2123 4.52157 64.3359 4.72388 64.4128 4.94409C64.4898 5.16431 64.5283 5.40869 64.5283 5.67725C64.5283 6.03174 64.4585 6.35669 64.3188 6.6521C64.1792 6.94751 63.9787 7.20085 63.7173 7.41211C63.4559 7.62337 63.1417 7.78809 62.7747 7.90625C62.4076 8.02441 61.995 8.0835 61.5366 8.0835L61.5366 8.0835ZM54.5273 7.30469L56.7295 7.30469C56.8405 7.30469 56.9354 7.2841 57.0142 7.24292C57.0929 7.20174 57.161 7.14355 57.2183 7.06836C57.2756 6.99316 57.3212 6.90454 57.3552 6.80249C57.3892 6.70044 57.4152 6.58854 57.4331 6.4668L57.519 5.95117L58.2817 5.95117L58.2012 7.97607L51.7559 7.97607L51.7559 7.39063L52.2178 7.39063C52.2966 7.39063 52.37 7.38346 52.438 7.36914C52.506 7.35482 52.566 7.32528 52.6179 7.28052C52.6698 7.23576 52.7101 7.16952 52.7388 7.08179C52.7674 6.99406 52.7817 6.87858 52.7817 6.73535L52.7817 1.41797C52.7817 1.26042 52.7674 1.13509 52.7388 1.04199C52.7101 0.948893 52.6707 0.877279 52.6206 0.827148C52.5705 0.777018 52.5114 0.743897 52.4434 0.727783C52.3753 0.71167 52.3001 0.703613 52.2178 0.703613L51.7559 0.703613L51.7559 0.123535L57.8628 0.123535L57.9058 2.14844L57.1377 2.14844L57.084 1.62744C57.0553 1.35889 56.9873 1.15299 56.8799 1.00977C56.7725 0.866537 56.606 0.794922 56.3804 0.794922L54.5273 0.794922L54.5273 3.54492L57.1377 3.54492L57.1377 4.20557L54.5273 4.20557L54.5273 7.30469ZM43.9785 7.39063L44.4404 7.39063C44.5156 7.39063 44.5872 7.38346 44.6553 7.36914C44.7233 7.35482 44.7833 7.32528 44.8352 7.28052C44.8871 7.23576 44.9283 7.16952 44.9587 7.08179C44.9892 6.99406 45.0044 6.87858 45.0044 6.73535L45.0044 1.375C45.0044 1.22819 44.9892 1.11092 44.9587 1.02319C44.9283 0.935465 44.8871 0.868327 44.8352 0.821777C44.7833 0.775228 44.7233 0.743897 44.6553 0.727783C44.5872 0.71167 44.5156 0.703613 44.4404 0.703613L43.9785 0.703613L43.9785 0.123535L47.5234 0.123535C48.5618 0.123535 49.3237 0.2972 49.8088 0.644531C50.294 0.991862 50.5366 1.49674 50.5366 2.15918C50.5366 2.44922 50.4937 2.70703 50.4077 2.93262C50.3218 3.1582 50.2081 3.35514 50.0667 3.52344C49.9252 3.69173 49.765 3.83407 49.5859 3.95044C49.4069 4.06681 49.2243 4.1626 49.0381 4.23779L50.3486 6.49365C50.4417 6.6512 50.5321 6.78638 50.6199 6.89917C50.7076 7.01196 50.7953 7.10506 50.8831 7.17847C50.9708 7.25187 51.0612 7.30558 51.1543 7.3396C51.2474 7.37362 51.3459 7.39063 51.4497 7.39063L51.4927 7.39063L51.4927 7.97607L51.1328 7.97607C50.8034 7.97607 50.516 7.96354 50.2708 7.93848C50.0255 7.91341 49.8106 7.86418 49.6262 7.79077C49.4418 7.71737 49.2825 7.61621 49.1482 7.48731C49.0139 7.3584 48.8895 7.19189 48.7749 6.98779L47.4697 4.56543L46.7393 4.56543L46.7393 6.73535C46.7393 6.87858 46.7545 6.99406 46.7849 7.08179C46.8153 7.16952 46.8565 7.23576 46.9084 7.28052C46.9604 7.32528 47.0203 7.35482 47.0884 7.36914C47.1564 7.38346 47.228 7.39063 47.3032 7.39063L47.7759 7.39063L47.7759 7.97607L43.9785 7.97607L43.9785 7.39063ZM46.7393 3.92627L47.3569 3.92627C47.6112 3.92627 47.8233 3.89225 47.9934 3.82422C48.1635 3.75618 48.2996 3.65503 48.4016 3.52075C48.5037 3.38647 48.5771 3.21818 48.6218 3.01587C48.6666 2.81356 48.689 2.57812 48.689 2.30957C48.689 2.03027 48.6639 1.79395 48.6138 1.60059C48.5636 1.40723 48.4849 1.24878 48.3774 1.12524C48.27 1.00171 48.1304 0.912191 47.9585 0.856689C47.7866 0.801188 47.5789 0.773438 47.3354 0.773438L46.7393 0.773438L46.7393 3.92627ZM39.8643 8.0835C39.1839 8.0835 38.5904 7.98682 38.0837 7.79346C37.5771 7.6001 37.1554 7.32617 36.8188 6.97168C36.4823 6.61719 36.2316 6.19108 36.0669 5.69336C35.9022 5.19564 35.8198 4.64421 35.8198 4.03906C35.8198 3.44466 35.9076 2.90039 36.083 2.40625C36.2585 1.91211 36.5181 1.48779 36.8618 1.1333C37.2056 0.778809 37.6335 0.503093 38.1455 0.306152C38.6576 0.109212 39.2502 0.0107422 39.9233 0.0107422C40.3817 0.0107422 40.7818 0.043864 41.1238 0.110107C41.4657 0.176351 41.7522 0.266764 41.9832 0.381348C42.2141 0.495931 42.3869 0.631104 42.5015 0.786865C42.616 0.942627 42.6733 1.11003 42.6733 1.28906C42.6733 1.41797 42.6429 1.53882 42.582 1.65161C42.5212 1.7644 42.4299 1.86377 42.3081 1.94971C42.1864 2.03564 42.0378 2.10278 41.8623 2.15112C41.6868 2.19946 41.4827 2.22363 41.25 2.22363C41.25 2.00163 41.2231 1.79753 41.1694 1.61133C41.1157 1.42513 41.0325 1.26579 40.9197 1.1333C40.8069 1.00081 40.6646 0.897868 40.4927 0.824463C40.3208 0.751058 40.1185 0.714355 39.8857 0.714355C39.4847 0.714355 39.1436 0.78776 38.8625 0.93457C38.5815 1.08138 38.3523 1.29622 38.175 1.5791C37.9978 1.86198 37.8689 2.21021 37.7883 2.62378C37.7078 3.03735 37.6675 3.50911 37.6675 4.03906C37.6675 4.56901 37.7096 5.03898 37.7937 5.44897C37.8778 5.85897 38.0139 6.20361 38.2019 6.48291C38.3899 6.76221 38.6334 6.97437 38.9324 7.11938C39.2314 7.2644 39.5975 7.33691 40.0308 7.33691C40.1668 7.33691 40.3029 7.33154 40.439 7.3208C40.575 7.31006 40.7075 7.29036 40.8364 7.26172L40.8364 5.64502C40.8364 5.3514 40.7702 5.1473 40.6377 5.03271C40.5052 4.91813 40.3101 4.86084 40.0522 4.86084L39.9072 4.86084L39.9072 4.28076L43.3662 4.28076L43.3662 4.86084L43.2212 4.86084C43.1102 4.86084 43.0135 4.87427 42.9312 4.90112C42.8488 4.92798 42.7808 4.97363 42.7271 5.03809C42.6733 5.10254 42.634 5.18758 42.6089 5.29321C42.5838 5.39884 42.5713 5.53044 42.5713 5.68799L42.5713 7.49268C42.1416 7.68962 41.7083 7.83732 41.2715 7.93579C40.8346 8.03426 40.3656 8.0835 39.8643 8.0835L39.8643 8.0835ZM32.9893 7.97607L28.6978 1.91748L28.6978 6.67627C28.6978 6.83382 28.713 6.95915 28.7434 7.05225C28.7738 7.14535 28.8141 7.21696 28.8643 7.26709C28.9144 7.31722 28.9744 7.35034 29.0442 7.36646C29.114 7.38257 29.1865 7.39063 29.2617 7.39063L29.7236 7.39063L29.7236 7.97607L26.8501 7.97607L26.8501 7.39063L27.312 7.39063C27.3908 7.39063 27.4642 7.38257 27.5322 7.36646C27.6003 7.35034 27.6602 7.31722 27.7122 7.26709C27.7641 7.21696 27.8044 7.14535 27.833 7.05225C27.8617 6.95915 27.876 6.83382 27.876 6.67627L27.876 1.375C27.876 1.22819 27.8608 1.11092 27.8303 1.02319C27.7999 0.935465 27.7587 0.868327 27.7068 0.821777C27.6549 0.775228 27.5949 0.743897 27.5269 0.727783C27.4588 0.71167 27.3872 0.703613 27.312 0.703613L26.8501 0.703613L26.8501 0.123535L29.2939 0.123535L33.1772 5.61279L33.1772 1.375C33.1772 1.22819 33.162 1.11092 33.1316 1.02319C33.1012 0.935465 33.06 0.868327 33.0081 0.821777C32.9561 0.775228 32.8962 0.743897 32.8281 0.727783C32.7601 0.71167 32.6885 0.703613 32.6133 0.703613L32.1514 0.703613L32.1514 0.123535L35.0249 0.123535L35.0249 0.703613L34.563 0.703613C34.4878 0.703613 34.4162 0.71167 34.3481 0.727783C34.2801 0.743897 34.2201 0.777018 34.1682 0.827148C34.1163 0.877279 34.076 0.948893 34.0474 1.04199C34.0187 1.13509 34.0044 1.26042 34.0044 1.41797L34.0044 7.97607L32.9893 7.97607ZM25.937 4.03906C25.937 4.64421 25.8556 5.19564 25.6926 5.69336C25.5297 6.19108 25.2898 6.61719 24.9729 6.97168C24.656 7.32617 24.2675 7.6001 23.8074 7.79346C23.3472 7.98682 22.8182 8.0835 22.2202 8.0835C21.5936 8.0835 21.0466 7.98682 20.5793 7.79346C20.1121 7.6001 19.7244 7.32617 19.4165 6.97168C19.1086 6.61719 18.8776 6.19019 18.7236 5.69067C18.5697 5.19116 18.4927 4.63704 18.4927 4.02832C18.4927 3.4196 18.5697 2.86727 18.7236 2.37134C18.8776 1.87541 19.1095 1.45199 19.4192 1.10107C19.7289 0.750163 20.1174 0.478923 20.5847 0.287354C21.052 0.0957844 21.6007 0 22.231 0C22.8254 0 23.3526 0.0957844 23.8127 0.287354C24.2729 0.478923 24.6605 0.751058 24.9756 1.10376C25.2907 1.45646 25.5297 1.88078 25.6926 2.37671C25.8556 2.87264 25.937 3.42676 25.937 4.03906L25.937 4.03906ZM20.3403 4.03906C20.3403 4.56543 20.3743 5.0345 20.4424 5.44629C20.5104 5.85807 20.6196 6.2063 20.77 6.49097C20.9204 6.77563 21.1147 6.99316 21.3528 7.14355C21.5909 7.29395 21.88 7.36914 22.2202 7.36914C22.564 7.36914 22.8549 7.29395 23.093 7.14355C23.3311 6.99316 23.5236 6.77563 23.6704 6.49097C23.8172 6.2063 23.9237 5.85807 23.99 5.44629C24.0562 5.0345 24.0894 4.56543 24.0894 4.03906C24.0894 3.5127 24.0562 3.04362 23.99 2.63184C23.9237 2.22005 23.8172 1.87183 23.6704 1.58716C23.5236 1.30249 23.332 1.08586 23.0957 0.937256C22.8594 0.788656 22.5711 0.714355 22.231 0.714355C21.8872 0.714355 21.5954 0.788656 21.3555 0.937256C21.1156 1.08586 20.9204 1.30249 20.77 1.58716C20.6196 1.87183 20.5104 2.22005 20.4424 2.63184C20.3743 3.04362 20.3403 3.5127 20.3403 4.03906L20.3403 4.03906ZM15.2109 7.20801C15.4795 7.20801 15.7185 7.17668 15.928 7.11401C16.1375 7.05135 16.3245 6.96989 16.4893 6.86963C16.654 6.76937 16.7981 6.65658 16.9216 6.53125C17.0452 6.40592 17.1535 6.28239 17.2466 6.16064C17.3039 6.20361 17.3495 6.26986 17.3835 6.35938C17.4176 6.44889 17.4346 6.5402 17.4346 6.6333C17.4346 6.78727 17.3934 6.9493 17.311 7.11938C17.2287 7.28947 17.0908 7.44613 16.8975 7.58936C16.7041 7.73258 16.4481 7.85075 16.1294 7.94385C15.8107 8.03695 15.4168 8.0835 14.9478 8.0835C14.3104 8.0835 13.7536 7.98682 13.2773 7.79346C12.8011 7.6001 12.4054 7.32617 12.0903 6.97168C11.7752 6.61719 11.5389 6.19108 11.3813 5.69336C11.2238 5.19564 11.145 4.64421 11.145 4.03906C11.145 3.44466 11.2256 2.90039 11.3867 2.40625C11.5479 1.91211 11.7869 1.48779 12.1038 1.1333C12.4207 0.778809 12.8163 0.503093 13.2908 0.306152C13.7652 0.109212 14.314 0.0107422 14.937 0.0107422C15.3595 0.0107422 15.7275 0.043864 16.0408 0.110107C16.3541 0.176351 16.6146 0.266764 16.8223 0.381348C17.0299 0.495931 17.1857 0.631104 17.2896 0.786865C17.3934 0.942627 17.4453 1.11003 17.4453 1.28906C17.4453 1.42513 17.4158 1.55135 17.3567 1.66772C17.2976 1.7841 17.2099 1.88525 17.0935 1.97119C16.9771 2.05713 16.833 2.12427 16.6611 2.17261C16.4893 2.22095 16.2923 2.24512 16.0703 2.24512C16.0703 2.0625 16.0506 1.88078 16.0112 1.69995C15.9718 1.51912 15.9047 1.35531 15.8098 1.2085C15.7149 1.06169 15.5905 0.942627 15.4365 0.851318C15.2826 0.76001 15.091 0.714355 14.8618 0.714355C14.5145 0.714355 14.2209 0.78776 13.981 0.93457C13.741 1.08138 13.5486 1.29622 13.4036 1.5791C13.2585 1.86198 13.1538 2.21021 13.0894 2.62378C13.0249 3.03735 12.9927 3.50911 12.9927 4.03906C12.9927 4.56901 13.0321 5.03271 13.1108 5.43018C13.1896 5.82764 13.3167 6.15796 13.4922 6.42114C13.6676 6.68433 13.8959 6.88127 14.177 7.01196C14.4581 7.14266 14.8027 7.20801 15.2109 7.20801L15.2109 7.20801ZM7.68066 0.703613L7.14893 0.703613C7.0988 0.703613 7.05404 0.714355 7.01465 0.73584C6.97526 0.757324 6.93587 0.797607 6.89648 0.85669C6.8571 0.915772 6.81592 0.997233 6.77295 1.10107C6.72998 1.20492 6.67985 1.34098 6.62256 1.50928L4.37744 7.97607L3.27637 7.97607L0.93457 1.23535C0.898763 1.13151 0.853109 1.04468 0.797607 0.974854C0.742106 0.905029 0.683024 0.850423 0.620361 0.811035C0.557699 0.771647 0.494141 0.743897 0.429688 0.727783C0.365234 0.71167 0.306152 0.703613 0.252441 0.703613L0 0.703613L0 0.123535L3.63086 0.123535L3.63086 0.703613L3.12598 0.703613C3.07227 0.703613 3.02034 0.709879 2.97021 0.722412C2.92008 0.734945 2.87443 0.755534 2.83325 0.78418C2.79207 0.812826 2.75895 0.850423 2.73389 0.896973C2.70882 0.943522 2.69629 1.00081 2.69629 1.06885C2.69629 1.14046 2.70703 1.22192 2.72852 1.31323C2.75 1.40454 2.77148 1.48063 2.79297 1.5415L3.91553 4.93066C3.94417 5.01302 3.97371 5.1097 4.00415 5.2207C4.03459 5.33171 4.06413 5.44808 4.09277 5.56982C4.12142 5.69157 4.14738 5.81242 4.17065 5.93237C4.19393 6.05233 4.21094 6.16244 4.22168 6.2627C4.23242 6.20182 4.25122 6.11857 4.27808 6.01294C4.30493 5.90731 4.33626 5.79272 4.37207 5.66919C4.40788 5.54565 4.44458 5.42212 4.48218 5.29858C4.51978 5.17505 4.55469 5.06315 4.58691 4.96289L5.72021 1.6167C5.73454 1.57731 5.74976 1.53345 5.76587 1.48511C5.78198 1.43677 5.79631 1.38753 5.80884 1.3374C5.82137 1.28727 5.83211 1.23893 5.84106 1.19238C5.85002 1.14583 5.85449 1.10824 5.85449 1.07959C5.85449 0.957845 5.81421 0.864746 5.73364 0.800293C5.65308 0.73584 5.54655 0.703613 5.41406 0.703613L4.83936 0.703613L4.83936 0.123535L7.68066 0.123535L7.68066 0.703613Z" id="V-CONGRESO" fill="#00A4B7" stroke="none" />
      <path d="M58.6582 61.2822C58.6582 62.2666 58.5352 63.1558 58.2891 63.9497C58.043 64.7437 57.6768 65.4204 57.1904 65.98C56.7041 66.5396 56.0947 66.9702 55.3623 67.272C54.6299 67.5737 53.7744 67.7246 52.7959 67.7246L47.2852 67.7246L47.2852 66.9688L47.5137 66.9688C47.7188 66.9688 47.9106 66.9541 48.0894 66.9248C48.2681 66.8955 48.4248 66.8354 48.5596 66.7446C48.6943 66.6538 48.7998 66.5234 48.876 66.3535C48.9521 66.1836 48.9902 65.958 48.9902 65.6768L48.9902 56.8525C48.9902 56.5889 48.9507 56.3765 48.8716 56.2153C48.7925 56.0542 48.6855 55.9297 48.5508 55.8418C48.416 55.7539 48.2593 55.6968 48.0806 55.6704C47.9019 55.644 47.7129 55.6309 47.5137 55.6309L47.2852 55.6309L47.2852 54.875L52.7959 54.875C53.7217 54.875 54.5479 55.0171 55.2744 55.3013C56.001 55.5854 56.6147 56 57.1157 56.5449C57.6167 57.0898 57.999 57.7607 58.2627 58.5576C58.5264 59.3545 58.6582 60.2627 58.6582 61.2822L58.6582 61.2822ZM52.374 66.8105C53.0889 66.8105 53.7144 66.689 54.2505 66.4458C54.7866 66.2026 55.2334 65.8467 55.5908 65.3779C55.9482 64.9092 56.2163 64.332 56.395 63.6465C56.5737 62.9609 56.6631 62.1729 56.6631 61.2822C56.6631 59.4951 56.3071 58.1299 55.5952 57.1865C54.8833 56.2432 53.8154 55.7715 52.3916 55.7715L50.8096 55.7715L50.8096 66.8105L52.374 66.8105ZM40.21 67.9004C39.501 67.9004 38.8652 67.8257 38.3027 67.6763C37.7402 67.5269 37.2642 67.2896 36.8745 66.9644C36.4849 66.6392 36.1875 66.2202 35.9824 65.7075C35.7773 65.1948 35.6748 64.5723 35.6748 63.8398L35.6748 56.8525C35.6748 56.5889 35.6353 56.3765 35.5562 56.2153C35.4771 56.0542 35.3701 55.9297 35.2354 55.8418C35.1006 55.7539 34.9438 55.6968 34.7651 55.6704C34.5864 55.644 34.3975 55.6309 34.1982 55.6309L33.9697 55.6309L33.9697 54.875L39.208 54.875L39.208 55.6309L38.9707 55.6309C38.7715 55.6309 38.5811 55.6455 38.3994 55.6748C38.2178 55.7041 38.061 55.7642 37.9292 55.855C37.7974 55.9458 37.6919 56.0762 37.6128 56.2461C37.5337 56.416 37.4941 56.6416 37.4941 56.9229L37.4941 63.9453C37.4941 64.4668 37.5688 64.9106 37.7183 65.2769C37.8677 65.6431 38.0757 65.9404 38.3423 66.1689C38.6089 66.3975 38.9253 66.5645 39.2915 66.6699C39.6577 66.7754 40.0605 66.8281 40.5 66.8281C41.0215 66.8281 41.4712 66.7578 41.8491 66.6172C42.2271 66.4766 42.5405 66.2817 42.7896 66.0327C43.0386 65.7837 43.2231 65.4878 43.3433 65.145C43.4634 64.8022 43.5234 64.4258 43.5234 64.0156L43.5234 56.8525C43.5234 56.5889 43.4839 56.3765 43.4048 56.2153C43.3257 56.0542 43.2188 55.9297 43.084 55.8418C42.9492 55.7539 42.7925 55.6968 42.6138 55.6704C42.4351 55.644 42.2461 55.6309 42.0469 55.6309L41.8184 55.6309L41.8184 54.875L46.3359 54.875L46.3359 55.6309L46.0986 55.6309C45.8994 55.6309 45.709 55.6455 45.5273 55.6748C45.3457 55.7041 45.189 55.7642 45.0571 55.855C44.9253 55.9458 44.8198 56.0762 44.7407 56.2461C44.6616 56.416 44.6221 56.6416 44.6221 56.9229L44.6221 64.0508C44.6221 64.6484 44.5269 65.186 44.3364 65.6636C44.146 66.1411 43.8647 66.5454 43.4927 66.8765C43.1206 67.2075 42.6592 67.4609 42.1084 67.6367C41.5576 67.8125 40.9248 67.9004 40.21 67.9004L40.21 67.9004ZM23.168 67.7246L23.168 66.9688L23.3965 66.9688C23.6016 66.9688 23.7935 66.9541 23.9722 66.9248C24.1509 66.8955 24.3076 66.8354 24.4424 66.7446C24.5771 66.6538 24.6826 66.5234 24.7588 66.3535C24.835 66.1836 24.873 65.958 24.873 65.6768L24.873 56.9229C24.873 56.6416 24.835 56.416 24.7588 56.2461C24.6826 56.0762 24.5771 55.9458 24.4424 55.855C24.3076 55.7642 24.1509 55.7041 23.9722 55.6748C23.7935 55.6455 23.6016 55.6309 23.3965 55.6309L23.168 55.6309L23.168 54.875L28.4062 54.875L28.4062 55.6309L28.1689 55.6309C27.9697 55.6309 27.7808 55.644 27.6021 55.6704C27.4233 55.6968 27.2666 55.7539 27.1318 55.8418C26.9971 55.9297 26.8901 56.0542 26.811 56.2153C26.7319 56.3765 26.6924 56.5889 26.6924 56.8525L26.6924 66.8281L30.2432 66.8281C30.5127 66.8281 30.7427 66.7798 30.9331 66.6831C31.1235 66.5864 31.2803 66.4604 31.4033 66.3052C31.5264 66.1499 31.6216 65.9756 31.689 65.7822C31.7563 65.5889 31.8018 65.3955 31.8252 65.2021L32.001 63.8574L32.9414 63.8574L32.8184 67.7246L23.168 67.7246ZM13.4297 63.4268L12.7441 65.3164C12.6914 65.457 12.6504 65.5962 12.6211 65.7339C12.5918 65.8716 12.5771 65.9902 12.5771 66.0898C12.5771 66.3945 12.6753 66.6172 12.8716 66.7578C13.0679 66.8984 13.3682 66.9688 13.7725 66.9688L14.1855 66.9688L14.1855 67.7246L9.79102 67.7246L9.79102 66.9688L10.1338 66.9688C10.3096 66.9688 10.459 66.9497 10.582 66.9116C10.7051 66.8735 10.8164 66.8018 10.916 66.6963C11.0156 66.5908 11.1108 66.4473 11.2017 66.2656C11.2925 66.084 11.3936 65.8496 11.5049 65.5625L15.4951 54.875L16.9014 54.875L20.9707 66.0107C21.041 66.1982 21.1128 66.3535 21.186 66.4766C21.2593 66.5996 21.3457 66.6978 21.4453 66.771C21.5449 66.8442 21.6592 66.8955 21.7881 66.9248C21.917 66.9541 22.0693 66.9688 22.2451 66.9688L22.4824 66.9688L22.4824 67.7246L17.5342 67.7246L17.5342 66.9688L17.9473 66.9688C18.668 66.9688 19.0283 66.6816 19.0283 66.1074C19.0283 66.0078 19.0151 65.9053 18.9888 65.7998C18.9624 65.6943 18.9258 65.5742 18.8789 65.4395L18.1582 63.4268L13.4297 63.4268ZM16.7168 59.375C16.5293 58.8418 16.3579 58.3423 16.2026 57.8765C16.0474 57.4106 15.9199 56.9609 15.8203 56.5273C15.7793 56.7441 15.731 56.9536 15.6753 57.1558C15.6196 57.3579 15.5596 57.5645 15.4951 57.7754C15.4307 57.9863 15.3574 58.2075 15.2754 58.439C15.1934 58.6704 15.0996 58.9268 14.9941 59.208L13.7725 62.5215L17.833 62.5215L16.7168 59.375ZM4.44727 67.9004C3.86133 67.9004 3.34424 67.8389 2.896 67.7158C2.44775 67.5928 2.07275 67.4214 1.771 67.2017C1.46924 66.9819 1.24219 66.7153 1.08984 66.4019C0.9375 66.0884 0.861328 65.7441 0.861328 65.3691C0.861328 65.0059 0.974121 64.7129 1.19971 64.4902C1.42529 64.2676 1.74609 64.1562 2.16211 64.1562C2.17969 64.5312 2.23682 64.8916 2.3335 65.2373C2.43018 65.583 2.5752 65.8877 2.76855 66.1514C2.96191 66.415 3.20801 66.626 3.50684 66.7842C3.80566 66.9424 4.16602 67.0215 4.58789 67.0215C5.39648 67.0215 6.02783 66.8267 6.48193 66.437C6.93604 66.0474 7.16309 65.4863 7.16309 64.7539C7.16309 64.4258 7.11621 64.1357 7.02246 63.8838C6.92871 63.6318 6.77344 63.3989 6.55664 63.1851C6.33984 62.9712 6.0542 62.7661 5.69971 62.5698C5.34521 62.3735 4.9043 62.167 4.37695 61.9502C3.82031 61.7217 3.33398 61.4771 2.91797 61.2163C2.50195 60.9556 2.15625 60.6655 1.88086 60.3462C1.60547 60.0269 1.40039 59.6709 1.26562 59.2783C1.13086 58.8857 1.06348 58.4434 1.06348 57.9512C1.06348 57.4355 1.16162 56.9756 1.35791 56.5713C1.5542 56.167 1.82812 55.8257 2.17969 55.5474C2.53125 55.269 2.94727 55.0566 3.42773 54.9102C3.9082 54.7637 4.43262 54.6904 5.00098 54.6904C5.54004 54.6904 6.01758 54.7461 6.43359 54.8574C6.84961 54.9688 7.20117 55.1182 7.48828 55.3057C7.77539 55.4932 7.99365 55.7085 8.14307 55.9517C8.29248 56.1948 8.36719 56.4482 8.36719 56.7119C8.36719 57.0986 8.23975 57.3901 7.98486 57.5864C7.72998 57.7827 7.38574 57.8809 6.95215 57.8809C6.95215 57.5996 6.91846 57.3228 6.85107 57.0503C6.78369 56.7778 6.6709 56.5347 6.5127 56.3208C6.35449 56.1069 6.14648 55.9326 5.88867 55.7979C5.63086 55.6631 5.31152 55.5957 4.93066 55.5957C4.58496 55.5957 4.27588 55.644 4.00342 55.7407C3.73096 55.8374 3.50098 55.9751 3.31348 56.1538C3.12598 56.3325 2.98242 56.5479 2.88281 56.7998C2.7832 57.0518 2.7334 57.333 2.7334 57.6436C2.7334 58.001 2.78027 58.3159 2.87402 58.5884C2.96777 58.8608 3.12451 59.1069 3.34424 59.3267C3.56396 59.5464 3.85254 59.7544 4.20996 59.9507C4.56738 60.147 5.00684 60.3506 5.52832 60.5615C6.05566 60.7783 6.52588 61.0068 6.93896 61.2471C7.35205 61.4873 7.70215 61.7554 7.98926 62.0513C8.27637 62.3472 8.49609 62.6782 8.64844 63.0444C8.80078 63.4106 8.87695 63.8252 8.87695 64.2881C8.87695 64.8564 8.77295 65.3647 8.56494 65.813C8.35693 66.2612 8.05957 66.6406 7.67285 66.9512C7.28613 67.2617 6.82031 67.4976 6.27539 67.6587C5.73047 67.8198 5.12109 67.9004 4.44727 67.9004L4.44727 67.9004ZM167.563 47.7246L160.813 37.3535L160.813 45.6768C160.813 45.958 160.853 46.1836 160.932 46.3535C161.011 46.5234 161.117 46.6538 161.249 46.7446C161.38 46.8354 161.537 46.8955 161.719 46.9248C161.9 46.9541 162.091 46.9688 162.29 46.9688L162.527 46.9688L162.527 47.7246L158.01 47.7246L158.01 46.9688L158.238 46.9688C158.443 46.9688 158.635 46.9541 158.814 46.9248C158.993 46.8955 159.149 46.8354 159.284 46.7446C159.419 46.6538 159.524 46.5234 159.601 46.3535C159.677 46.1836 159.715 45.958 159.715 45.6768L159.715 36.8525C159.715 36.5889 159.675 36.3765 159.596 36.2153C159.517 36.0542 159.41 35.9297 159.275 35.8418C159.141 35.7539 158.984 35.6968 158.805 35.6704C158.626 35.644 158.438 35.6309 158.238 35.6309L158.01 35.6309L158.01 34.875L161.306 34.875L167.748 44.8242L167.748 36.8525C167.748 36.5889 167.708 36.3765 167.629 36.2153C167.55 36.0542 167.443 35.9297 167.309 35.8418C167.174 35.7539 167.017 35.6968 166.838 35.6704C166.66 35.644 166.471 35.6309 166.271 35.6309L166.034 35.6309L166.034 34.875L170.552 34.875L170.552 35.6309L170.323 35.6309C170.118 35.6309 169.926 35.6455 169.748 35.6748C169.569 35.7041 169.412 35.7642 169.277 35.855C169.143 35.9458 169.037 36.0762 168.961 36.2461C168.885 36.416 168.847 36.6416 168.847 36.9229L168.847 47.7246L167.563 47.7246ZM150.319 46.8281L153.791 46.8281C154.078 46.8281 154.323 46.7886 154.525 46.7095C154.727 46.6304 154.896 46.5234 155.03 46.3887C155.165 46.2539 155.271 46.0972 155.347 45.9185C155.423 45.7397 155.476 45.5508 155.505 45.3516L155.628 44.5781L156.568 44.5781L156.445 47.7246L146.795 47.7246L146.795 46.9688L147.023 46.9688C147.223 46.9688 147.412 46.9556 147.59 46.9292C147.769 46.9028 147.926 46.8486 148.061 46.7666C148.195 46.6846 148.302 46.563 148.381 46.4019C148.46 46.2407 148.5 46.0283 148.5 45.7646L148.5 36.9229C148.5 36.6416 148.462 36.416 148.386 36.2461C148.31 36.0762 148.204 35.9458 148.069 35.855C147.935 35.7642 147.778 35.7041 147.599 35.6748C147.42 35.6455 147.229 35.6309 147.023 35.6309L146.795 35.6309L146.795 34.875L155.865 34.875L155.953 38.0215L155.021 38.0215L154.934 37.248C154.91 37.0488 154.865 36.8599 154.797 36.6812C154.73 36.5024 154.633 36.3457 154.507 36.2109C154.381 36.0762 154.223 35.9692 154.033 35.8901C153.842 35.811 153.612 35.7715 153.343 35.7715L150.319 35.7715L150.319 40.5615L154.661 40.5615L154.661 41.4404L150.319 41.4404L150.319 46.8281ZM137.936 47.7246L131.186 37.3535L131.186 45.6768C131.186 45.958 131.225 46.1836 131.304 46.3535C131.383 46.5234 131.489 46.6538 131.621 46.7446C131.752 46.8354 131.909 46.8955 132.091 46.9248C132.272 46.9541 132.463 46.9688 132.662 46.9688L132.899 46.9688L132.899 47.7246L128.382 47.7246L128.382 46.9688L128.61 46.9688C128.815 46.9688 129.007 46.9541 129.186 46.9248C129.365 46.8955 129.521 46.8354 129.656 46.7446C129.791 46.6538 129.896 46.5234 129.973 46.3535C130.049 46.1836 130.087 45.958 130.087 45.6768L130.087 36.8525C130.087 36.5889 130.047 36.3765 129.968 36.2153C129.889 36.0542 129.782 35.9297 129.647 35.8418C129.513 35.7539 129.356 35.6968 129.177 35.6704C128.999 35.644 128.81 35.6309 128.61 35.6309L128.382 35.6309L128.382 34.875L131.678 34.875L138.12 44.8242L138.12 36.8525C138.12 36.5889 138.081 36.3765 138.001 36.2153C137.922 36.0542 137.815 35.9297 137.681 35.8418C137.546 35.7539 137.389 35.6968 137.21 35.6704C137.032 35.644 136.843 35.6309 136.644 35.6309L136.406 35.6309L136.406 34.875L140.924 34.875L140.924 35.6309L140.695 35.6309C140.49 35.6309 140.298 35.6455 140.12 35.6748C139.941 35.7041 139.784 35.7642 139.649 35.855C139.515 35.9458 139.409 36.0762 139.333 36.2461C139.257 36.416 139.219 36.6416 139.219 36.9229L139.219 47.7246L137.936 47.7246ZM126.668 41.2822C126.668 42.2725 126.545 43.1748 126.299 43.9893C126.053 44.8037 125.689 45.501 125.209 46.0811C124.729 46.6611 124.137 47.1094 123.434 47.4258C122.73 47.7422 121.925 47.9004 121.017 47.9004C120.062 47.9004 119.229 47.7422 118.521 47.4258C117.812 47.1094 117.223 46.6611 116.754 46.0811C116.285 45.501 115.934 44.8022 115.699 43.9849C115.465 43.1675 115.348 42.2607 115.348 41.2646C115.348 40.2686 115.465 39.3647 115.699 38.5532C115.934 37.7417 116.285 37.0488 116.754 36.4746C117.223 35.9004 117.814 35.4565 118.529 35.1431C119.244 34.8296 120.079 34.6729 121.034 34.6729C121.942 34.6729 122.745 34.8296 123.442 35.1431C124.14 35.4565 124.729 35.9019 125.209 36.479C125.689 37.0562 126.053 37.7505 126.299 38.562C126.545 39.3735 126.668 40.2803 126.668 41.2822L126.668 41.2822ZM117.343 41.2822C117.343 42.1729 117.409 42.9683 117.541 43.6685C117.672 44.3687 117.885 44.9604 118.178 45.4438C118.471 45.9272 118.85 46.2964 119.316 46.5513C119.782 46.8062 120.349 46.9336 121.017 46.9336C121.685 46.9336 122.251 46.8062 122.717 46.5513C123.183 46.2964 123.561 45.9272 123.851 45.4438C124.141 44.9604 124.351 44.3687 124.479 43.6685C124.608 42.9683 124.673 42.1729 124.673 41.2822C124.673 40.3916 124.608 39.5962 124.479 38.896C124.351 38.1958 124.141 37.6055 123.851 37.125C123.561 36.6445 123.186 36.2783 122.726 36.0264C122.266 35.7744 121.702 35.6484 121.034 35.6484C120.366 35.6484 119.798 35.7744 119.329 36.0264C118.86 36.2783 118.478 36.6445 118.182 37.125C117.886 37.6055 117.672 38.1958 117.541 38.896C117.409 39.5962 117.343 40.3916 117.343 41.2822L117.343 41.2822ZM120.041 33.6094C120.176 33.4395 120.315 33.2432 120.458 33.0205C120.602 32.7979 120.743 32.5679 120.88 32.3306C121.018 32.0933 121.15 31.856 121.276 31.6187C121.402 31.3813 121.512 31.1631 121.605 30.9639L123.53 30.9639L123.53 31.1484C123.419 31.3066 123.255 31.5044 123.038 31.7417C122.821 31.979 122.581 32.2266 122.317 32.4844C122.054 32.7422 121.783 32.9927 121.504 33.2358C121.226 33.479 120.967 33.6826 120.727 33.8467L120.041 33.8467L120.041 33.6094ZM108.413 47.7246L108.413 46.9688L108.642 46.9688C108.847 46.9688 109.039 46.9541 109.217 46.9248C109.396 46.8955 109.553 46.8354 109.688 46.7446C109.822 46.6538 109.928 46.5234 110.004 46.3535C110.08 46.1836 110.118 45.958 110.118 45.6768L110.118 36.9229C110.118 36.6416 110.08 36.416 110.004 36.2461C109.928 36.0762 109.822 35.9458 109.688 35.855C109.553 35.7642 109.396 35.7041 109.217 35.6748C109.039 35.6455 108.847 35.6309 108.642 35.6309L108.413 35.6309L108.413 34.875L113.651 34.875L113.651 35.6309L113.414 35.6309C113.215 35.6309 113.024 35.6455 112.843 35.6748C112.661 35.7041 112.504 35.7642 112.373 35.855C112.241 35.9458 112.135 36.0762 112.056 36.2461C111.977 36.416 111.938 36.6416 111.938 36.9229L111.938 45.6768C111.938 45.958 111.977 46.1836 112.056 46.3535C112.135 46.5234 112.241 46.6538 112.373 46.7446C112.504 46.8354 112.661 46.8955 112.843 46.9248C113.024 46.9541 113.215 46.9688 113.414 46.9688L113.651 46.9688L113.651 47.7246L108.413 47.7246ZM103.482 34.6904C104.098 34.6904 104.632 34.7417 105.086 34.8442C105.541 34.9468 105.918 35.0889 106.22 35.2705C106.522 35.4521 106.748 35.666 106.897 35.9121C107.046 36.1582 107.121 36.4248 107.121 36.7119C107.121 36.9053 107.082 37.0796 107.002 37.2349C106.923 37.3901 106.813 37.522 106.673 37.6304C106.532 37.7388 106.367 37.8223 106.176 37.8809C105.986 37.9395 105.779 37.9688 105.557 37.9688C105.557 37.6875 105.52 37.4092 105.447 37.1338C105.374 36.8584 105.253 36.6108 105.086 36.3911C104.919 36.1714 104.703 35.9927 104.436 35.855C104.169 35.7173 103.84 35.6484 103.447 35.6484C102.768 35.6484 102.19 35.7729 101.716 36.022C101.241 36.271 100.854 36.6343 100.556 37.1118C100.257 37.5894 100.04 38.1782 99.9053 38.8784C99.7705 39.5786 99.7031 40.3799 99.7031 41.2822C99.7031 42.085 99.7734 42.8203 99.9141 43.4883C100.055 44.1562 100.277 44.729 100.582 45.2065C100.887 45.6841 101.275 46.0547 101.747 46.3184C102.218 46.582 102.785 46.7139 103.447 46.7139C103.887 46.7139 104.275 46.6714 104.612 46.5864C104.949 46.5015 105.246 46.3887 105.504 46.248C105.762 46.1074 105.989 45.9448 106.185 45.7603C106.381 45.5757 106.556 45.3838 106.708 45.1846C106.808 45.249 106.89 45.3369 106.954 45.4482C107.019 45.5596 107.051 45.7061 107.051 45.8877C107.051 46.1162 106.973 46.3491 106.818 46.5864C106.663 46.8237 106.427 47.0391 106.11 47.2324C105.794 47.4258 105.393 47.5854 104.906 47.7114C104.42 47.8374 103.843 47.9004 103.175 47.9004C102.278 47.9004 101.49 47.7422 100.811 47.4258C100.131 47.1094 99.561 46.6611 99.1011 46.0811C98.6411 45.501 98.2939 44.8037 98.0596 43.9893C97.8252 43.1748 97.708 42.2725 97.708 41.2822C97.708 40.3096 97.8311 39.4189 98.0771 38.6104C98.3232 37.8018 98.688 37.1074 99.1714 36.5273C99.6548 35.9473 100.257 35.4961 100.978 35.1738C101.698 34.8516 102.533 34.6904 103.482 34.6904L103.482 34.6904ZM87.627 43.4268L86.9414 45.3164C86.8887 45.457 86.8477 45.5962 86.8184 45.7339C86.7891 45.8716 86.7744 45.9902 86.7744 46.0898C86.7744 46.3945 86.8726 46.6172 87.0688 46.7578C87.2651 46.8984 87.5654 46.9688 87.9697 46.9688L88.3828 46.9688L88.3828 47.7246L83.9883 47.7246L83.9883 46.9688L84.3311 46.9688C84.5068 46.9688 84.6562 46.9497 84.7793 46.9116C84.9023 46.8735 85.0137 46.8018 85.1133 46.6963C85.2129 46.5908 85.3081 46.4473 85.3989 46.2656C85.4897 46.084 85.5908 45.8496 85.7021 45.5625L89.6924 34.875L91.0986 34.875L95.168 46.0107C95.2383 46.1982 95.3101 46.3535 95.3833 46.4766C95.4565 46.5996 95.543 46.6978 95.6426 46.771C95.7422 46.8442 95.8564 46.8955 95.9854 46.9248C96.1143 46.9541 96.2666 46.9688 96.4424 46.9688L96.6797 46.9688L96.6797 47.7246L91.7314 47.7246L91.7314 46.9688L92.1445 46.9688C92.8652 46.9688 93.2256 46.6816 93.2256 46.1074C93.2256 46.0078 93.2124 45.9053 93.186 45.7998C93.1597 45.6943 93.123 45.5742 93.0762 45.4395L92.3555 43.4268L87.627 43.4268ZM90.9141 39.375C90.7266 38.8418 90.5552 38.3423 90.3999 37.8765C90.2446 37.4106 90.1172 36.9609 90.0176 36.5273C89.9766 36.7441 89.9282 36.9536 89.8726 37.1558C89.8169 37.3579 89.7568 37.5645 89.6924 37.7754C89.6279 37.9863 89.5547 38.2075 89.4727 38.439C89.3906 38.6704 89.2969 38.9268 89.1914 39.208L87.9697 42.5215L92.0303 42.5215L90.9141 39.375ZM78.3545 47.9004C77.3115 47.9004 76.4019 47.7422 75.6255 47.4258C74.8491 47.1094 74.2046 46.6611 73.6919 46.0811C73.1792 45.501 72.7969 44.8037 72.5449 43.9893C72.293 43.1748 72.167 42.2725 72.167 41.2822C72.167 40.3096 72.3003 39.4189 72.5669 38.6104C72.8335 37.8018 73.2319 37.1074 73.7622 36.5273C74.2925 35.9473 74.9502 35.4961 75.7354 35.1738C76.5205 34.8516 77.4316 34.6904 78.4688 34.6904C79.1367 34.6904 79.7183 34.7417 80.2134 34.8442C80.7085 34.9468 81.1216 35.0889 81.4526 35.2705C81.7837 35.4521 82.0312 35.666 82.1953 35.9121C82.3594 36.1582 82.4414 36.4248 82.4414 36.7119C82.4414 36.9053 82.3975 37.0796 82.3096 37.2349C82.2217 37.3901 82.103 37.522 81.9536 37.6304C81.8042 37.7388 81.6284 37.8223 81.4263 37.8809C81.2241 37.9395 81.0059 37.9688 80.7715 37.9688C80.7715 37.6875 80.7305 37.4092 80.6484 37.1338C80.5664 36.8584 80.4316 36.6108 80.2441 36.3911C80.0566 36.1714 79.8105 35.9927 79.5059 35.855C79.2012 35.7173 78.8291 35.6484 78.3896 35.6484C77.6279 35.6484 76.979 35.7729 76.4429 36.022C75.9067 36.271 75.4688 36.6343 75.1289 37.1118C74.7891 37.5894 74.543 38.1782 74.3906 38.8784C74.2383 39.5786 74.1621 40.3799 74.1621 41.2822C74.1621 42.1787 74.2412 42.9756 74.3994 43.6729C74.5576 44.3701 74.8154 44.9561 75.1729 45.4307C75.5303 45.9053 75.9932 46.2656 76.5615 46.5117C77.1299 46.7578 77.8242 46.8809 78.6445 46.8809C78.9902 46.8809 79.3257 46.8633 79.6509 46.8281C79.9761 46.793 80.2646 46.7373 80.5166 46.6611L80.5166 43.7607C80.5166 43.4971 80.4771 43.2847 80.3979 43.1235C80.3188 42.9624 80.2119 42.8394 80.0771 42.7544C79.9424 42.6694 79.7856 42.6123 79.6069 42.583C79.4282 42.5537 79.2393 42.5391 79.04 42.5391L78.9697 42.5391L78.9697 41.7832L83.6455 41.7832L83.6455 42.5391L83.5752 42.5391C83.4053 42.5391 83.2441 42.5537 83.0918 42.583C82.9395 42.6123 82.8076 42.6724 82.6963 42.7632C82.585 42.854 82.4971 42.9858 82.4326 43.1587C82.3682 43.3315 82.3359 43.5586 82.3359 43.8398L82.3359 47.0742C81.7324 47.3555 81.1113 47.5635 80.4727 47.6982C79.834 47.833 79.1279 47.9004 78.3545 47.9004L78.3545 47.9004ZM65.2148 47.7246L65.2148 46.9688L65.4434 46.9688C65.6484 46.9688 65.8403 46.9541 66.019 46.9248C66.1978 46.8955 66.3545 46.8354 66.4893 46.7446C66.624 46.6538 66.7295 46.5234 66.8057 46.3535C66.8818 46.1836 66.9199 45.958 66.9199 45.6768L66.9199 36.9229C66.9199 36.6416 66.8818 36.416 66.8057 36.2461C66.7295 36.0762 66.624 35.9458 66.4893 35.855C66.3545 35.7642 66.1978 35.7041 66.019 35.6748C65.8403 35.6455 65.6484 35.6309 65.4434 35.6309L65.2148 35.6309L65.2148 34.875L70.4531 34.875L70.4531 35.6309L70.2158 35.6309C70.0166 35.6309 69.8262 35.6455 69.6445 35.6748C69.4629 35.7041 69.3062 35.7642 69.1743 35.855C69.0425 35.9458 68.937 36.0762 68.8579 36.2461C68.7788 36.416 68.7393 36.6416 68.7393 36.9229L68.7393 45.6768C68.7393 45.958 68.7788 46.1836 68.8579 46.3535C68.937 46.5234 69.0425 46.6538 69.1743 46.7446C69.3062 46.8354 69.4629 46.8955 69.6445 46.9248C69.8262 46.9541 70.0166 46.9688 70.2158 46.9688L70.4531 46.9688L70.4531 47.7246L65.2148 47.7246ZM59.9062 45.6768C59.9062 45.958 59.9458 46.1836 60.0249 46.3535C60.104 46.5234 60.2095 46.6538 60.3413 46.7446C60.4731 46.8354 60.6299 46.8955 60.8115 46.9248C60.9932 46.9541 61.1836 46.9688 61.3828 46.9688L61.7959 46.9688L61.7959 47.7246L56.1973 47.7246L56.1973 46.9688L56.6104 46.9688C56.8096 46.9688 56.9985 46.9556 57.1772 46.9292C57.356 46.9028 57.5127 46.8486 57.6475 46.7666C57.7822 46.6846 57.8892 46.563 57.9683 46.4019C58.0474 46.2407 58.0869 46.0283 58.0869 45.7646L58.0869 35.7715L56.3643 35.7715C56.1006 35.7715 55.8794 35.811 55.7007 35.8901C55.522 35.9692 55.3755 36.0762 55.2612 36.2109C55.147 36.3457 55.062 36.5024 55.0063 36.6812C54.9507 36.8599 54.9111 37.0488 54.8877 37.248L54.791 38.0215L53.8594 38.0215L53.9473 34.875L64.0811 34.875L64.1689 38.0215L63.2373 38.0215L63.1494 37.248C63.126 37.0488 63.085 36.8599 63.0264 36.6812C62.9678 36.5024 62.8828 36.3457 62.7715 36.2109C62.6602 36.0762 62.5137 35.9692 62.332 35.8901C62.1504 35.811 61.9248 35.7715 61.6553 35.7715L59.9062 35.7715L59.9062 45.6768ZM48.1553 47.9004C47.5693 47.9004 47.0522 47.8389 46.604 47.7158C46.1558 47.5928 45.7808 47.4214 45.479 47.2017C45.1772 46.9819 44.9502 46.7153 44.7979 46.4019C44.6455 46.0884 44.5693 45.7441 44.5693 45.3691C44.5693 45.0059 44.6821 44.7129 44.9077 44.4902C45.1333 44.2676 45.4541 44.1562 45.8701 44.1562C45.8877 44.5312 45.9448 44.8916 46.0415 45.2373C46.1382 45.583 46.2832 45.8877 46.4766 46.1514C46.6699 46.415 46.916 46.626 47.2148 46.7842C47.5137 46.9424 47.874 47.0215 48.2959 47.0215C49.1045 47.0215 49.7358 46.8267 50.1899 46.437C50.644 46.0474 50.8711 45.4863 50.8711 44.7539C50.8711 44.4258 50.8242 44.1357 50.7305 43.8838C50.6367 43.6318 50.4814 43.3989 50.2646 43.1851C50.0479 42.9712 49.7622 42.7661 49.4077 42.5698C49.0532 42.3735 48.6123 42.167 48.085 41.9502C47.5283 41.7217 47.042 41.4771 46.626 41.2163C46.21 40.9556 45.8643 40.6655 45.5889 40.3462C45.3135 40.0269 45.1084 39.6709 44.9736 39.2783C44.8389 38.8857 44.7715 38.4434 44.7715 37.9512C44.7715 37.4355 44.8696 36.9756 45.0659 36.5713C45.2622 36.167 45.5361 35.8257 45.8877 35.5474C46.2393 35.269 46.6553 35.0566 47.1357 34.9102C47.6162 34.7637 48.1406 34.6904 48.709 34.6904C49.248 34.6904 49.7256 34.7461 50.1416 34.8574C50.5576 34.9688 50.9092 35.1182 51.1963 35.3057C51.4834 35.4932 51.7017 35.7085 51.8511 35.9517C52.0005 36.1948 52.0752 36.4482 52.0752 36.7119C52.0752 37.0986 51.9478 37.3901 51.6929 37.5864C51.438 37.7827 51.0938 37.8809 50.6602 37.8809C50.6602 37.5996 50.6265 37.3228 50.5591 37.0503C50.4917 36.7778 50.3789 36.5347 50.2207 36.3208C50.0625 36.1069 49.8545 35.9326 49.5967 35.7979C49.3389 35.6631 49.0195 35.5957 48.6387 35.5957C48.293 35.5957 47.9839 35.644 47.7114 35.7407C47.439 35.8374 47.209 35.9751 47.0215 36.1538C46.834 36.3325 46.6904 36.5479 46.5908 36.7998C46.4912 37.0518 46.4414 37.333 46.4414 37.6436C46.4414 38.001 46.4883 38.3159 46.582 38.5884C46.6758 38.8608 46.8325 39.1069 47.0522 39.3267C47.272 39.5464 47.5605 39.7544 47.918 39.9507C48.2754 40.147 48.7148 40.3506 49.2363 40.5615C49.7637 40.7783 50.2339 41.0068 50.647 41.2471C51.0601 41.4873 51.4102 41.7554 51.6973 42.0513C51.9844 42.3472 52.2041 42.6782 52.3564 43.0444C52.5088 43.4106 52.585 43.8252 52.585 44.2881C52.585 44.8564 52.481 45.3647 52.2729 45.813C52.0649 46.2612 51.7676 46.6406 51.3809 46.9512C50.9941 47.2617 50.5283 47.4976 49.9834 47.6587C49.4385 47.8198 48.8291 47.9004 48.1553 47.9004L48.1553 47.9004ZM36.7031 46.8281L40.1748 46.8281C40.4619 46.8281 40.7065 46.7886 40.9087 46.7095C41.1108 46.6304 41.2793 46.5234 41.4141 46.3887C41.5488 46.2539 41.6543 46.0972 41.7305 45.9185C41.8066 45.7397 41.8594 45.5508 41.8887 45.3516L42.0117 44.5781L42.9521 44.5781L42.8291 47.7246L33.1787 47.7246L33.1787 46.9688L33.4072 46.9688C33.6064 46.9688 33.7954 46.9556 33.9741 46.9292C34.1528 46.9028 34.3096 46.8486 34.4443 46.7666C34.5791 46.6846 34.686 46.563 34.7651 46.4019C34.8442 46.2407 34.8838 46.0283 34.8838 45.7646L34.8838 36.9229C34.8838 36.6416 34.8457 36.416 34.7695 36.2461C34.6934 36.0762 34.5879 35.9458 34.4531 35.855C34.3184 35.7642 34.1616 35.7041 33.9829 35.6748C33.8042 35.6455 33.6123 35.6309 33.4072 35.6309L33.1787 35.6309L33.1787 34.875L42.249 34.875L42.3369 38.0215L41.4053 38.0215L41.3174 37.248C41.2939 37.0488 41.2485 36.8599 41.1812 36.6812C41.1138 36.5024 41.0171 36.3457 40.8911 36.2109C40.7651 36.0762 40.6069 35.9692 40.4165 35.8901C40.2261 35.811 39.9961 35.7715 39.7266 35.7715L36.7031 35.7715L36.7031 40.5615L41.0449 40.5615L41.0449 41.4404L36.7031 41.4404L36.7031 46.8281ZM25.7432 47.7246L21.8584 36.5801C21.7939 36.3926 21.7236 36.2373 21.6475 36.1143C21.5713 35.9912 21.4834 35.8945 21.3838 35.8242C21.2842 35.7539 21.1699 35.7041 21.041 35.6748C20.9121 35.6455 20.7598 35.6309 20.584 35.6309L20.3467 35.6309L20.3467 34.875L25.2949 34.875L25.2949 35.6309L24.8818 35.6309C24.5186 35.6309 24.2476 35.6997 24.0688 35.8374C23.8901 35.9751 23.8008 36.1934 23.8008 36.4922C23.8008 36.5918 23.814 36.6943 23.8403 36.7998C23.8667 36.9053 23.9033 37.0254 23.9502 37.1602L25.9277 43.0049C26.1094 43.5381 26.2646 44.0552 26.3936 44.5562C26.5225 45.0571 26.6367 45.5244 26.7363 45.958C26.8301 45.5244 26.9414 45.0645 27.0703 44.5781C27.1992 44.0918 27.3633 43.5674 27.5625 43.0049L29.5488 37.2832C29.5957 37.1367 29.6338 36.9961 29.6631 36.8613C29.6924 36.7266 29.707 36.6094 29.707 36.5098C29.707 36.1992 29.6089 35.9751 29.4126 35.8374C29.2163 35.6997 28.9189 35.6309 28.5205 35.6309L28.1074 35.6309L28.1074 34.875L32.4932 34.875L32.4932 35.6309L32.1504 35.6309C31.9746 35.6309 31.8237 35.6484 31.6978 35.6836C31.5718 35.7188 31.4575 35.7876 31.355 35.8901C31.2524 35.9927 31.1572 36.1348 31.0693 36.3164C30.9814 36.498 30.8877 36.7354 30.7881 37.0283L27.0615 47.7246L25.7432 47.7246ZM16.8486 47.7246L10.0986 37.3535L10.0986 45.6768C10.0986 45.958 10.1382 46.1836 10.2173 46.3535C10.2964 46.5234 10.4019 46.6538 10.5337 46.7446C10.6655 46.8354 10.8223 46.8955 11.0039 46.9248C11.1855 46.9541 11.376 46.9688 11.5752 46.9688L11.8125 46.9688L11.8125 47.7246L7.29492 47.7246L7.29492 46.9688L7.52344 46.9688C7.72852 46.9688 7.92041 46.9541 8.09912 46.9248C8.27783 46.8955 8.43457 46.8354 8.56934 46.7446C8.7041 46.6538 8.80957 46.5234 8.88574 46.3535C8.96191 46.1836 9 45.958 9 45.6768L9 36.8525C9 36.5889 8.96045 36.3765 8.88135 36.2153C8.80225 36.0542 8.69531 35.9297 8.56055 35.8418C8.42578 35.7539 8.26904 35.6968 8.09033 35.6704C7.91162 35.644 7.72266 35.6309 7.52344 35.6309L7.29492 35.6309L7.29492 34.875L10.5908 34.875L17.0332 44.8242L17.0332 36.8525C17.0332 36.5889 16.9937 36.3765 16.9146 36.2153C16.8354 36.0542 16.7285 35.9297 16.5938 35.8418C16.459 35.7539 16.3022 35.6968 16.1235 35.6704C15.9448 35.644 15.7559 35.6309 15.5566 35.6309L15.3193 35.6309L15.3193 34.875L19.8369 34.875L19.8369 35.6309L19.6084 35.6309C19.4033 35.6309 19.2114 35.6455 19.0327 35.6748C18.854 35.7041 18.6973 35.7642 18.5625 35.855C18.4277 35.9458 18.3223 36.0762 18.2461 36.2461C18.1699 36.416 18.1318 36.6416 18.1318 36.9229L18.1318 47.7246L16.8486 47.7246ZM0.685547 47.7246L0.685547 46.9688L0.914062 46.9688C1.11914 46.9688 1.31104 46.9541 1.48975 46.9248C1.66846 46.8955 1.8252 46.8354 1.95996 46.7446C2.09473 46.6538 2.2002 46.5234 2.27637 46.3535C2.35254 46.1836 2.39062 45.958 2.39062 45.6768L2.39062 36.9229C2.39062 36.6416 2.35254 36.416 2.27637 36.2461C2.2002 36.0762 2.09473 35.9458 1.95996 35.855C1.8252 35.7642 1.66846 35.7041 1.48975 35.6748C1.31104 35.6455 1.11914 35.6309 0.914062 35.6309L0.685547 35.6309L0.685547 34.875L5.92383 34.875L5.92383 35.6309L5.68652 35.6309C5.4873 35.6309 5.29688 35.6455 5.11523 35.6748C4.93359 35.7041 4.77686 35.7642 4.64502 35.855C4.51318 35.9458 4.40771 36.0762 4.32861 36.2461C4.24951 36.416 4.20996 36.6416 4.20996 36.9229L4.20996 45.6768C4.20996 45.958 4.24951 46.1836 4.32861 46.3535C4.40771 46.5234 4.51318 46.6538 4.64502 46.7446C4.77686 46.8354 4.93359 46.8955 5.11523 46.9248C5.29688 46.9541 5.4873 46.9688 5.68652 46.9688L5.92383 46.9688L5.92383 47.7246L0.685547 47.7246ZM171.457 26.8281L174.929 26.8281C175.216 26.8281 175.46 26.7886 175.663 26.7095C175.865 26.6304 176.033 26.5234 176.168 26.3887C176.303 26.2539 176.408 26.0972 176.484 25.9185C176.561 25.7397 176.613 25.5508 176.643 25.3516L176.766 24.5781L177.706 24.5781L177.583 27.7246L167.933 27.7246L167.933 26.9688L168.161 26.9688C168.36 26.9688 168.549 26.9556 168.728 26.9292C168.907 26.9028 169.063 26.8486 169.198 26.7666C169.333 26.6846 169.44 26.563 169.519 26.4019C169.598 26.2407 169.638 26.0283 169.638 25.7646L169.638 16.9229C169.638 16.6416 169.6 16.416 169.523 16.2461C169.447 16.0762 169.342 15.9458 169.207 15.855C169.072 15.7642 168.916 15.7041 168.737 15.6748C168.558 15.6455 168.366 15.6309 168.161 15.6309L167.933 15.6309L167.933 14.875L177.003 14.875L177.091 18.0215L176.159 18.0215L176.071 17.248C176.048 17.0488 176.002 16.8599 175.935 16.6812C175.868 16.5024 175.771 16.3457 175.645 16.2109C175.519 16.0762 175.361 15.9692 175.17 15.8901C174.98 15.811 174.75 15.7715 174.48 15.7715L171.457 15.7715L171.457 20.5615L175.799 20.5615L175.799 21.4404L171.457 21.4404L171.457 26.8281ZM166.219 21.2822C166.219 22.2666 166.096 23.1558 165.85 23.9497C165.604 24.7437 165.237 25.4204 164.751 25.98C164.265 26.5396 163.655 26.9702 162.923 27.272C162.19 27.5737 161.335 27.7246 160.356 27.7246L154.846 27.7246L154.846 26.9688L155.074 26.9688C155.279 26.9688 155.471 26.9541 155.65 26.9248C155.829 26.8955 155.985 26.8354 156.12 26.7446C156.255 26.6538 156.36 26.5234 156.437 26.3535C156.513 26.1836 156.551 25.958 156.551 25.6768L156.551 16.8525C156.551 16.5889 156.511 16.3765 156.432 16.2153C156.353 16.0542 156.246 15.9297 156.111 15.8418C155.977 15.7539 155.82 15.6968 155.641 15.6704C155.462 15.644 155.273 15.6309 155.074 15.6309L154.846 15.6309L154.846 14.875L160.356 14.875C161.282 14.875 162.108 15.0171 162.835 15.3013C163.562 15.5854 164.175 16 164.676 16.5449C165.177 17.0898 165.56 17.7607 165.823 18.5576C166.087 19.3545 166.219 20.2627 166.219 21.2822L166.219 21.2822ZM159.935 26.8105C160.649 26.8105 161.275 26.689 161.811 26.4458C162.347 26.2026 162.794 25.8467 163.151 25.3779C163.509 24.9092 163.777 24.332 163.956 23.6465C164.134 22.9609 164.224 22.1729 164.224 21.2822C164.224 19.4951 163.868 18.1299 163.156 17.1865C162.444 16.2432 161.376 15.7715 159.952 15.7715L158.37 15.7715L158.37 26.8105L159.935 26.8105ZM138.955 27.7246L138.955 26.9688L139.184 26.9688C139.389 26.9688 139.581 26.9541 139.759 26.9248C139.938 26.8955 140.095 26.8354 140.229 26.7446C140.364 26.6538 140.47 26.5234 140.546 26.3535C140.622 26.1836 140.66 25.958 140.66 25.6768L140.66 16.9229C140.66 16.6416 140.622 16.416 140.546 16.2461C140.47 16.0762 140.364 15.9458 140.229 15.855C140.095 15.7642 139.938 15.7041 139.759 15.6748C139.581 15.6455 139.389 15.6309 139.184 15.6309L138.955 15.6309L138.955 14.875L144.193 14.875L144.193 15.6309L143.956 15.6309C143.757 15.6309 143.568 15.644 143.389 15.6704C143.21 15.6968 143.054 15.7539 142.919 15.8418C142.784 15.9297 142.677 16.0542 142.598 16.2153C142.519 16.3765 142.479 16.5889 142.479 16.8525L142.479 26.8281L146.03 26.8281C146.3 26.8281 146.53 26.7798 146.72 26.6831C146.911 26.5864 147.067 26.4604 147.19 26.3052C147.313 26.1499 147.409 25.9756 147.476 25.7822C147.543 25.5889 147.589 25.3955 147.612 25.2021L147.788 23.8574L148.729 23.8574L148.605 27.7246L138.955 27.7246ZM129.217 23.4268L128.531 25.3164C128.479 25.457 128.438 25.5962 128.408 25.7339C128.379 25.8716 128.364 25.9902 128.364 26.0898C128.364 26.3945 128.462 26.6172 128.659 26.7578C128.855 26.8984 129.155 26.9688 129.56 26.9688L129.973 26.9688L129.973 27.7246L125.578 27.7246L125.578 26.9688L125.921 26.9688C126.097 26.9688 126.246 26.9497 126.369 26.9116C126.492 26.8735 126.604 26.8018 126.703 26.6963C126.803 26.5908 126.898 26.4473 126.989 26.2656C127.08 26.084 127.181 25.8496 127.292 25.5625L131.282 14.875L132.688 14.875L136.758 26.0107C136.828 26.1982 136.9 26.3535 136.973 26.4766C137.046 26.5996 137.133 26.6978 137.232 26.771C137.332 26.8442 137.446 26.8955 137.575 26.9248C137.704 26.9541 137.856 26.9688 138.032 26.9688L138.27 26.9688L138.27 27.7246L133.321 27.7246L133.321 26.9688L133.734 26.9688C134.455 26.9688 134.815 26.6816 134.815 26.1074C134.815 26.0078 134.802 25.9053 134.776 25.7998C134.75 25.6943 134.713 25.5742 134.666 25.4395L133.945 23.4268L129.217 23.4268ZM132.504 19.375C132.316 18.8418 132.145 18.3423 131.99 17.8765C131.834 17.4106 131.707 16.9609 131.607 16.5273C131.566 16.7441 131.518 16.9536 131.462 17.1558C131.407 17.3579 131.347 17.5645 131.282 17.7754C131.218 17.9863 131.145 18.2075 131.062 18.439C130.98 18.6704 130.887 18.9268 130.781 19.208L129.56 22.5215L133.62 22.5215L132.504 19.375ZM122.08 27.7246L115.33 17.3535L115.33 25.6768C115.33 25.958 115.37 26.1836 115.449 26.3535C115.528 26.5234 115.633 26.6538 115.765 26.7446C115.897 26.8354 116.054 26.8955 116.235 26.9248C116.417 26.9541 116.607 26.9688 116.807 26.9688L117.044 26.9688L117.044 27.7246L112.526 27.7246L112.526 26.9688L112.755 26.9688C112.96 26.9688 113.152 26.9541 113.331 26.9248C113.509 26.8955 113.666 26.8354 113.801 26.7446C113.936 26.6538 114.041 26.5234 114.117 26.3535C114.193 26.1836 114.231 25.958 114.231 25.6768L114.231 16.8525C114.231 16.5889 114.192 16.3765 114.113 16.2153C114.034 16.0542 113.927 15.9297 113.792 15.8418C113.657 15.7539 113.5 15.6968 113.322 15.6704C113.143 15.644 112.954 15.6309 112.755 15.6309L112.526 15.6309L112.526 14.875L115.822 14.875L122.265 24.8242L122.265 16.8525C122.265 16.5889 122.225 16.3765 122.146 16.2153C122.067 16.0542 121.96 15.9297 121.825 15.8418C121.69 15.7539 121.534 15.6968 121.355 15.6704C121.176 15.644 120.987 15.6309 120.788 15.6309L120.551 15.6309L120.551 14.875L125.068 14.875L125.068 15.6309L124.84 15.6309C124.635 15.6309 124.443 15.6455 124.264 15.6748C124.085 15.7041 123.929 15.7642 123.794 15.855C123.659 15.9458 123.554 16.0762 123.478 16.2461C123.401 16.416 123.363 16.6416 123.363 16.9229L123.363 27.7246L122.08 27.7246ZM110.812 21.2822C110.812 22.2725 110.689 23.1748 110.443 23.9893C110.197 24.8037 109.834 25.501 109.354 26.0811C108.873 26.6611 108.281 27.1094 107.578 27.4258C106.875 27.7422 106.069 27.9004 105.161 27.9004C104.206 27.9004 103.374 27.7422 102.665 27.4258C101.956 27.1094 101.367 26.6611 100.898 26.0811C100.43 25.501 100.078 24.8022 99.8438 23.9849C99.6094 23.1675 99.4922 22.2607 99.4922 21.2646C99.4922 20.2686 99.6094 19.3647 99.8438 18.5532C100.078 17.7417 100.43 17.0488 100.898 16.4746C101.367 15.9004 101.959 15.4565 102.674 15.1431C103.389 14.8296 104.224 14.6729 105.179 14.6729C106.087 14.6729 106.89 14.8296 107.587 15.1431C108.284 15.4565 108.873 15.9019 109.354 16.479C109.834 17.0562 110.197 17.7505 110.443 18.562C110.689 19.3735 110.812 20.2803 110.812 21.2822L110.812 21.2822ZM101.487 21.2822C101.487 22.1729 101.553 22.9683 101.685 23.6685C101.817 24.3687 102.029 24.9604 102.322 25.4438C102.615 25.9272 102.995 26.2964 103.46 26.5513C103.926 26.8062 104.493 26.9336 105.161 26.9336C105.829 26.9336 106.396 26.8062 106.862 26.5513C107.328 26.2964 107.706 25.9272 107.996 25.4438C108.286 24.9604 108.495 24.3687 108.624 23.6685C108.753 22.9683 108.817 22.1729 108.817 21.2822C108.817 20.3916 108.753 19.5962 108.624 18.896C108.495 18.1958 108.286 17.6055 107.996 17.125C107.706 16.6445 107.331 16.2783 106.871 16.0264C106.411 15.7744 105.847 15.6484 105.179 15.6484C104.511 15.6484 103.942 15.7744 103.474 16.0264C103.005 16.2783 102.623 16.6445 102.327 17.125C102.031 17.6055 101.817 18.1958 101.685 18.896C101.553 19.5962 101.487 20.3916 101.487 21.2822L101.487 21.2822ZM92.5576 27.7246L92.5576 26.9688L92.7861 26.9688C92.9912 26.9688 93.1831 26.9541 93.3618 26.9248C93.5405 26.8955 93.6973 26.8354 93.832 26.7446C93.9668 26.6538 94.0723 26.5234 94.1484 26.3535C94.2246 26.1836 94.2627 25.958 94.2627 25.6768L94.2627 16.9229C94.2627 16.6416 94.2246 16.416 94.1484 16.2461C94.0723 16.0762 93.9668 15.9458 93.832 15.855C93.6973 15.7642 93.5405 15.7041 93.3618 15.6748C93.1831 15.6455 92.9912 15.6309 92.7861 15.6309L92.5576 15.6309L92.5576 14.875L97.7959 14.875L97.7959 15.6309L97.5586 15.6309C97.3594 15.6309 97.1689 15.6455 96.9873 15.6748C96.8057 15.7041 96.6489 15.7642 96.5171 15.855C96.3853 15.9458 96.2798 16.0762 96.2007 16.2461C96.1216 16.416 96.082 16.6416 96.082 16.9229L96.082 25.6768C96.082 25.958 96.1216 26.1836 96.2007 26.3535C96.2798 26.5234 96.3853 26.6538 96.5171 26.7446C96.6489 26.8354 96.8057 26.8955 96.9873 26.9248C97.1689 26.9541 97.3594 26.9688 97.5586 26.9688L97.7959 26.9688L97.7959 27.7246L92.5576 27.7246ZM87.627 14.6904C88.2422 14.6904 88.7769 14.7417 89.231 14.8442C89.6851 14.9468 90.063 15.0889 90.3647 15.2705C90.6665 15.4521 90.8921 15.666 91.0415 15.9121C91.1909 16.1582 91.2656 16.4248 91.2656 16.7119C91.2656 16.9053 91.2261 17.0796 91.147 17.2349C91.0679 17.3901 90.958 17.522 90.8174 17.6304C90.6768 17.7388 90.5112 17.8223 90.3208 17.8809C90.1304 17.9395 89.9238 17.9688 89.7012 17.9688C89.7012 17.6875 89.6646 17.4092 89.5913 17.1338C89.5181 16.8584 89.3979 16.6108 89.231 16.3911C89.064 16.1714 88.8472 15.9927 88.5806 15.855C88.314 15.7173 87.9844 15.6484 87.5918 15.6484C86.9121 15.6484 86.335 15.7729 85.8604 16.022C85.3857 16.271 84.999 16.6343 84.7002 17.1118C84.4014 17.5894 84.1846 18.1782 84.0498 18.8784C83.915 19.5786 83.8477 20.3799 83.8477 21.2822C83.8477 22.085 83.918 22.8203 84.0586 23.4883C84.1992 24.1562 84.4219 24.729 84.7266 25.2065C85.0312 25.6841 85.4194 26.0547 85.8911 26.3184C86.3628 26.582 86.9297 26.7139 87.5918 26.7139C88.0312 26.7139 88.4194 26.6714 88.7563 26.5864C89.0933 26.5015 89.3906 26.3887 89.6484 26.248C89.9062 26.1074 90.1333 25.9448 90.3296 25.7603C90.5259 25.5757 90.7002 25.3838 90.8525 25.1846C90.9521 25.249 91.0342 25.3369 91.0986 25.4482C91.1631 25.5596 91.1953 25.7061 91.1953 25.8877C91.1953 26.1162 91.1177 26.3491 90.9624 26.5864C90.8071 26.8237 90.5713 27.0391 90.2549 27.2324C89.9385 27.4258 89.5371 27.5854 89.0508 27.7114C88.5645 27.8374 87.9873 27.9004 87.3193 27.9004C86.4229 27.9004 85.6348 27.7422 84.9551 27.4258C84.2754 27.1094 83.7056 26.6611 83.2456 26.0811C82.7856 25.501 82.4385 24.8037 82.2041 23.9893C81.9697 23.1748 81.8525 22.2725 81.8525 21.2822C81.8525 20.3096 81.9756 19.4189 82.2217 18.6104C82.4678 17.8018 82.8325 17.1074 83.3159 16.5273C83.7993 15.9473 84.4014 15.4961 85.1221 15.1738C85.8428 14.8516 86.6777 14.6904 87.627 14.6904L87.627 14.6904ZM71.7715 23.4268L71.0859 25.3164C71.0332 25.457 70.9922 25.5962 70.9629 25.7339C70.9336 25.8716 70.9189 25.9902 70.9189 26.0898C70.9189 26.3945 71.0171 26.6172 71.2134 26.7578C71.4097 26.8984 71.71 26.9688 72.1143 26.9688L72.5273 26.9688L72.5273 27.7246L68.1328 27.7246L68.1328 26.9688L68.4756 26.9688C68.6514 26.9688 68.8008 26.9497 68.9238 26.9116C69.0469 26.8735 69.1582 26.8018 69.2578 26.6963C69.3574 26.5908 69.4526 26.4473 69.5435 26.2656C69.6343 26.084 69.7354 25.8496 69.8467 25.5625L73.8369 14.875L75.2432 14.875L79.3125 26.0107C79.3828 26.1982 79.4546 26.3535 79.5278 26.4766C79.6011 26.5996 79.6875 26.6978 79.7871 26.771C79.8867 26.8442 80.001 26.8955 80.1299 26.9248C80.2588 26.9541 80.4111 26.9688 80.5869 26.9688L80.8242 26.9688L80.8242 27.7246L75.876 27.7246L75.876 26.9688L76.2891 26.9688C77.0098 26.9688 77.3701 26.6816 77.3701 26.1074C77.3701 26.0078 77.3569 25.9053 77.3306 25.7998C77.3042 25.6943 77.2676 25.5742 77.2207 25.4395L76.5 23.4268L71.7715 23.4268ZM75.0586 19.375C74.8711 18.8418 74.6997 18.3423 74.5444 17.8765C74.3892 17.4106 74.2617 16.9609 74.1621 16.5273C74.1211 16.7441 74.0728 16.9536 74.0171 17.1558C73.9614 17.3579 73.9014 17.5645 73.8369 17.7754C73.7725 17.9863 73.6992 18.2075 73.6172 18.439C73.5352 18.6704 73.4414 18.9268 73.3359 19.208L72.1143 22.5215L76.1748 22.5215L75.0586 19.375ZM64.6348 27.7246L57.8848 17.3535L57.8848 25.6768C57.8848 25.958 57.9243 26.1836 58.0034 26.3535C58.0825 26.5234 58.188 26.6538 58.3198 26.7446C58.4517 26.8354 58.6084 26.8955 58.79 26.9248C58.9717 26.9541 59.1621 26.9688 59.3613 26.9688L59.5986 26.9688L59.5986 27.7246L55.0811 27.7246L55.0811 26.9688L55.3096 26.9688C55.5146 26.9688 55.7065 26.9541 55.8853 26.9248C56.064 26.8955 56.2207 26.8354 56.3555 26.7446C56.4902 26.6538 56.5957 26.5234 56.6719 26.3535C56.748 26.1836 56.7861 25.958 56.7861 25.6768L56.7861 16.8525C56.7861 16.5889 56.7466 16.3765 56.6675 16.2153C56.5884 16.0542 56.4814 15.9297 56.3467 15.8418C56.2119 15.7539 56.0552 15.6968 55.8765 15.6704C55.6978 15.644 55.5088 15.6309 55.3096 15.6309L55.0811 15.6309L55.0811 14.875L58.377 14.875L64.8193 24.8242L64.8193 16.8525C64.8193 16.5889 64.7798 16.3765 64.7007 16.2153C64.6216 16.0542 64.5146 15.9297 64.3799 15.8418C64.2451 15.7539 64.0884 15.6968 63.9097 15.6704C63.731 15.644 63.542 15.6309 63.3428 15.6309L63.1055 15.6309L63.1055 14.875L67.623 14.875L67.623 15.6309L67.3945 15.6309C67.1895 15.6309 66.9976 15.6455 66.8188 15.6748C66.6401 15.7041 66.4834 15.7642 66.3486 15.855C66.2139 15.9458 66.1084 16.0762 66.0322 16.2461C65.9561 16.416 65.918 16.6416 65.918 16.9229L65.918 27.7246L64.6348 27.7246ZM52.5674 25.5273C52.8721 26.0078 53.168 26.3682 53.4551 26.6084C53.7422 26.8486 54.0762 26.9688 54.457 26.9688L54.5098 26.9688L54.5098 27.7246L54.2549 27.7246C53.6924 27.7246 53.231 27.7041 52.8706 27.6631C52.5103 27.6221 52.2041 27.543 51.9521 27.4258C51.7002 27.3086 51.4849 27.1445 51.3062 26.9336C51.1274 26.7227 50.9355 26.4473 50.7305 26.1074L48.2959 22.0557L46.8018 22.0557L46.8018 25.7646C46.8018 26.0283 46.8413 26.2407 46.9204 26.4019C46.9995 26.563 47.1064 26.6846 47.2412 26.7666C47.376 26.8486 47.5327 26.9028 47.7114 26.9292C47.8901 26.9556 48.0791 26.9688 48.2783 26.9688L48.5156 26.9688L48.5156 27.7246L43.2773 27.7246L43.2773 26.9688L43.5059 26.9688C43.7051 26.9688 43.894 26.9556 44.0728 26.9292C44.2515 26.9028 44.4082 26.8486 44.543 26.7666C44.6777 26.6846 44.7847 26.563 44.8638 26.4019C44.9429 26.2407 44.9824 26.0283 44.9824 25.7646L44.9824 16.8525C44.9824 16.5889 44.9429 16.3765 44.8638 16.2153C44.7847 16.0542 44.6777 15.9297 44.543 15.8418C44.4082 15.7539 44.2515 15.6968 44.0728 15.6704C43.894 15.644 43.7051 15.6309 43.5059 15.6309L43.2773 15.6309L43.2773 14.875L48.1201 14.875C49.6787 14.875 50.8389 15.1636 51.6006 15.7407C52.3623 16.3179 52.7432 17.1865 52.7432 18.3467C52.7432 18.8271 52.6655 19.2476 52.5103 19.6079C52.355 19.9683 52.1514 20.2803 51.8994 20.5439C51.6475 20.8076 51.3633 21.0273 51.0469 21.2031C50.7305 21.3789 50.4141 21.5195 50.0977 21.625L52.5674 25.5273ZM46.8018 21.2119L48.0674 21.2119C48.5947 21.2119 49.0342 21.1533 49.3857 21.0361C49.7373 20.9189 50.0186 20.7432 50.2295 20.5088C50.4404 20.2744 50.5913 19.9814 50.6821 19.6299C50.7729 19.2783 50.8184 18.8682 50.8184 18.3994C50.8184 17.9189 50.7686 17.5103 50.6689 17.1733C50.5693 16.8364 50.4082 16.561 50.1855 16.3472C49.9629 16.1333 49.6743 15.978 49.3198 15.8813C48.9653 15.7847 48.5332 15.7363 48.0234 15.7363L46.8018 15.7363L46.8018 21.2119ZM35.5869 26.8281L39.0586 26.8281C39.3457 26.8281 39.5903 26.7886 39.7925 26.7095C39.9946 26.6304 40.1631 26.5234 40.2979 26.3887C40.4326 26.2539 40.5381 26.0972 40.6143 25.9185C40.6904 25.7397 40.7432 25.5508 40.7725 25.3516L40.8955 24.5781L41.8359 24.5781L41.7129 27.7246L32.0625 27.7246L32.0625 26.9688L32.291 26.9688C32.4902 26.9688 32.6792 26.9556 32.8579 26.9292C33.0366 26.9028 33.1934 26.8486 33.3281 26.7666C33.4629 26.6846 33.5698 26.563 33.6489 26.4019C33.728 26.2407 33.7676 26.0283 33.7676 25.7646L33.7676 16.9229C33.7676 16.6416 33.7295 16.416 33.6533 16.2461C33.5771 16.0762 33.4717 15.9458 33.3369 15.855C33.2021 15.7642 33.0454 15.7041 32.8667 15.6748C32.688 15.6455 32.4961 15.6309 32.291 15.6309L32.0625 15.6309L32.0625 14.875L41.1328 14.875L41.2207 18.0215L40.2891 18.0215L40.2012 17.248C40.1777 17.0488 40.1323 16.8599 40.0649 16.6812C39.9976 16.5024 39.9009 16.3457 39.7749 16.2109C39.6489 16.0762 39.4907 15.9692 39.3003 15.8901C39.1099 15.811 38.8799 15.7715 38.6104 15.7715L35.5869 15.7715L35.5869 20.5615L39.9287 20.5615L39.9287 21.4404L35.5869 21.4404L35.5869 26.8281ZM26.7539 25.6768C26.7539 25.958 26.7935 26.1836 26.8726 26.3535C26.9517 26.5234 27.0571 26.6538 27.189 26.7446C27.3208 26.8354 27.4775 26.8955 27.6592 26.9248C27.8408 26.9541 28.0312 26.9688 28.2305 26.9688L28.6436 26.9688L28.6436 27.7246L23.0449 27.7246L23.0449 26.9688L23.458 26.9688C23.6572 26.9688 23.8462 26.9556 24.0249 26.9292C24.2036 26.9028 24.3604 26.8486 24.4951 26.7666C24.6299 26.6846 24.7368 26.563 24.8159 26.4019C24.895 26.2407 24.9346 26.0283 24.9346 25.7646L24.9346 15.7715L23.2119 15.7715C22.9482 15.7715 22.7271 15.811 22.5483 15.8901C22.3696 15.9692 22.2231 16.0762 22.1089 16.2109C21.9946 16.3457 21.9097 16.5024 21.854 16.6812C21.7983 16.8599 21.7588 17.0488 21.7354 17.248L21.6387 18.0215L20.707 18.0215L20.7949 14.875L30.9287 14.875L31.0166 18.0215L30.085 18.0215L29.9971 17.248C29.9736 17.0488 29.9326 16.8599 29.874 16.6812C29.8154 16.5024 29.7305 16.3457 29.6191 16.2109C29.5078 16.0762 29.3613 15.9692 29.1797 15.8901C28.998 15.811 28.7725 15.7715 28.5029 15.7715L26.7539 15.7715L26.7539 25.6768ZM16.8486 27.7246L10.0986 17.3535L10.0986 25.6768C10.0986 25.958 10.1382 26.1836 10.2173 26.3535C10.2964 26.5234 10.4019 26.6538 10.5337 26.7446C10.6655 26.8354 10.8223 26.8955 11.0039 26.9248C11.1855 26.9541 11.376 26.9688 11.5752 26.9688L11.8125 26.9688L11.8125 27.7246L7.29492 27.7246L7.29492 26.9688L7.52344 26.9688C7.72852 26.9688 7.92041 26.9541 8.09912 26.9248C8.27783 26.8955 8.43457 26.8354 8.56934 26.7446C8.7041 26.6538 8.80957 26.5234 8.88574 26.3535C8.96191 26.1836 9 25.958 9 25.6768L9 16.8525C9 16.5889 8.96045 16.3765 8.88135 16.2153C8.80225 16.0542 8.69531 15.9297 8.56055 15.8418C8.42578 15.7539 8.26904 15.6968 8.09033 15.6704C7.91162 15.644 7.72266 15.6309 7.52344 15.6309L7.29492 15.6309L7.29492 14.875L10.5908 14.875L17.0332 24.8242L17.0332 16.8525C17.0332 16.5889 16.9937 16.3765 16.9146 16.2153C16.8354 16.0542 16.7285 15.9297 16.5938 15.8418C16.459 15.7539 16.3022 15.6968 16.1235 15.6704C15.9448 15.644 15.7559 15.6309 15.5566 15.6309L15.3193 15.6309L15.3193 14.875L19.8369 14.875L19.8369 15.6309L19.6084 15.6309C19.4033 15.6309 19.2114 15.6455 19.0327 15.6748C18.854 15.7041 18.6973 15.7642 18.5625 15.855C18.4277 15.9458 18.3223 16.0762 18.2461 16.2461C18.1699 16.416 18.1318 16.6416 18.1318 16.9229L18.1318 27.7246L16.8486 27.7246ZM0.685547 27.7246L0.685547 26.9688L0.914062 26.9688C1.11914 26.9688 1.31104 26.9541 1.48975 26.9248C1.66846 26.8955 1.8252 26.8354 1.95996 26.7446C2.09473 26.6538 2.2002 26.5234 2.27637 26.3535C2.35254 26.1836 2.39062 25.958 2.39062 25.6768L2.39062 16.9229C2.39062 16.6416 2.35254 16.416 2.27637 16.2461C2.2002 16.0762 2.09473 15.9458 1.95996 15.855C1.8252 15.7642 1.66846 15.7041 1.48975 15.6748C1.31104 15.6455 1.11914 15.6309 0.914062 15.6309L0.685547 15.6309L0.685547 14.875L5.92383 14.875L5.92383 15.6309L5.68652 15.6309C5.4873 15.6309 5.29688 15.6455 5.11523 15.6748C4.93359 15.7041 4.77686 15.7642 4.64502 15.855C4.51318 15.9458 4.40771 16.0762 4.32861 16.2461C4.24951 16.416 4.20996 16.6416 4.20996 16.9229L4.20996 25.6768C4.20996 25.958 4.24951 26.1836 4.32861 26.3535C4.40771 26.5234 4.51318 26.6538 4.64502 26.7446C4.77686 26.8354 4.93359 26.8955 5.11523 26.9248C5.29688 26.9541 5.4873 26.9688 5.68652 26.9688L5.92383 26.9688L5.92383 27.7246L0.685547 27.7246Z" id="INTERNACIONAL-DE-INVESTIGACIN-EN-SALUD" fill="#C9E3BC" stroke="none" />
    </g>
  </g>
</svg>